<?xml version="1.0" encoding="UTF-8"?> <svg xmlns="http://www.w3.org/2000/svg" width="32" height="32" viewBox="0 0 32 32" fill="none"><path d="M29.5651 8.3478H23.6521V2.43481C23.6521 1.09237 22.5598 0 21.2173 0H10.7826C9.44023 0 8.34786 1.09237 8.34786 2.43481V8.34786H2.43481C1.09237 8.3478 0 9.44017 0 10.7826V21.2174C0 22.5598 1.09237 23.6521 2.43481 23.6521H8.34786V29.5652C8.34786 30.9076 9.44023 32 10.7826 32H21.2174C22.5598 32 23.6521 30.9076 23.6521 29.5652V23.6521H29.5652C30.9076 23.6521 32 22.5598 32 21.2174V10.7826C31.9999 9.44017 30.9076 8.3478 29.5651 8.3478ZM16.6793 21.5648C16.2897 21.8984 15.7136 21.9011 15.3207 21.5648C12.1435 18.8383 9.74729 17.4036 9.74729 14.6453C9.74729 12.3114 11.5027 10.483 13.7432 10.483C14.5849 10.483 15.3498 10.7343 15.9999 11.218C16.6514 10.7343 17.4157 10.483 18.2573 10.483C20.4978 10.483 22.2532 12.3114 22.2532 14.6453C22.2534 17.3934 19.9811 18.7325 16.6793 21.5648Z" fill="#2d9bda"></path></svg> 