<svg xmlns="http://www.w3.org/2000/svg" width="48" height="48" viewBox="0 0 48 48" fill="#43b02a" fill-rule="evenodd">
  <metadata><?xpacket begin="﻿" id="W5M0MpCehiHzreSzNTczkc9d"?>
<x:xmpmeta xmlns:x="adobe:ns:meta/" x:xmptk="Adobe XMP Core 5.6-c138 79.159824, 2016/09/14-01:09:01        ">
   <rdf:RDF xmlns:rdf="http://www.w3.org/1999/02/22-rdf-syntax-ns#">
      <rdf:Description rdf:about=""/>
   </rdf:RDF>
</x:xmpmeta>
<?xpacket end="w"?></metadata>
  <path id="white-electronics-best" class="cls-1" d="M1436.17,1613.79a23.9,23.9,0,0,0-23.1-17.79,24.131,24.131,0,0,0-20.87,11.99,24.092,24.092,0,0,0,8.79,32.81,26.493,26.493,0,0,0,2.38,1.2h-0.38a1,1,0,1,0,0,2h20.02a1,1,0,1,0,0-2h-0.45A23.891,23.891,0,0,0,1436.17,1613.79Zm-4.11,17.22a21.982,21.982,0,1,1-8.05-30.08A22.1,22.1,0,0,1,1432.06,1631.01Zm-23.72,6.39a18.057,18.057,0,0,1-12.74-12.74,1,1,0,1,0-1.93.52,20.081,20.081,0,0,0,14.15,14.15,0.783,0.783,0,0,0,.26.04A1,1,0,0,0,1408.34,1637.4Zm9.84-36.73a1,1,0,1,0-.52,1.93,18.057,18.057,0,0,1,12.74,12.74,1,1,0,0,0,.96.74,0.783,0.783,0,0,0,.26-0.04,1,1,0,0,0,.71-1.22A20.064,20.064,0,0,0,1418.18,1600.67ZM1412.4,1638c-0.25-.01-0.5-0.02-0.75-0.04a1,1,0,0,0-.15,2c0.28,0.02.56,0.03,0.83,0.04h0.04a1,1,0,0,0,1-.96A1.006,1.006,0,0,0,1412.4,1638Zm1.2-36c0.25,0,.5.02,0.75,0.04h0.07a1,1,0,0,0,.08-2c-0.28-.02-0.56-0.04-0.83-0.04a1,1,0,0,0-1.04.96A1.012,1.012,0,0,0,1413.6,1602Zm9.52,12.32h-5.34c0.43-2.03.71-4.19-.45-5.78a5.15,5.15,0,0,0-3.92-1.87,1.21,1.21,0,0,0-.19-0.01,2.077,2.077,0,0,0-2.05,1.86c-0.34,3.6-1.31,5.62-2.31,6.52a1,1,0,0,0-.96-0.72h-6.36a1,1,0,0,0-1,1v13.01a1,1,0,0,0,1,1h6.36a1,1,0,0,0,.97-0.75,5,5,0,0,0,2.77.75h10.57a2.106,2.106,0,0,0,2.07-1.96l1.16-10.28a2.559,2.559,0,0,0-.57-2.04A2.246,2.246,0,0,0,1423.12,1614.32Zm-16.22,2.28v10.73h-4.36v-7.01h2.18a1,1,0,0,0,0-2h-2.18v-2h4.36v0.28Zm16.55,0.27-1.16,10.28a0.307,0.307,0,0,1-.07.18h-10.58a2.508,2.508,0,0,1-2.74-2.79v-7.19a5.174,5.174,0,0,0,2.21-1.87,14.267,14.267,0,0,0,2.05-6.77,0.077,0.077,0,0,1,.06-0.05,3.368,3.368,0,0,1,2.5,1.06c0.79,1.1.32,3.21-.09,5.07l-0.08.31a1.037,1.037,0,0,0,.2.85,1.022,1.022,0,0,0,.78.37h6.59a0.375,0.375,0,0,1,.26.06A0.738,0.738,0,0,1,1423.45,1616.87Z" transform="translate(-1389 -1596)"/>
</svg>
