<?xml version="1.0" encoding="UTF-8"?>
<svg width="184px" height="43px" viewBox="0 0 184 43" version="1.1" xmlns="http://www.w3.org/2000/svg" xmlns:xlink="http://www.w3.org/1999/xlink">
    <!-- Generator: sketchtool 53 (72520) - https://sketchapp.com -->
    <title>FA728759-BCC1-4A62-8350-8054CFC55B6C</title>
    <desc>Created with sketchtool.</desc>
    <defs>
        <polygon id="path-1" points="0.677386974 0.00871714298 23.5292546 0.00871714298 23.5292546 21.599999 0.677386974 21.599999"></polygon>
    </defs>
    <g id="Page-1" stroke="none" stroke-width="1" fill="none" fill-rule="evenodd">
        <g id="connect" transform="translate(-816.000000, -212.000000)">
            <g id="logos/logo-doppler" transform="translate(816.000000, 205.000000)">
                <g id="Group-19" transform="translate(0.000000, 7.200000)">
                    <path d="M172.633754,18.2186352 C171.54204,20.0110277 168.452821,19.77689 167.757588,17.7199937 C167.757588,17.7199937 166.929664,14.6666135 163.733181,14.6426404 C160.537492,14.6666135 159.70798,17.7199937 159.70798,17.7199937 C159.013541,19.77689 155.925912,20.0110277 154.83817,18.2186352 C154.115128,17.0359598 154.409112,16.1984978 154.5275,15.7925525 C154.5275,15.7925525 156.808659,9.10484276 163.722852,9.10484276 L163.733181,9.10484276 L163.742716,9.10484276 C170.659292,9.10484276 172.94204,15.7925525 172.94204,15.7925525 C173.056456,16.1984978 173.349646,17.0359598 172.633754,18.2186352 M164.728755,0.0222154446 C153.805252,-0.492408173 144.534418,7.9964842 144.021932,18.9825797 C143.743044,24.9790636 146.143386,30.4681158 150.145545,34.3110117 L147.394011,42 L155.251337,37.8806137 C157.570635,38.9977625 160.143395,39.6786 162.875859,39.8072559 C173.797773,40.3218795 183.066224,31.832188 183.577915,20.8452934 C184.089607,9.85999705 175.649874,0.536839062 164.728755,0.0222154446" id="Fill-1" fill="#F9B120"></path>
                    <g id="Group-18" transform="translate(0.000000, 20.400000)">
                        <path d="M8.51267709,16.3579116 C11.9385882,16.3579116 14.2397632,14.1493115 14.2397632,10.8614828 L14.2397632,10.8043971 C14.2397632,7.48262556 11.9385882,5.25088263 8.51267709,5.25088263 L5.49323005,5.25088263 L5.49323005,16.3579116 L8.51267709,16.3579116 Z M2.74661495,21.2580256 C1.20666518,21.2580256 0,20.0877685 0,18.5935114 L0,3.01451142 C0,1.52102571 1.20666518,0.350768566 2.74661495,0.350768566 L8.51267686,0.350768566 C15.1338245,0.350768566 19.9382132,4.7232257 19.9382132,10.7473114 L19.9382132,10.8043971 C19.9382132,16.8608828 15.1338245,21.2580256 8.51267686,21.2580256 L2.74661495,21.2580256 Z" id="Fill-3" fill="#2F2412"></path>
                        <g id="Group-7" transform="translate(20.681143, 0.000000)">
                            <mask id="mask-2" fill="white">
                                <use xlink:href="#path-1"></use>
                            </mask>
                            <g id="Clip-6"></g>
                            <path d="M12.0742882,4.99368857 C8.82575773,4.99368857 6.376633,7.46688857 6.376633,10.7470029 L6.376633,10.8040886 C6.376633,14.1166029 8.85121145,16.6144886 12.13315,16.6144886 C15.380885,16.6144886 17.8300098,14.1412886 17.8300098,10.8611743 L17.8300098,10.8040886 C17.8300098,7.49157429 15.3554313,4.99368857 12.0742882,4.99368857 M12.0742877,21.6002325 C5.57722703,21.6002325 0.677386974,16.9832323 0.677386974,10.8611748 L0.677386974,10.8040891 C0.677386974,4.75068881 5.7100636,0.00871714298 12.1331494,0.00871714298 C18.63021,0.00871714298 23.5292546,4.62494594 23.5292546,10.7470034 L23.5292546,10.8040891 C23.5292546,16.8574894 18.4973734,21.6002325 12.0742877,21.6002325" id="Fill-5" fill="#2F2412" mask="url(#mask-2)"></path>
                        </g>
                        <path d="M55.1431679,10.4230797 C57.0315155,10.4230797 58.2509075,9.41945116 58.2509075,7.86579403 L58.2509075,7.80793689 C58.2509075,5.58313692 56.2488137,5.2506512 55.0548753,5.2506512 L52.0354283,5.2506512 L52.0354283,10.4230797 L55.1431679,10.4230797 Z M49.2888131,21.4290505 C47.7488634,21.4290505 46.5421982,20.2587934 46.5421982,18.7645363 L46.5421982,3.01427988 C46.5421982,1.52079424 47.7488634,0.350537145 49.2888131,0.350537145 L55.4374761,0.350537145 C60.5202647,0.350537145 63.8037939,3.24493701 63.8037939,7.72307967 L63.8037939,7.78016538 C63.8037939,12.3269652 60.3468613,15.2653365 54.9960132,15.2653365 L52.035428,15.2653365 L52.035428,18.7645363 C52.035428,20.2587934 50.8287628,21.4290505 49.2888131,21.4290505 L49.2888131,21.4290505 Z" id="Fill-8" fill="#2F2412"></path>
                        <path d="M74.0602111,10.4230797 C75.9477632,10.4230797 77.1679507,9.41945116 77.1679507,7.86579403 L77.1679507,7.80793689 C77.1679507,5.58313692 75.1658569,5.2506512 73.9719185,5.2506512 L70.9524714,5.2506512 L70.9524714,10.4230797 L74.0602111,10.4230797 Z M68.2050608,21.4290505 C66.6651111,21.4290505 65.4592414,20.2587934 65.4592414,18.7645363 L65.4592414,3.01427988 C65.4592414,1.52079424 66.6651111,0.350537145 68.2050608,0.350537145 L74.3537238,0.350537145 C79.4365125,0.350537145 82.7208371,3.24493701 82.7208371,7.72307967 L82.7208371,7.78016538 C82.7208371,12.3269652 79.263109,15.2653365 73.9130564,15.2653365 L70.9524712,15.2653365 L70.9524712,18.7645363 C70.9524712,20.2587934 69.7450106,21.4290505 68.2050608,21.4290505 L68.2050608,21.4290505 Z" id="Fill-10" fill="#2F2412"></path>
                        <path d="M87.1226615,21.2577163 C85.5819163,21.2577163 84.3760465,20.0874592 84.3760465,18.5939735 L84.3760465,2.84371704 C84.3760465,1.35023139 85.5819163,0.179974294 87.1226615,0.179974294 C88.6626113,0.179974294 89.868481,1.35023139 89.868481,2.84371704 L89.868481,16.3298308 L97.7734505,16.3298308 C99.1972677,16.3298308 100.313254,17.412145 100.313254,18.7937735 C100.313254,20.1754021 99.1972677,21.2577163 97.7734505,21.2577163 L87.1226615,21.2577163 Z" id="Fill-12" fill="#2F2412"></path>
                        <path d="M104.597186,21.2577171 C103.056441,21.2577171 101.850571,20.0874599 101.850571,18.5939742 L101.850571,3.01497428 C101.850571,1.52148857 103.056441,0.350460005 104.597186,0.350460005 L116.012382,0.350460005 C117.397223,0.350460005 118.524345,1.44357429 118.524345,2.78663143 C118.524345,4.11348856 117.397223,5.19348856 116.012382,5.19348856 L107.31437,5.19348856 L107.31437,8.31160284 L114.688788,8.31160284 C116.07363,8.31160284 117.199957,9.40471712 117.199957,10.7470028 C117.199957,12.0746314 116.07363,13.1546314 114.688788,13.1546314 L107.31437,13.1546314 L107.31437,16.41546 L116.159536,16.41546 C117.544377,16.41546 118.670704,17.5078028 118.670704,18.8508599 C118.670704,20.1777171 117.544377,21.2577171 116.159536,21.2577171 L104.597186,21.2577171 Z" id="Fill-14" fill="#2F2412"></path>
                        <path d="M130.427704,10.0524085 C132.300143,10.0524085 133.418516,9.17066561 133.418516,7.69415131 L133.418516,7.6370656 C133.418516,5.66452272 131.744138,5.25026557 130.340207,5.25026557 L126.320111,5.25026557 L126.320111,10.0524085 L130.427704,10.0524085 Z M136.106268,21.4286649 C135.063461,21.4286649 134.208376,20.9974363 133.491695,20.1079792 L129.223425,14.8661223 L126.320111,14.8661223 L126.320111,18.7649221 C126.320111,20.2584078 125.11265,21.4286649 123.5727,21.4286649 C122.032751,21.4286649 120.826881,20.2584078 120.826881,18.7649221 L120.826881,3.0146656 C120.826881,1.52117994 122.032751,0.350922847 123.5727,0.350922847 L130.722012,0.350922847 C133.412152,0.350922847 135.605148,1.09920853 137.06476,2.51400847 C138.311196,3.722837 138.970607,5.41535121 138.970607,7.40872256 L138.970607,7.46580827 C138.970607,10.3532653 137.6494,12.5016938 135.140618,13.7166937 L137.889619,16.9559222 C138.338241,17.5074936 138.73516,18.0675507 138.73516,18.9361792 C138.73516,20.4967792 137.39884,21.4286649 136.106268,21.4286649 L136.106268,21.4286649 Z" id="Fill-16" fill="#2F2412"></path>
                    </g>
                </g>
            </g>
        </g>
    </g>
</svg>