<svg width="20" height="20" viewBox="0 0 20 20" xmlns="http://www.w3.org/2000/svg"><title>Combined Shape</title><path d="M10 3.75A1.875 1.875 0 1 1 10 0a1.875 1.875 0 0 1 0 3.75zM10 20a1.875 1.875 0 1 1 0-3.75A1.875 1.875 0 0 1 10 20zm6.25-10A1.875 1.875 0 1 1 20 10a1.875 1.875 0 0 1-3.75 0zM0 10a1.875 1.875 0 1 1 3.75 0A1.875 1.875 0 0 1 0 10zm14.42-4.42a1.875 1.875 0 1 1 2.65-2.65 1.875 1.875 0 0 1-2.65 2.65zM2.928 17.072A1.875 1.875 0 1 1 5.58 14.42a1.875 1.875 0 0 1-2.652 2.652zm11.49-2.652a1.875 1.875 0 1 1 2.652 2.652 1.875 1.875 0 0 1-2.652-2.652zM2.93 2.93a1.875 1.875 0 1 1 2.65 2.65 1.875 1.875 0 0 1-2.652-2.652z" fill="#FFF" fill-rule="evenodd"/></svg>