<svg width="27" height="27" viewBox="0 0 27 27" fill="none" xmlns="http://www.w3.org/2000/svg">
    <path d="M26.3202 13.8364C26.3202 20.9694 20.5377 26.7518 13.4047 26.7518C6.2717 26.7518 0.489258 20.9694 0.489258 13.8364C0.489258 6.70334 6.2717 0.920898 13.4047 0.920898C20.5377 0.920898 26.3202 6.70334 26.3202 13.8364ZM2.26236 13.8364C2.26236 19.9901 7.25096 24.9787 13.4047 24.9787C19.5585 24.9787 24.5471 19.9901 24.5471 13.8364C24.5471 7.6826 19.5585 2.694 13.4047 2.694C7.25096 2.694 2.26236 7.6826 2.26236 13.8364Z" fill="#EBECED"/>
    <path d="M13.4047 0.920898C16.6897 0.920898 19.8513 2.17265 22.2459 4.42139C24.6406 6.67013 26.0884 9.74686 26.2947 13.0254L24.5251 13.1367C24.3471 10.3083 23.0981 7.65395 21.0322 5.71393C18.9663 3.77391 16.2387 2.694 13.4047 2.694V0.920898Z" fill="#85A9FF"/>
    <path d="M26.3203 13.8364C26.3203 17.1214 25.0686 20.2829 22.8198 22.6776C20.5711 25.0723 17.4943 26.5201 14.2158 26.7263L14.1045 24.9567C16.9329 24.7788 19.5873 23.5297 21.5273 21.4638C23.4673 19.3979 24.5472 16.6704 24.5472 13.8364L26.3203 13.8364Z" fill="#85A9FF"/>
    <path d="M13.4049 26.752C10.1199 26.752 6.95829 25.5002 4.56362 23.2515C2.16896 21.0027 0.721158 17.926 0.514892 14.6475L2.2845 14.5361C2.46245 17.3646 3.71148 20.0189 5.7774 21.9589C7.84331 23.8989 10.5708 24.9788 13.4049 24.9788L13.4049 26.752Z" fill="#85A9FF"/>
    <path d="M0.489257 13.8365C0.489257 10.5515 1.74101 7.38993 3.98975 4.99526C6.23849 2.6006 9.31522 1.1528 12.5937 0.946531L12.7051 2.71613C9.87665 2.89408 7.22231 4.14312 5.28229 6.20904C3.34227 8.27495 2.26236 11.0025 2.26236 13.8365L0.489257 13.8365Z" fill="#3C6AF0"/>
</svg>
