<svg width="26" height="26" viewBox="0 0 26 26" fill="none" xmlns="http://www.w3.org/2000/svg">
<path d="M25.8387 12.9155C25.8387 20.0485 20.0563 25.8309 12.9233 25.8309C5.79026 25.8309 0.0078125 20.0485 0.0078125 12.9155C0.0078125 5.78245 5.79026 0 12.9233 0C20.0563 0 25.8387 5.78245 25.8387 12.9155ZM1.78092 12.9155C1.78092 19.0692 6.76952 24.0578 12.9233 24.0578C19.077 24.0578 24.0656 19.0692 24.0656 12.9155C24.0656 6.7617 19.077 1.7731 12.9233 1.7731C6.76952 1.7731 1.78092 6.7617 1.78092 12.9155Z" fill="#EBECED"/>
<path d="M12.9233 0C16.2083 3.91733e-08 19.3698 1.25175 21.7645 3.50049C24.1592 5.74924 25.607 8.82596 25.8132 12.1045L24.0436 12.2158C23.8657 9.38739 22.6166 6.73305 20.5507 4.79303C18.4848 2.85301 15.7573 1.7731 12.9233 1.7731L12.9233 0Z" fill="#3C6AF0"/>
</svg>
