<svg width="27" height="27" viewBox="0 0 27 27" fill="none" xmlns="http://www.w3.org/2000/svg">
    <path d="M26.7274 13.8366C26.7274 20.9696 20.9449 26.7521 13.8119 26.7521C6.67893 26.7521 0.896484 20.9696 0.896484 13.8366C0.896484 6.70359 6.67893 0.921143 13.8119 0.921143C20.9449 0.921143 26.7274 6.70359 26.7274 13.8366ZM2.66959 13.8366C2.66959 19.9903 7.65819 24.9789 13.8119 24.9789C19.9657 24.9789 24.9543 19.9903 24.9543 13.8366C24.9543 7.68285 19.9657 2.69425 13.8119 2.69425C7.65819 2.69425 2.66959 7.68285 2.66959 13.8366Z" fill="#EBECED"/>
    <path d="M13.8119 0.921143C17.0969 0.921143 20.2585 2.17289 22.6532 4.42164C25.0478 6.67038 26.4956 9.74711 26.7019 13.0256L24.9323 13.137C24.7544 10.3085 23.5053 7.6542 21.4394 5.71417C19.3735 3.77415 16.646 2.69425 13.8119 2.69425V0.921143Z" fill="#85A9FF"/>
    <path d="M26.7275 13.8366C26.7275 17.1216 25.4758 20.2832 23.227 22.6778C20.9783 25.0725 17.9016 26.5203 14.6231 26.7266L14.5117 24.957C17.3401 24.779 19.9945 23.53 21.9345 21.4641C23.8745 19.3981 24.9544 16.6706 24.9544 13.8366L26.7275 13.8366Z" fill="#85A9FF"/>
    <path d="M13.8121 26.7522C10.5271 26.7522 7.36551 25.5004 4.97085 23.2517C2.57618 21.003 1.12838 17.9262 0.922118 14.6477L2.69172 14.5364C2.86967 17.3648 4.11871 20.0191 6.18462 21.9592C8.25053 23.8992 10.9781 24.9791 13.8121 24.9791L13.8121 26.7522Z" fill="#3C6AF0"/>
</svg>
