<svg width="27" height="27" viewBox="0 0 27 27" fill="none" xmlns="http://www.w3.org/2000/svg">
    <path d="M26.1346 13.8364C26.1346 20.9694 20.3522 26.7518 13.2192 26.7518C6.08616 26.7518 0.303711 20.9694 0.303711 13.8364C0.303711 6.70334 6.08616 0.920898 13.2192 0.920898C20.3522 0.920898 26.1346 6.70334 26.1346 13.8364ZM2.07681 13.8364C2.07681 19.9901 7.06541 24.9787 13.2192 24.9787C19.3729 24.9787 24.3615 19.9901 24.3615 13.8364C24.3615 7.6826 19.3729 2.694 13.2192 2.694C7.06541 2.694 2.07681 7.6826 2.07681 13.8364Z" fill="#EBECED"/>
    <path d="M13.2192 0.920898C16.5042 0.920898 19.6657 2.17265 22.0604 4.42139C24.4551 6.67013 25.9029 9.74686 26.1091 13.0254L24.3395 13.1367C24.1616 10.3083 22.9125 7.65395 20.8466 5.71393C18.7807 3.77391 16.0532 2.694 13.2192 2.694L13.2192 0.920898Z" fill="#85A9FF"/>
    <path d="M26.1348 13.8364C26.1348 17.1214 24.883 20.2829 22.6343 22.6776C20.3855 25.0723 17.3088 26.5201 14.0303 26.7263L13.9189 24.9567C16.7474 24.7788 19.4017 23.5297 21.3417 21.4638C23.2818 19.3979 24.3617 16.6704 24.3617 13.8364L26.1348 13.8364Z" fill="#3C6AF0"/>
</svg>
