<?xml version="1.0" encoding="UTF-8"?> <svg xmlns="http://www.w3.org/2000/svg" width="80" height="81" viewBox="0 0 80 81" fill="none"><path d="M35.1454 55.5268C34.985 62.6786 28.8064 67.9018 20.3009 68.5446C17.4925 61.3929 20.7823 53.9196 28.0843 50.9464C35.3862 47.9732 42.6881 45.1607 50.0702 42.4286C56.65 39.9375 62.5075 33.9911 60.9027 25.875C52.5577 27 49.5085 34.3929 45.2558 40.3393C44.0522 30.6161 54.4032 23.0625 63.7914 21.5357C66.7603 28.6875 63.2297 39.1339 55.6068 43.0714C50.0702 45.9643 44.0522 47.8125 38.2748 50.2232C34.7442 51.6696 31.1334 53.1161 27.6831 54.9643C23.992 56.9732 22.0662 61.0714 22.3872 64.4464C25.2758 64.2857 31.2939 63.0804 35.1454 55.5268Z" fill="#959C3A"></path><path d="M39.8796 33.5089C30.2508 23.7054 30.1705 11.25 39.5587 0C49.5888 6.75 49.8295 23.4643 39.8796 33.5089ZM39.7994 5.54464C34.5838 13.3393 34.7442 22.5 40.2006 28.125C45.4965 20.4911 45.4162 12.375 39.7994 5.54464Z" fill="#959C3A"></path><path d="M28.2447 45.0804C18.2949 41.5446 13.2397 32.0625 15.9679 21.8571C26.8806 22.9821 34.9047 30.375 35.9478 40.3393C36.1886 42.5893 36.0281 44.3571 33.1394 44.2768C31.5346 32.8661 27.5226 27.7232 18.9368 26.1161C17.8937 32.0625 20.5416 37.2054 26.2387 40.7411C27.5226 41.5446 28.325 43.0714 29.3681 44.2768C28.9669 44.4375 28.5657 44.7589 28.2447 45.0804Z" fill="#959C3A"></path><path d="M80 48.6161C72.1364 56.1696 63.1495 56.1696 56.8104 48.5357C63.4704 40.5804 73.4203 40.5804 80 48.6161ZM61.7854 48.5357C67.0812 51.9911 70.5316 51.9107 74.4634 48.375C70.0502 45.0804 66.3591 45 61.7854 48.5357Z" fill="#959C3A"></path><path d="M23.2698 48.6161C16.6901 56.0893 8.666 56.0893 0 48.8571C5.37613 40.8214 15.8877 40.5804 23.2698 48.6161ZM5.13541 48.2946C10.0301 52.0714 14.4433 51.9107 18.1344 48.0536C13.8014 45.2411 9.62889 45.0804 5.13541 48.2946Z" fill="#959C3A"></path><path d="M59.9398 68.8661C50.8726 67.6607 45.4162 62.9196 44.2126 55.2054C44.0522 54 45.015 52.7143 46.1384 51.5089C47.2618 58.3393 49.99 63.1607 57.2116 64.7679C58.1745 60.6696 56.4092 58.0982 53.5206 55.7679C52.317 54.8036 51.5145 53.2768 50.9529 51.75C58.656 53.1964 62.1866 60.1875 59.9398 68.8661Z" fill="#959C3A"></path><path d="M39.8796 60.3482C46.9408 66.5357 46.7803 75.1339 39.7994 81C33.1394 74.7321 33.0592 67.2589 39.8796 60.3482ZM39.8796 65.6518C37.3922 69.2679 37.7934 72.4018 39.9599 76.0179C42.2066 72.3214 42.7683 69.1875 39.8796 65.6518Z" fill="#959C3A"></path></svg> 