<svg width="28" height="28" viewBox="0 0 28 28" fill="none" xmlns="http://www.w3.org/2000/svg">
<g clip-path="url(#clip0_5729_45981)">
<path d="M22.6535 3.17703C22.2985 2.68422 22.1086 -0.245286 23.0816 0.0165195C23.9756 0.324527 23.4906 1.7927 23.6323 2.60892C23.663 3.189 23.0027 3.58086 22.6535 3.17703Z" fill="#EFC800"/>
<path d="M27.7451 5.94754C28.103 6.39415 27.7451 7.16588 27.2323 7.08717C26.5501 6.87499 25.082 7.3541 25.0601 6.15629C25.0995 5.13302 27.2922 5.56424 27.7451 5.94754Z" fill="#EFC800"/>
<path d="M25.9656 1.0571C26.4579 0.543759 27.1459 -0.506888 27.8048 0.287086C27.9398 0.464251 28.0097 0.696757 27.999 0.933948C27.9883 1.17114 27.898 1.39377 27.7478 1.55332C27.2453 2.09747 26.7408 2.64047 26.2344 3.18234C26.1604 3.26319 26.0734 3.32603 25.9785 3.36718C25.8835 3.40832 25.7826 3.42696 25.6815 3.42203C25.5804 3.41709 25.4811 3.38867 25.3894 3.33841C25.2978 3.28816 25.2155 3.21709 25.1475 3.1293C24.5383 2.29426 25.4908 1.58756 25.9656 1.0571Z" fill="#EFC800"/>
<ellipse cx="17.5544" cy="20.6682" rx="1.27705" ry="1.43116" fill="#4E7EFF"/>
<ellipse cx="9.45161" cy="20.6682" rx="1.27705" ry="1.43116" fill="#4E7EFF"/>
<path d="M2.35658 5.43002C2.00834 5.43002 1.72607 5.11367 1.72607 4.72343C1.72607 4.3332 2.00834 4.01685 2.35658 4.01685H6.10562C6.21448 4.01685 6.30653 4.0891 6.33618 4.20648C6.33618 4.20648 6.87224 5.81904 7.24532 6.95742C7.29214 6.94888 7.34136 6.9444 7.39311 6.9444H22.4805C23.4129 6.9444 24.0882 7.94083 23.838 8.94735L21.9368 16.5966C21.7671 17.2796 21.212 17.7521 20.5793 17.7521H10.7769L11.9221 10.7168C12.1017 9.73729 11.4341 8.81971 10.5418 8.81971H6.76601C6.51196 8.81971 6.30692 8.58429 6.35247 8.33435C6.34664 8.3198 6.3412 8.30492 6.33618 8.28974L5.46115 5.64489C5.4186 5.51577 5.30878 5.43002 5.18595 5.43002H2.35658Z" fill="#4E7EFF"/>
<rect x="1.2771" y="10.145" width="9.45177" height="1.4788" rx="0.739399" fill="#091A42"/>
<rect x="2.36938" y="12.8005" width="7.08243" height="1.4788" rx="0.739399" fill="#091A42"/>
<rect y="15.4558" width="8.17467" height="1.4788" rx="0.739399" fill="#091A42"/>
<path fill-rule="evenodd" clip-rule="evenodd" d="M23.69 15.5062C21.5845 15.4783 19.8582 17.1587 19.8303 19.2651C19.8198 20.0595 20.0524 20.7976 20.4743 21.4346C20.5061 21.4831 20.5141 21.5435 20.496 21.5986L20.092 22.8881L21.3656 22.4674C21.4207 22.4498 21.4808 22.4583 21.529 22.4904C22.1177 22.8835 22.8257 23.1147 23.5893 23.1248C25.6958 23.1527 27.4211 21.4724 27.449 19.3659C27.4768 17.2593 25.7965 15.534 23.69 15.5062ZM22.1089 17.1463L22.7871 18.3013L22.4947 18.5832C22.4335 18.6433 22.42 18.737 22.4619 18.8119C22.8923 19.5806 23.4064 20.181 24.1331 20.5128C24.2043 20.5456 24.2884 20.5313 24.3449 20.4769L24.6554 20.1744L25.7652 20.8886C25.6376 21.1658 25.4739 21.3297 25.2878 21.424C25.0723 21.5332 24.8106 21.551 24.5131 21.4852C23.9181 21.3536 23.2036 20.8751 22.6242 20.2666C22.0448 19.6581 21.6 18.9216 21.492 18.3258C21.438 18.0279 21.467 17.7724 21.5794 17.5709C21.6761 17.3975 21.8386 17.2501 22.1089 17.1463Z" fill="#00BA76"/>
</g>
<defs>
<clipPath id="clip0_5729_45981">
<rect width="28" height="28" fill="white"/>
</clipPath>
</defs>
</svg>
