<svg width="21" height="24" viewBox="0 0 21 24" fill="none" xmlns="http://www.w3.org/2000/svg">
<g clip-path="url(#clip0_5729_45958)">
<path fill-rule="evenodd" clip-rule="evenodd" d="M12.4194 11.6255C12.5732 12.01 12.727 12.3938 12.8808 12.7767C12.9119 12.854 12.943 12.9313 12.973 13.0087C13.7035 11.1996 14.4298 9.38769 15.1518 7.5729C15.3571 7.05498 15.1126 6.54442 14.6097 6.36646C14.1484 6.20323 13.732 6.41678 13.5232 6.94206C13.0257 8.19147 12.5309 9.44211 12.0388 10.694C12.1672 11.0016 12.294 11.3121 12.4194 11.6255Z" fill="#091A42"/>
<path fill-rule="evenodd" clip-rule="evenodd" d="M19.7724 15.0963C19.5496 14.9441 19.2821 14.8839 19.0204 14.927C18.4241 14.981 17.9754 15.3381 17.5971 15.7861C17.2188 16.234 16.7539 16.5961 16.3756 17.0478C16.2972 17.1423 16.1841 17.2147 16.0584 17.1202C15.9327 17.0257 15.9961 16.9226 16.033 16.8133C16.3329 15.91 16.7147 15.0423 17.0711 14.1636C17.724 12.5374 18.3918 10.9198 19.0412 9.2936C19.1222 9.09339 19.1287 8.86789 19.0593 8.66279C18.9899 8.45769 18.8498 8.28833 18.6674 8.18902C18.2222 7.93619 17.7113 8.16202 17.484 8.72535C16.7705 10.5017 16.06 12.2792 15.3525 14.058C15.2845 14.2286 15.2072 14.3268 15.0388 14.2483C14.8704 14.1697 14.8658 14.0543 14.9408 13.8801C15.251 13.1437 15.5451 12.3975 15.8427 11.6549C16.3698 10.3429 16.8993 9.03218 17.4195 7.71651C17.6674 7.08935 17.3606 6.50147 16.7562 6.41187C16.3583 6.35174 16.0284 6.58493 15.8335 7.07585C15.0169 9.10828 14.2018 11.1411 13.3883 13.1744C13.3352 13.3069 13.2787 13.4505 13.168 13.4812C13.4136 14.0948 13.6628 14.7085 13.9015 15.332C14.3006 16.3462 14.5346 17.4252 14.5936 18.523C14.6327 19.1643 14.5453 19.8073 14.3369 20.4106C14.1285 21.0138 13.8038 21.564 13.3836 22.0257C12.8599 22.6035 12.2193 23.0467 11.5105 23.3218C12.1578 23.3446 12.8006 23.1997 13.3836 22.8996C14.2471 22.4674 15.0228 21.86 15.6674 21.1114C17.0746 19.4349 18.4448 17.724 19.9074 16.0978C20.213 15.7358 20.1496 15.3762 19.7724 15.0963Z" fill="#091A42"/>
<path fill-rule="evenodd" clip-rule="evenodd" d="M11.8035 10.0865C12.0342 9.51948 12.2583 8.95164 12.476 8.38299C12.5202 8.2788 12.5445 8.16628 12.5473 8.05199C12.5501 7.93771 12.5315 7.82396 12.4925 7.71743C12.4535 7.6109 12.395 7.51372 12.3202 7.43159C12.2455 7.34946 12.1561 7.28404 12.0573 7.23914C11.5774 7.00349 11.1149 7.19495 10.8923 7.74479C10.8923 7.75706 10.8819 7.76811 10.8773 7.78039C11.1887 8.54746 11.499 9.32434 11.8035 10.0865Z" fill="#091A42"/>
<path fill-rule="evenodd" clip-rule="evenodd" d="M11.3145 11.7483C10.7794 10.4117 10.2488 9.07518 9.70783 7.74109C9.48407 7.19126 9.02155 7.0047 8.54173 7.23544C8.44239 7.27963 8.35246 7.34469 8.27731 7.42673C8.20216 7.50876 8.14333 7.60609 8.10435 7.71288C8.06537 7.81967 8.04703 7.93374 8.05044 8.04825C8.05385 8.16275 8.07893 8.27535 8.12419 8.3793C8.60247 9.61643 9.09652 10.847 9.60633 12.071C9.68937 12.2711 9.7159 12.4184 9.53828 12.5166C9.32143 12.6393 9.24762 12.4356 9.18303 12.2711C8.47713 10.4915 7.77701 8.7119 7.06997 6.93107C6.8612 6.40578 6.44251 6.19469 5.98345 6.35547C5.48056 6.53343 5.23603 7.04398 5.44134 7.56191C6.16031 9.37833 6.88657 11.1903 7.62015 12.9977C7.6882 13.1646 7.80931 13.345 7.59131 13.4456C7.37331 13.5463 7.28912 13.3438 7.21645 13.1609C6.40291 11.1277 5.58744 9.09481 4.77006 7.06238C4.57282 6.57146 4.24294 6.33828 3.84732 6.39842C3.24178 6.48801 2.93612 7.0759 3.18411 7.70305C3.7043 9.01873 4.23372 10.3295 4.76083 11.6415C5.05841 12.3779 5.35253 13.1302 5.6628 13.8666C5.73777 14.0433 5.72278 14.1636 5.56476 14.2348C5.40674 14.306 5.31793 14.2152 5.25103 14.0446C4.54668 12.265 3.83579 10.4874 3.11836 8.7119C2.88768 8.14856 2.38133 7.92274 1.93611 8.17556C1.75395 8.27509 1.61414 8.44454 1.54497 8.64962C1.4758 8.8547 1.48244 9.08008 1.56356 9.28014C2.21178 10.9063 2.87961 12.5239 3.53244 14.1501C3.88538 15.0289 4.26832 15.8966 4.57051 16.8011C4.60627 16.9091 4.65933 17.0196 4.54399 17.1067C4.42864 17.1939 4.30523 17.1288 4.2268 17.0343C3.84848 16.5826 3.38942 16.2206 3.00533 15.7726C2.62124 15.3247 2.17833 14.9724 1.58201 14.9135C1.31995 14.8706 1.05217 14.9308 0.828831 15.0829C0.452817 15.3627 0.389381 15.7223 0.704264 16.0721C2.16564 17.6983 3.53705 19.4091 4.94422 21.0856C5.58902 21.834 6.36474 22.4414 7.22799 22.8738C9.83932 24.2423 13.6421 22.1681 13.4564 18.5144C13.401 17.4544 13.176 16.4121 12.7909 15.4327C12.3111 14.2103 11.807 12.9829 11.3145 11.7483Z" fill="#4E7EFF"/>
<path d="M10.4955 -0.770264C10.2348 -0.770264 10.0341 -0.587392 10.0341 -0.354203V2.43547C10.0341 2.66866 10.2383 2.85153 10.4955 2.85153C10.7527 2.85153 10.9568 2.66866 10.9568 2.43547V-0.354203C10.9615 -0.587392 10.7573 -0.770264 10.4955 -0.770264Z" fill="#EFC800"/>
<path d="M7.7273 0.22628C7.69264 0.166104 7.64368 0.116713 7.58536 0.0830983C7.52704 0.0494836 7.46142 0.0328422 7.39511 0.0348268C7.29899 0.0363838 7.20492 0.0645985 7.12218 0.116688C7.03945 0.168777 6.97092 0.242927 6.92337 0.331827C6.89194 0.391207 6.87543 0.458201 6.87543 0.526351C6.87543 0.5945 6.89194 0.661509 6.92337 0.72089L8.24057 3.07978C8.27524 3.14023 8.32436 3.1898 8.38292 3.22344C8.44149 3.25708 8.50739 3.27358 8.5739 3.27125C8.66979 3.26922 8.76357 3.24092 8.8462 3.18912C8.92883 3.13731 8.99752 3.06373 9.04565 2.97546C9.07687 2.91601 9.09325 2.84904 9.09325 2.78094C9.09325 2.71283 9.07687 2.64585 9.04565 2.5864L7.7273 0.22628Z" fill="#EFC800"/>
<path d="M7.32939 3.7708L5.33514 2.31644C5.28161 2.28315 5.22066 2.26577 5.15866 2.26612C5.07618 2.27056 4.99621 2.2978 4.92663 2.34515C4.85705 2.3925 4.80027 2.45831 4.76189 2.53612C4.63155 2.78158 4.67884 3.05405 4.86916 3.17065L6.85765 4.62992C6.9117 4.66293 6.97295 4.68028 7.03527 4.68024C7.11756 4.6756 7.19729 4.64827 7.26665 4.60093C7.33601 4.55359 7.39261 4.48787 7.4309 4.41023C7.56008 4.1709 7.51394 3.89353 7.32939 3.7708Z" fill="#EFC800"/>
<path d="M13.8889 0.113357C13.808 0.0629008 13.7162 0.0358355 13.6224 0.0348219C13.556 0.0328696 13.4902 0.0495218 13.4317 0.0831233C13.3732 0.116725 13.324 0.166088 13.2891 0.226275L11.9719 2.58639C11.8623 2.7889 11.9523 3.05523 12.1784 3.19269C12.2592 3.24315 12.3511 3.27023 12.4448 3.27124C12.5113 3.2737 12.5773 3.25725 12.6359 3.2236C12.6944 3.18995 12.7436 3.14031 12.7781 3.07977L14.0953 0.720885C14.2061 0.518378 14.1149 0.252043 13.8889 0.113357Z" fill="#EFC800"/>
<path d="M16.2603 2.54344C16.2221 2.46572 16.1655 2.39994 16.0961 2.35259C16.0267 2.30524 15.947 2.27797 15.8647 2.27344C15.8023 2.27322 15.741 2.29058 15.687 2.32375L13.6928 3.77075C13.5025 3.89349 13.4552 4.16595 13.5855 4.40528C13.624 4.48277 13.6806 4.54834 13.7499 4.59565C13.8192 4.64297 13.8989 4.6704 13.9811 4.67528C14.0435 4.67586 14.1049 4.65846 14.1587 4.62496L16.153 3.1706C16.2081 3.13577 16.2538 3.0864 16.2857 3.02728C16.3177 2.96816 16.3347 2.90127 16.3352 2.83309C16.3354 2.7311 16.3094 2.63099 16.2603 2.54344Z" fill="#EFC800"/>
</g>
<defs>
<clipPath id="clip0_5729_45958">
<rect width="19.6" height="24.0811" fill="white" transform="translate(0.5 -0.770264)"/>
</clipPath>
</defs>
</svg>
