<svg width="28" height="28" viewBox="0 0 28 28" fill="none" xmlns="http://www.w3.org/2000/svg">
<g clip-path="url(#clip0_5729_45970)">
<path d="M21.3895 9.69629L10.3295 12.3728L13.1356 22.9165L24.1956 20.24L21.3895 9.69629Z" fill="#EFC800"/>
<path d="M8.67919 11.7236C8.53856 11.1997 8.60068 10.645 8.85415 10.1611L8.86936 10.1336L11.719 5.45337L7.22167 8.5C6.90812 8.74373 6.69653 9.08651 6.62526 9.46622L4.70523 19.729C4.66671 19.9371 4.6716 20.1503 4.71958 20.3566C4.76757 20.5629 4.85773 20.7581 4.9849 20.9311C5.11208 21.1041 5.27376 21.2515 5.46072 21.3649C5.64769 21.4783 5.85626 21.5554 6.07451 21.5918L11.5866 22.5203L8.67919 11.7236Z" fill="#091A42"/>
<path d="M15.4296 15.2694C15.4352 15.133 15.4111 14.9969 15.3587 14.8698C15.3063 14.7426 15.2268 14.6273 15.1253 14.531C15.0289 14.4294 14.9116 14.3477 14.7808 14.2911C14.6499 14.2344 14.5082 14.204 14.3646 14.2017H14.3204C14.0456 14.2023 13.7819 14.3051 13.5853 14.4883C13.3887 14.6714 13.2747 14.9204 13.2676 15.1824C13.2623 15.3188 13.2866 15.4548 13.339 15.5819C13.3913 15.7089 13.4706 15.8243 13.5719 15.9208C13.6535 16.0057 13.749 16.0773 13.8549 16.1326C14.0012 16.207 14.1638 16.2477 14.3296 16.2516H14.3752C14.6501 16.2517 14.9141 16.149 15.1106 15.9657C15.3071 15.7824 15.4205 15.533 15.4265 15.2709L15.4296 15.2694Z" fill="#4E7EFF"/>
<path d="M20.1581 17.1728H20.1201C19.9862 17.1708 19.8532 17.194 19.7286 17.2411C19.6041 17.2881 19.4905 17.3581 19.3944 17.447C19.2902 17.5363 19.2069 17.6455 19.1498 17.7675C19.0927 17.8894 19.063 18.0214 19.0627 18.155C19.0574 18.2914 19.0818 18.4274 19.1341 18.5545C19.1865 18.6816 19.2657 18.797 19.367 18.8935C19.4485 18.9754 19.5423 19.0453 19.6454 19.1009C19.7934 19.1754 19.9574 19.2161 20.1247 19.2199H20.1749C20.4488 19.2192 20.7115 19.1167 20.9073 18.934C21.1031 18.7514 21.2164 18.5031 21.2231 18.2421C21.2269 17.9665 21.1177 17.7003 20.9188 17.5003C20.7199 17.3004 20.447 17.1823 20.1581 17.1714V17.1728Z" fill="#4E7EFF"/>
<path d="M24.5172 19.6843L21.5428 8.64529C21.4297 8.22679 21.1589 7.86269 20.7821 7.62249L15.2913 4.57585C15.0726 4.43571 14.8251 4.3416 14.5653 4.2998C14.3055 4.25799 14.0393 4.26946 13.7845 4.33343C13.5298 4.39739 13.2922 4.51239 13.0876 4.67077C12.8831 4.82915 12.7163 5.02725 12.5984 5.25191L9.47334 10.3862C9.27601 10.7637 9.22794 11.1963 9.33793 11.6049L12.3123 22.6482C12.4352 23.1011 12.7414 23.4889 13.1639 23.7267C13.5863 23.9644 14.0905 24.0326 14.5656 23.9162L23.1814 21.8271C23.4171 21.7707 23.6387 21.6704 23.8336 21.532C24.0285 21.3936 24.1927 21.2199 24.3168 21.0207C24.441 20.8215 24.5226 20.6009 24.557 20.3716C24.5914 20.1422 24.5779 19.9086 24.5172 19.6843ZM14.2521 5.70891C14.4679 5.65696 14.6951 5.66716 14.9048 5.73825C15.1145 5.80933 15.2975 5.9381 15.4305 6.10828C15.5635 6.27847 15.6406 6.48242 15.6521 6.69439C15.6636 6.90635 15.6089 7.11681 15.495 7.29916C15.3811 7.48152 15.2131 7.62759 15.0122 7.71892C14.8113 7.81025 14.5865 7.84274 14.3662 7.81229C14.1459 7.78184 13.9401 7.68981 13.7746 7.54783C13.6092 7.40586 13.4916 7.2203 13.4367 7.01461C13.365 6.73844 13.4104 6.44646 13.5631 6.20202C13.7158 5.95758 13.9634 5.7804 14.2521 5.70891ZM12.8205 16.5898C12.6266 16.3998 12.4752 16.1743 12.3753 15.9269C12.2754 15.6796 12.2292 15.4155 12.2393 15.1506C12.2551 14.633 12.4815 14.1416 12.8705 13.7804C13.2595 13.4192 13.7807 13.2165 14.3236 13.2152H14.4058C14.7322 13.224 15.052 13.3049 15.34 13.4517C15.5425 13.5576 15.7259 13.6937 15.8831 13.855C16.0779 14.0452 16.23 14.2714 16.3299 14.5196C16.4299 14.7678 16.4756 15.0329 16.4643 15.2986C16.452 15.8152 16.2281 16.3067 15.8405 16.6678C15.4529 17.029 14.9325 17.2311 14.3906 17.231H14.3008C14.0218 17.2248 13.7469 17.165 13.4926 17.0554C13.2383 16.9457 13.0097 16.7883 12.8205 16.5927V16.5898ZM15.3613 20.9769C15.3321 21.0275 15.299 21.076 15.2624 21.122C15.2147 21.1792 15.1541 21.2254 15.0851 21.2571C15.016 21.2887 14.9404 21.305 14.8638 21.3048C14.8405 21.3063 14.8171 21.3063 14.7938 21.3048C14.6859 21.2906 14.5857 21.2438 14.5077 21.1713C14.4581 21.1252 14.4187 21.0699 14.3921 21.0088C14.3405 20.896 14.3373 20.7685 14.383 20.6534C14.4039 20.6035 14.4283 20.555 14.456 20.5083L19.1085 12.4507L19.1192 12.4333C19.1492 12.3828 19.1828 12.3344 19.2196 12.2882C19.2771 12.2208 19.3523 12.1691 19.4376 12.1385C19.5228 12.108 19.6151 12.0995 19.7049 12.1141C19.8098 12.1314 19.9068 12.1785 19.9833 12.249C20.0343 12.295 20.0743 12.3509 20.1005 12.413C20.1493 12.5249 20.152 12.6503 20.1081 12.764C20.0872 12.8139 20.0628 12.8624 20.0351 12.9091L15.3826 20.9667L15.3613 20.9769ZM21.5991 19.6712C21.216 20.02 20.7047 20.2117 20.175 20.2051H20.0914C19.531 20.1876 19.0004 19.9602 18.6147 19.5721C18.229 19.1839 18.0194 18.6665 18.0314 18.1319C18.0334 17.8684 18.0925 17.6081 18.2051 17.3674C18.3177 17.1267 18.4813 16.9109 18.6856 16.7334C19.0697 16.3817 19.5832 16.1879 20.1157 16.1937H20.1979C20.5265 16.2017 20.8485 16.2832 21.1381 16.4316C21.3402 16.5374 21.5236 16.6731 21.6812 16.8335C21.8721 17.0245 22.0215 17.2497 22.1207 17.496C22.2199 17.7423 22.2671 18.0049 22.2594 18.2686C22.2518 18.5324 22.1895 18.7921 22.0762 19.0328C21.9629 19.2735 21.8007 19.4905 21.5991 19.6712Z" fill="#4E7EFF"/>
<path d="M19.6987 5.7307C19.6753 5.71075 19.6564 5.68657 19.643 5.65957C19.6296 5.63257 19.6219 5.60329 19.6205 5.57344C19.6191 5.54359 19.6239 5.51377 19.6347 5.48572C19.6455 5.45767 19.6621 5.43196 19.6835 5.41008L22.1421 2.85527C22.1862 2.81582 22.2443 2.79366 22.3047 2.79322C22.3652 2.79278 22.4236 2.81409 22.4683 2.85289C22.513 2.8917 22.5408 2.94515 22.546 3.00259C22.5512 3.06004 22.5336 3.11725 22.4966 3.16283L20.0364 5.7162C20.0141 5.73962 19.9868 5.75831 19.9564 5.77105C19.926 5.7838 19.8931 5.79031 19.8599 5.79019C19.8002 5.79069 19.7425 5.76941 19.6987 5.7307ZM27.3058 10.3906C27.2983 10.3614 27.2848 10.3338 27.2662 10.3095C27.2475 10.2852 27.224 10.2647 27.1971 10.2491C27.1701 10.2334 27.1401 10.223 27.1089 10.2184C27.0777 10.2139 27.0459 10.2152 27.0152 10.2223L23.4003 11.0551C23.3429 11.0676 23.2923 11.1 23.2584 11.146C23.2245 11.192 23.2096 11.2482 23.2166 11.304C23.2236 11.3598 23.252 11.4112 23.2963 11.4483C23.3405 11.4853 23.3977 11.5055 23.4566 11.5048C23.4753 11.5062 23.4941 11.5062 23.5129 11.5048L27.1293 10.6706C27.161 10.6639 27.191 10.651 27.2174 10.6329C27.2437 10.6147 27.2659 10.5916 27.2826 10.565C27.2992 10.5384 27.31 10.5088 27.3143 10.4781C27.3185 10.4473 27.3161 10.4161 27.3073 10.3863L27.3058 10.3906ZM28.4879 17.4008L24.8365 17.0236C24.8048 17.0193 24.7726 17.0212 24.7417 17.029C24.7108 17.0369 24.6818 17.0506 24.6565 17.0694C24.6313 17.0881 24.6103 17.1115 24.5947 17.1381C24.5791 17.1648 24.5693 17.1941 24.5658 17.2244C24.5623 17.2548 24.5653 17.2855 24.5745 17.3147C24.5837 17.3439 24.599 17.371 24.6194 17.3945C24.6398 17.418 24.665 17.4373 24.6934 17.4514C24.7218 17.4654 24.7529 17.4739 24.7848 17.4762L28.4362 17.8534H28.4621C28.523 17.8532 28.5815 17.8307 28.6257 17.7907C28.6698 17.7506 28.6962 17.696 28.6995 17.638C28.7028 17.58 28.6828 17.523 28.6434 17.4786C28.6041 17.4342 28.5485 17.4059 28.4879 17.3993V17.4008ZM8.59076 6.60552C8.61285 6.62617 8.63901 6.64245 8.66774 6.6534C8.69646 6.66436 8.72717 6.66978 8.75811 6.66936C8.79011 6.66963 8.82183 6.66373 8.85138 6.65201C8.88092 6.6403 8.90767 6.623 8.93003 6.60117C8.97444 6.55827 8.99934 6.50042 8.99934 6.44013C8.99934 6.37985 8.97444 6.322 8.93003 6.2791L5.73504 3.32821C5.71256 3.30725 5.68597 3.29073 5.6568 3.27957C5.62762 3.26841 5.59643 3.26284 5.56499 3.26317C5.53356 3.26351 5.50251 3.26975 5.4736 3.28153C5.44469 3.29331 5.4185 3.31041 5.39653 3.33184C5.37455 3.35328 5.35721 3.37862 5.34551 3.40644C5.33381 3.43427 5.32796 3.46402 5.32831 3.49399C5.32867 3.52397 5.33522 3.55358 5.34757 3.58114C5.35993 3.60871 5.37784 3.63368 5.40032 3.65464L8.59076 6.60552ZM4.84653 11.0652L1.2088 10.3717C1.17804 10.3658 1.14635 10.3658 1.11555 10.3715C1.08476 10.3773 1.05544 10.3888 1.02931 10.4054C1.00317 10.422 0.980723 10.4433 0.963226 10.4681C0.945729 10.493 0.933538 10.5209 0.927345 10.5502C0.921151 10.5795 0.921069 10.6097 0.927122 10.6391C0.933174 10.6685 0.945236 10.6964 0.962613 10.7213C0.97999 10.7463 1.00234 10.7677 1.0284 10.7844C1.05445 10.8011 1.08371 10.8127 1.11448 10.8186L4.75221 11.5121C4.76789 11.5136 4.78368 11.5136 4.79936 11.5121C4.85873 11.5122 4.91603 11.4913 4.9601 11.4534C5.00417 11.4154 5.03186 11.3632 5.03775 11.3069C5.04364 11.2505 5.02731 11.1941 4.99195 11.1487C4.9566 11.1032 4.90477 11.0719 4.84653 11.0609V11.0652ZM4.64417 16.8292C4.63919 16.7995 4.62811 16.771 4.61154 16.7455C4.59498 16.7199 4.57327 16.6977 4.54767 16.6802C4.52207 16.6627 4.49309 16.6501 4.46239 16.6433C4.43169 16.6365 4.39989 16.6356 4.3688 16.6406L0.918207 17.1715C0.855462 17.1764 0.797301 17.2047 0.7565 17.2504C0.715699 17.2962 0.69561 17.3554 0.700654 17.4153C0.705698 17.4751 0.735458 17.5306 0.783392 17.5695C0.831327 17.6084 0.893497 17.6275 0.956243 17.6227C0.968871 17.6243 0.98165 17.6243 0.994278 17.6227L4.44488 17.0932C4.47633 17.0886 4.5065 17.0781 4.53367 17.0623C4.56084 17.0465 4.58445 17.0258 4.60313 17.0012C4.62181 16.9766 4.6352 16.9488 4.6425 16.9192C4.64981 16.8897 4.65089 16.8591 4.6457 16.8292H4.64417ZM4.69591 21.9199L1.99994 23.6768C1.97412 23.6939 1.9521 23.7158 1.93514 23.741C1.91818 23.7662 1.90659 23.7944 1.90108 23.8239C1.89557 23.8535 1.89623 23.8837 1.90301 23.913C1.90979 23.9423 1.92256 23.97 1.9406 23.9946C1.96326 24.0243 1.99302 24.0485 2.02741 24.0652C2.06179 24.0818 2.09983 24.0904 2.13839 24.0903C2.18732 24.0905 2.23512 24.0763 2.27532 24.0497L4.97128 22.2928C4.99722 22.2759 5.01937 22.2543 5.03643 22.2292C5.0535 22.2041 5.06512 22.176 5.07064 22.1465C5.07617 22.1171 5.07547 22.0869 5.0686 22.0577C5.06173 22.0285 5.04882 22.0009 5.03062 21.9765C4.99387 21.9274 4.9384 21.894 4.87612 21.8834C4.81384 21.8729 4.74969 21.886 4.69742 21.9199H4.69591ZM9.50513 23.14C9.4438 23.124 9.3783 23.1318 9.32298 23.1617C9.26766 23.1916 9.22702 23.2412 9.20997 23.2996L8.1176 27.1181C8.1091 27.147 8.10673 27.1773 8.11065 27.2072C8.11457 27.237 8.1247 27.2658 8.14042 27.2919C8.15614 27.3179 8.17715 27.3408 8.20223 27.359C8.2273 27.3772 8.25595 27.3905 8.28647 27.3981C8.30716 27.4008 8.32814 27.4008 8.34884 27.3981C8.4013 27.3986 8.45245 27.3824 8.49429 27.3523C8.53613 27.3221 8.56631 27.2795 8.5801 27.2312L9.67401 23.4128C9.68853 23.3555 9.6792 23.2951 9.64799 23.2442C9.61678 23.1934 9.56613 23.156 9.50666 23.14H9.50513ZM14.5806 24.4124C14.5174 24.4124 14.4567 24.4361 14.4117 24.4785C14.3667 24.5209 14.341 24.5784 14.3402 24.6387V28.4383C14.34 28.468 14.346 28.4975 14.3577 28.525C14.3694 28.5525 14.3867 28.5776 14.4086 28.5988C14.4305 28.6199 14.4566 28.6367 14.4853 28.6483C14.514 28.6598 14.5449 28.6659 14.576 28.6661C14.6075 28.6663 14.6388 28.6605 14.6679 28.6491C14.6971 28.6378 14.7236 28.621 14.7459 28.5999C14.7683 28.5787 14.786 28.5535 14.7981 28.5258C14.8102 28.4981 14.8164 28.4683 14.8164 28.4383L14.8255 24.6402C14.8256 24.6094 14.8191 24.5789 14.8064 24.5506C14.7937 24.5223 14.7752 24.4967 14.7519 24.4754C14.7285 24.4541 14.7009 24.4375 14.6707 24.4267C14.6405 24.4159 14.6083 24.411 14.576 24.4124H14.5806ZM20.0912 23.2721C20.0791 23.2444 20.0613 23.2193 20.039 23.1982C20.0166 23.1771 19.9902 23.1604 19.961 23.1491C19.9319 23.1377 19.9007 23.132 19.8693 23.1322C19.8378 23.1324 19.8067 23.1385 19.7778 23.1502C19.7206 23.1728 19.675 23.2157 19.6505 23.2699C19.6261 23.3241 19.6248 23.3853 19.6469 23.4404L21.2535 27.1166C21.2707 27.1592 21.301 27.1958 21.3404 27.2217C21.3797 27.2476 21.4264 27.2615 21.4742 27.2617C21.5061 27.2623 21.5377 27.2563 21.567 27.2443C21.6255 27.2212 21.6719 27.1769 21.6962 27.1211C21.7204 27.0653 21.7205 27.0027 21.6963 26.9469L20.0912 23.2721ZM27.7196 23.6203L24.9369 21.917C24.9108 21.9005 24.8814 21.889 24.8506 21.8832C24.8198 21.8774 24.788 21.8775 24.7572 21.8835C24.7264 21.8894 24.6971 21.901 24.6711 21.9178C24.645 21.9345 24.6226 21.9559 24.6052 21.9809C24.5879 22.0058 24.5758 22.0338 24.5698 22.0632C24.5637 22.0926 24.5638 22.1229 24.57 22.1522C24.5763 22.1816 24.5885 22.2095 24.606 22.2344C24.6235 22.2592 24.646 22.2806 24.6722 22.2971L27.4564 24.0018C27.4954 24.0258 27.5408 24.0389 27.5873 24.0395C27.6391 24.0402 27.6898 24.0247 27.7316 23.9955C27.7734 23.9662 27.8041 23.9248 27.819 23.8774C27.834 23.8301 27.8324 23.7794 27.8144 23.733C27.7965 23.6866 27.7632 23.647 27.7196 23.6203Z" fill="#EFC800"/>
<path d="M17.6737 2.70577L16.8704 4.15655C16.8496 4.19323 16.8189 4.22389 16.7814 4.24534C16.744 4.26678 16.7011 4.27821 16.6574 4.27842C16.6183 4.2782 16.5797 4.26925 16.5448 4.2523C16.489 4.22396 16.4472 4.17567 16.4287 4.11801C16.4102 4.06036 16.4164 3.99804 16.4459 3.94473L17.2492 2.49395C17.2811 2.44424 17.3316 2.40797 17.3906 2.39251C17.4495 2.37705 17.5123 2.38357 17.5664 2.41073C17.6205 2.43789 17.6616 2.48365 17.6816 2.53872C17.7015 2.5938 17.6987 2.65405 17.6737 2.70722V2.70577ZM22.3902 8.18246C22.4101 8.22092 22.4409 8.25336 22.479 8.27615C22.5171 8.29895 22.5612 8.31121 22.6062 8.31158C22.6425 8.31113 22.6783 8.30321 22.7112 8.28836L24.4045 7.5122C24.4328 7.49915 24.4581 7.48091 24.479 7.45854C24.4998 7.43617 24.5159 7.41009 24.5262 7.3818C24.5365 7.35351 24.5409 7.32356 24.5391 7.29366C24.5372 7.26376 24.5293 7.2345 24.5156 7.20754C24.5019 7.18058 24.4828 7.15645 24.4593 7.13654C24.4358 7.11663 24.4085 7.10132 24.3788 7.09149C24.3491 7.08165 24.3178 7.07748 24.2864 7.07922C24.255 7.08097 24.2243 7.08858 24.1961 7.10163L22.5027 7.8778C22.4461 7.90461 22.4029 7.95173 22.3827 8.00884C22.3624 8.06595 22.3667 8.12838 22.3947 8.18246H22.3902ZM26.4934 14.1582C26.4851 14.098 26.4521 14.0435 26.4016 14.0065C26.3511 13.9695 26.2873 13.9531 26.2241 13.9609L24.4136 14.1843C24.3526 14.1909 24.2966 14.2195 24.2572 14.2644C24.2178 14.3092 24.198 14.3668 24.2019 14.4252C24.2058 14.4836 24.2331 14.5383 24.2782 14.578C24.3233 14.6177 24.3827 14.6393 24.4441 14.6384H24.476L26.2865 14.4165C26.3179 14.4125 26.3482 14.4027 26.3756 14.3876C26.403 14.3725 26.427 14.3523 26.4463 14.3283C26.4655 14.3043 26.4795 14.277 26.4876 14.2478C26.4957 14.2186 26.4977 14.1881 26.4934 14.1582ZM11.3446 4.29292L10.5048 2.50847C10.4782 2.45333 10.43 2.41038 10.3705 2.38893C10.3109 2.36747 10.245 2.36924 10.1868 2.39385C10.1581 2.40594 10.1323 2.42333 10.1107 2.445C10.0891 2.46668 10.0723 2.49221 10.0611 2.52013C10.0499 2.54805 10.0446 2.57781 10.0456 2.60768C10.0465 2.63755 10.0537 2.66694 10.0666 2.69416L10.908 4.48007C10.9269 4.52023 10.9577 4.55425 10.9966 4.57796C11.0355 4.60167 11.0809 4.61404 11.127 4.61355C11.1605 4.61359 11.1936 4.60717 11.2244 4.59469C11.2531 4.58245 11.279 4.56492 11.3006 4.54312C11.3222 4.52131 11.3391 4.49565 11.3502 4.46761C11.3614 4.43957 11.3666 4.4097 11.3657 4.37973C11.3647 4.34975 11.3576 4.32025 11.3446 4.29292ZM4.75683 8.09251L6.21892 8.57852C6.27944 8.59776 6.34551 8.59329 6.40258 8.56608C6.45964 8.53887 6.50303 8.49116 6.5232 8.43344C6.54338 8.37573 6.5387 8.31273 6.51016 8.25832C6.48163 8.2039 6.43158 8.16252 6.37106 8.14329L4.90897 7.65728C4.879 7.64773 4.84737 7.64391 4.81585 7.64603C4.78433 7.64816 4.75356 7.65619 4.72529 7.66967C4.69703 7.68314 4.67183 7.70179 4.65114 7.72456C4.63044 7.74733 4.61466 7.77377 4.60469 7.80236C4.59472 7.83074 4.59076 7.86072 4.59302 7.89057C4.59529 7.92042 4.60374 7.94955 4.61789 7.97627C4.63204 8.00298 4.65162 8.02675 4.67547 8.04621C4.69932 8.06567 4.72696 8.08041 4.75683 8.08961V8.09251ZM4.39778 14.4629H4.40844C4.47179 14.4642 4.5331 14.4415 4.57889 14.3998C4.62468 14.358 4.65121 14.3006 4.65262 14.2402C4.65403 14.1798 4.63023 14.1213 4.58643 14.0776C4.54263 14.034 4.48243 14.0087 4.41908 14.0073L2.93264 13.9464C2.90128 13.9451 2.86995 13.9496 2.84043 13.9599C2.81092 13.9701 2.7838 13.9857 2.76063 14.0059C2.73746 14.0261 2.71869 14.0505 2.7054 14.0776C2.6921 14.1048 2.68453 14.1341 2.68313 14.164C2.68173 14.1939 2.68653 14.2238 2.69724 14.252C2.70795 14.2801 2.72438 14.306 2.74557 14.3281C2.76676 14.3501 2.7923 14.368 2.82075 14.3807C2.84919 14.3934 2.87997 14.4006 2.91134 14.4019L4.39778 14.4629ZM3.73291 19.8438L2.52644 20.1775C2.49618 20.1855 2.4679 20.1992 2.44327 20.2177C2.41864 20.2363 2.39813 20.2594 2.38297 20.2856C2.3678 20.3118 2.35828 20.3406 2.35496 20.3704C2.35164 20.4002 2.35459 20.4303 2.36363 20.4589C2.37814 20.5063 2.40838 20.5479 2.44981 20.5775C2.49124 20.607 2.54162 20.623 2.59337 20.6229C2.61599 20.6228 2.63851 20.6199 2.66032 20.6142L3.8668 20.2805C3.89943 20.2744 3.93038 20.262 3.95765 20.2439C3.98493 20.2257 4.00794 20.2024 4.02522 20.1753C4.0425 20.1482 4.05367 20.118 4.058 20.0866C4.06233 20.0552 4.05972 20.0232 4.05037 19.9928C4.04101 19.9624 4.0251 19.9342 4.00366 19.91C3.98221 19.8857 3.9557 19.8661 3.92582 19.8522C3.89594 19.8383 3.86336 19.8305 3.83014 19.8293C3.79692 19.8281 3.7638 19.8336 3.73291 19.8453V19.8438ZM7.2961 22.4436C7.24115 22.4135 7.17596 22.4053 7.1147 22.4208C7.05344 22.4363 7.00107 22.4742 6.96899 22.5263L6.09112 23.9771C6.07528 24.003 6.06497 24.0316 6.06076 24.0613C6.05654 24.091 6.05851 24.1212 6.06657 24.1502C6.07463 24.1792 6.08861 24.2064 6.10771 24.2302C6.1268 24.254 6.15064 24.274 6.17785 24.289C6.2145 24.3088 6.25589 24.3193 6.29803 24.3195C6.34027 24.3195 6.38179 24.3089 6.41838 24.2888C6.45497 24.2687 6.48535 24.2397 6.50647 24.2049L7.38433 22.7613C7.40158 22.735 7.413 22.7056 7.41789 22.6749C7.42278 22.6442 7.42103 22.6129 7.41277 22.5829C7.4045 22.5528 7.38989 22.5247 7.36983 22.5003C7.34976 22.4758 7.32468 22.4556 7.2961 22.4407V22.4436ZM11.8604 23.861C11.8296 23.8551 11.7979 23.855 11.7671 23.8608C11.7363 23.8665 11.707 23.878 11.6809 23.8946C11.6547 23.9112 11.6322 23.9325 11.6148 23.9574C11.5973 23.9822 11.5851 24.0101 11.5789 24.0395L11.2746 25.4699C11.2682 25.4992 11.268 25.5294 11.274 25.5587C11.2799 25.5881 11.292 25.616 11.3094 25.6409C11.3268 25.6657 11.3493 25.687 11.3754 25.7035C11.4016 25.72 11.4309 25.7313 11.4618 25.7369H11.5089C11.5643 25.737 11.618 25.7188 11.661 25.6855C11.7039 25.6522 11.7335 25.6058 11.7447 25.5541L12.049 24.1236C12.0547 24.0941 12.0542 24.0638 12.0476 24.0344C12.041 24.005 12.0283 23.9772 12.0103 23.9525C11.9924 23.9279 11.9695 23.9068 11.943 23.8906C11.9164 23.8744 11.8868 23.8634 11.8558 23.8581L11.8604 23.861ZM17.7026 24.0438C17.6897 23.9856 17.6536 23.9345 17.6019 23.9012C17.5502 23.8679 17.487 23.8551 17.4256 23.8655C17.3642 23.8758 17.3094 23.9086 17.2728 23.9567C17.2362 24.0049 17.2206 24.0647 17.2295 24.1236L17.5231 25.6905C17.5331 25.7432 17.5621 25.791 17.6052 25.8255C17.6483 25.8599 17.7027 25.8789 17.7589 25.879H17.8015C17.8325 25.874 17.8622 25.8631 17.8887 25.8471C17.9153 25.831 17.9383 25.8101 17.9564 25.7856C17.9745 25.7611 17.9873 25.7334 17.9942 25.7041C18.001 25.6748 18.0017 25.6445 17.9963 25.615L17.7026 24.0438ZM22.5134 22.9572C22.4741 22.9098 22.4169 22.8789 22.354 22.8713C22.2911 22.8637 22.2276 22.88 22.1771 22.9166C22.1269 22.9533 22.0941 23.0076 22.0858 23.0674C22.0775 23.1273 22.0945 23.1878 22.133 23.2357L22.9378 24.2237C22.9604 24.2513 22.9892 24.2737 23.0222 24.289C23.0551 24.3043 23.0913 24.3123 23.128 24.3122C23.1725 24.3119 23.2161 24.2998 23.2538 24.2772C23.2915 24.2547 23.3219 24.2226 23.3416 24.1845C23.3614 24.1465 23.3696 24.1039 23.3655 24.0617C23.3613 24.0194 23.345 23.9791 23.3182 23.9452L22.5134 22.9572ZM26.8388 20.4285C26.8524 20.4299 26.8662 20.4299 26.8799 20.4285C26.9401 20.4289 26.9982 20.4076 27.0426 20.3688C27.087 20.3301 27.1145 20.2768 27.1195 20.2196C27.1245 20.1624 27.1067 20.1055 27.0696 20.0603C27.0325 20.0151 26.9788 19.985 26.9194 19.9758L25.4908 19.7495C25.459 19.7424 25.426 19.7415 25.3939 19.747C25.3617 19.7525 25.3311 19.7643 25.3039 19.7815C25.2766 19.7987 25.2534 19.8211 25.2357 19.8472C25.2179 19.8734 25.2059 19.9027 25.2005 19.9334C25.1951 19.9641 25.1963 19.9956 25.2042 20.0258C25.212 20.0561 25.2262 20.0845 25.246 20.1092C25.2658 20.134 25.2907 20.1547 25.3192 20.1699C25.3477 20.1851 25.3792 20.1946 25.4117 20.1978L26.8388 20.4285Z" fill="#141414"/>
<path d="M15.1756 3.59514C14.9867 2.84246 14.6685 2.12478 14.2338 1.4712C13.8595 0.944571 13.464 0.666024 13.0912 0.666024C13.0348 0.665759 12.9786 0.672093 12.9239 0.684884C12.6318 0.757423 12.2636 1.03742 12.1723 1.97172C12.1213 2.74362 12.2051 3.51824 12.4203 4.26395C12.4872 4.51494 12.5724 4.76157 12.6546 4.9995C12.665 5.02764 12.6816 5.05335 12.7033 5.07494C12.7199 5.05333 12.7382 5.03295 12.758 5.014C12.786 4.97421 12.8176 4.93683 12.8524 4.9023C12.9108 4.81803 12.9876 4.74677 13.0775 4.69339C13.0146 4.51446 12.9584 4.33165 12.9087 4.14499C12.7076 3.45232 12.6289 2.73256 12.6759 2.01525C12.7322 1.4654 12.9041 1.18395 13.0486 1.14478C13.0628 1.14319 13.0771 1.14319 13.0912 1.14478C13.2434 1.14478 13.5477 1.32613 13.8793 1.83535C14.2467 2.42162 14.5191 3.05747 14.6872 3.72136C14.8871 4.41422 14.9653 5.13388 14.9185 5.8511C14.8622 6.40095 14.6918 6.6824 14.5457 6.72157C14.4544 6.74333 14.3251 6.68965 14.1806 6.57649C14.1392 6.54343 14.087 6.52532 14.033 6.52532C13.979 6.52532 13.9268 6.54343 13.8854 6.57649L13.8717 6.5881C13.8543 6.60087 13.8389 6.61602 13.8261 6.63307L13.8169 6.64613C13.7819 6.68905 13.7656 6.74325 13.7716 6.79735C13.7775 6.85145 13.8053 6.90124 13.8489 6.93628C14.026 7.09804 14.2582 7.1938 14.5031 7.20613C14.5596 7.20662 14.6159 7.19979 14.6705 7.18582C14.9641 7.11473 15.3323 6.83473 15.4312 5.90043C15.4804 5.12381 15.394 4.34478 15.1756 3.59514Z" fill="#EFC800"/>
</g>
<defs>
<clipPath id="clip0_5729_45970">
<rect width="28" height="28" fill="white"/>
</clipPath>
</defs>
</svg>
