<svg xmlns="http://www.w3.org/2000/svg" width="40" height="32" viewBox="0 0 40 32">
  <metadata><?xpacket begin="﻿" id="W5M0MpCehiHzreSzNTczkc9d"?>
<x:xmpmeta xmlns:x="adobe:ns:meta/" x:xmptk="Adobe XMP Core 5.6-c138 79.159824, 2016/09/14-01:09:01        ">
   <rdf:RDF xmlns:rdf="http://www.w3.org/1999/02/22-rdf-syntax-ns#">
      <rdf:Description rdf:about=""/>
   </rdf:RDF>
</x:xmpmeta>
                                                                                                    
                                                                                                    
                                                                                                    
                                                                                                    
                                                                                                    
                                                                                                    
                                                                                                    
                                                                                                    
                                                                                                    
                                                                                                    
                                                                                                    
                                                                                                    
                                                                                                    
                                                                                                    
                                                                                                    
                                                                                                    
                                                                                                    
                                                                                                    
                                                                                                    
                                                                                                    
                           
<?xpacket end="w"?></metadata>
<defs>
    <style>
      .cls-1 {
        fill: #aad0eb;
        fill-rule: evenodd;
      }
    </style>
  </defs>
  <path id="gl-best-materials" class="cls-1" d="M403,3800l-20,8.5,9.57,3.75-9.57,4.08,9.57,3.75-9.57,4.07,20,7.85,20-7.85-9.571-4.07,9.571-3.75-9.571-4.07L423,3808.5Zm16.808,24.1L403,3830.7l-16.809-6.6,7.985-3.39,8.824,3.46,8.824-3.46Zm0-7.82-7.965,3.13-0.011-.01,0,0.01L403,3822.88l-8.828-3.47-0.005-.01-0.012.01-7.964-3.13,7.985-3.39,8.824,3.46,8.824-3.46Zm-7.976-4.7,0,0.01L403,3815.05l-8.828-3.46-0.005-.01h-0.012l-7.964-3.12L403,3801.31l16.808,7.15-7.965,3.12h-0.011Z" transform="translate(-383 -3800)"/>
</svg>
