<?xml version="1.0" encoding="utf-8"?>
<!-- Generator: Adobe Illustrator 21.0.0, SVG Export Plug-In . SVG Version: 6.00 Build 0)  -->
<svg version="1.1" id="Forma_1_1_" xmlns="http://www.w3.org/2000/svg" xmlns:xlink="http://www.w3.org/1999/xlink" x="0px" y="0px"
	 viewBox="0 0 51 53" style="enable-background:new 0 0 51 53;" width="20px" height="20px" xml:space="preserve">
<g id="Forma_1">
	<g>
		<path style="fill-rule:evenodd;clip-rule:evenodd;" d="M50.6,51.3L35.8,35.8c3.8-3.8,6.1-9,6.1-14.8c0-11.6-9.4-21-21-21
			S0,9.4,0,21s9.4,21,21,21c5.1,0,9.7-1.8,13.4-4.8l14.9,15.5c0.2,0.2,0.5,0.3,0.7,0.3c0.2,0,0.5-0.1,0.7-0.3
			C51,52.3,51,51.7,50.6,51.3z M21,40C10.5,40,2,31.5,2,21C2,10.5,10.5,2,21,2s19,8.5,19,19C39.9,31.5,31.4,40,21,40z"/>
	</g>
</g>
</svg>
