<?xml version="1.0" encoding="utf-8"?>
<!-- Generator: Adobe Illustrator 21.0.0, SVG Export Plug-In . SVG Version: 6.00 Build 0)  -->
<svg version="1.1" id="Forma_1_1_" xmlns="http://www.w3.org/2000/svg" xmlns:xlink="http://www.w3.org/1999/xlink" x="0px" y="0px"
	 viewBox="0 0 52 48" style="enable-background:new 0 0 52 48;" width="20px" height="20px" xml:space="preserve">
<g id="Forma_1">
	<g>
		<path style="fill-rule:evenodd;clip-rule:evenodd;" d="M51.7,14.3C51,6,45.1,0,37.7,0c-4.9,0-9.4,2.6-11.9,6.9
			C23.4,2.6,19.1,0,14.3,0C6.9,0,1,6,0.3,14.3c-0.1,0.4-0.3,2.3,0.4,5.4c1.1,4.5,3.5,8.7,7.1,11.9l18,16.3l18.3-16.3
			c3.6-3.3,6.1-7.4,7.1-11.9C52,16.6,51.8,14.7,51.7,14.3z M49.3,19.3c-1,4.1-3.2,7.9-6.5,10.9L25.9,45.3L9.2,30.2
			c-3.3-3-5.6-6.8-6.5-10.9c-0.7-3-0.4-4.7-0.4-4.7l0-0.1C2.9,7.3,8,2,14.3,2c4.6,0,8.7,2.9,10.7,7.5l0.9,2.2l0.9-2.2
			C28.7,4.9,33,2,37.7,2c6.3,0,11.3,5.3,12,12.6C49.7,14.6,50,16.3,49.3,19.3z"/>
	</g>
</g>
</svg>
