<?xml version="1.0" encoding="UTF-8"?>
<svg width="13px" height="13px" viewBox="0 0 13 13" version="1.1" xmlns="http://www.w3.org/2000/svg" xmlns:xlink="http://www.w3.org/1999/xlink">
    <!-- Generator: Sketch 59.1 (86144) - https://sketch.com -->
    <title>Combined Shape</title>
    <desc>Created with Sketch.</desc>
    <defs>
        <path d="M13.2611398,13.6753534 C13.6516641,14.0658777 14.2848291,14.0658777 14.6753534,13.6753534 C15.0658777,13.2848291 15.0658777,12.6516641 14.6753534,12.2611398 L9.94068593,7.52647236 L14.7600515,2.70710678 C15.1505758,2.31658249 15.1505758,1.68341751 14.7600515,1.29289322 C14.3695272,0.902368927 13.7363622,0.902368927 13.3458379,1.29289322 L8.52647236,6.1122588 L3.70710678,1.29289322 C3.31658249,0.902368927 2.68341751,0.902368927 2.29289322,1.29289322 C1.90236893,1.68341751 1.90236893,2.31658249 2.29289322,2.70710678 L7.1122588,7.52647236 L2.37759137,12.2611398 C1.98706708,12.6516641 1.98706708,13.2848291 2.37759137,13.6753534 C2.76811566,14.0658777 3.40128064,14.0658777 3.79180493,13.6753534 L8.52647236,8.94068593 L13.2611398,13.6753534 Z" id="path-1"></path>
    </defs>
    <g id="Icons" stroke="none" stroke-width="1" fill="none" fill-rule="evenodd">
        <g id="icons/actions-close-icon" transform="translate(-2.000000, -1.000000)">
            <mask id="mask-2" fill="white">
                <use xlink:href="#path-1"></use>
            </mask>
            <use id="Combined-Shape" fill="#666666" xlink:href="#path-1"></use>
        </g>
    </g>
</svg>