<?xml version="1.0" encoding="UTF-8"?>
<svg width="16px" height="16px" viewBox="0 0 16 16" version="1.1" xmlns="http://www.w3.org/2000/svg" xmlns:xlink="http://www.w3.org/1999/xlink">
    <!-- Generator: sketchtool 53 (72520) - https://sketchapp.com -->
    <title>8E9B942E-D18C-4449-A140-22159ED9672C</title>
    <desc>Created with sketchtool.</desc>
    <g id="Page-1" stroke="none" stroke-width="1" fill="none" fill-rule="evenodd">
        <g id="connect" transform="translate(-905.000000, -546.000000)" fill="#FBB224">
            <g id="icons/help-icon" transform="translate(905.000000, 546.000000)">
                <path d="M0,8 C0,3.58222222 3.58222222,0 8,0 C12.4177778,0 16,3.58222222 16,8 C16,12.4177778 12.4177778,16 8,16 C3.58222222,16 0,12.4177778 0,8 Z M7.35111109,12.4444438 L8.54222218,12.4444438 L8.54222218,11.3244438 L7.35111109,11.3244438 L7.35111109,12.4444438 Z M6.06222222,5.15555545 C5.57333333,5.62666656 6.06222222,5.15555545 6.06222222,5.15555545 C5.57333333,5.62666656 5.33333333,6.24888879 5.33333333,7.02222212 L6.4,7.02222212 C6.41777778,6.55111101 6.49777778,6.19555545 6.64,5.94666656 C6.89777778,5.50222212 7.36,5.2799999 8.02666667,5.2799999 C8.56888889,5.2799999 8.95111111,5.41333323 9.18222222,5.67111101 C9.42222222,5.92888879 9.53777778,6.23111101 9.53777778,6.58666656 C9.53777778,6.83555545 9.45777778,7.07555545 9.29777778,7.30666656 C9.20888889,7.4399999 9.09333333,7.57333323 8.95111111,7.68888879 L8.47111111,8.11555545 C8.00888889,8.52444434 7.71555556,8.8799999 7.58222222,9.19111101 C7.44,9.51111101 7.37777778,9.9199999 7.37777778,10.4355555 L8.43555556,10.4355555 C8.43555556,9.98222212 8.49777778,9.64444435 8.61333333,9.41333323 C8.72888889,9.18222212 8.96888889,8.89777768 9.36,8.5599999 C9.88444444,8.10666657 10.2311111,7.7599999 10.4088889,7.5199999 C10.5777778,7.2799999 10.6666667,6.97777768 10.6666667,6.59555545 C10.6666667,5.96444434 10.4266667,5.44888878 9.95555556,5.04888878 C9.48444444,4.64888878 8.85333333,4.44444434 8.07111111,4.44444434 C7.21777778,4.44444434 6.55111111,4.67555545 6.06222222,5.15555545 Z" id="Combined-Shape"></path>
            </g>
        </g>
    </g>
</svg>