<?xml version="1.0" standalone="no"?>
<!-- Generator: Adobe Fireworks 10, Export SVG Extension by Aaron Beall (http://fireworks.abeall.com) . Version: 0.6.1  -->
<!DOCTYPE svg PUBLIC "-//W3C//DTD SVG 1.1//EN" "http://www.w3.org/Graphics/SVG/1.1/DTD/svg11.dtd">
<svg id="Untitled-Page%201" viewBox="0 0 100 16" style="background-color:#ffffff00" version="1.1"
	xmlns="http://www.w3.org/2000/svg" xmlns:xlink="http://www.w3.org/1999/xlink" xml:space="preserve"
	x="0px" y="0px" width="100px" height="16px"
>
	<g id="Layer%201">
		<path d="M 60.9608 10.7123 C 62.5226 10.7123 63.6928 10.2419 63.6795 9.0482 C 63.6534 6.667 57.2757 7.7469 57.2748 3.5183 C 57.274 1.0245 59.7222 0.3826 61.9958 0.3799 C 62.9244 0.3784 63.8364 0.5192 64.5654 0.7201 C 64.9181 0.8168 65.0781 0.9081 65.0781 1.2793 L 65.0773 3.2526 L 63.3438 3.2526 L 63.3438 2.6666 C 63.3438 2.1367 62.5415 2.0503 62.0731 2.0492 C 61.0597 2.0465 59.5167 2.1761 59.5023 3.479 C 59.4773 5.751 65.9069 4.783 65.9069 9.0156 C 65.9069 11.3398 64.043 12.3818 60.8333 12.3818 C 59.7689 12.3818 58.5975 12.1763 57.595 11.8234 C 57.3054 11.7213 57.1683 11.6071 57.1683 11.3199 L 57.1683 8.828 L 59.0768 8.828 L 59.0768 10.0399 C 59.0768 10.5768 60.4143 10.7123 60.9608 10.7123 Z" fill="#555845"/>
		<path d="M 75.5635 10.785 C 74.6789 11.7953 72.9796 12.2456 71.6686 12.2456 C 64.7705 12.2456 65.1956 3.6677 70.9717 3.6775 C 72.6442 3.6798 74.1557 4.5967 74.1557 6.353 C 74.1557 8.5817 71.2689 9.6927 69.0877 9.2345 C 69.5273 10.0363 70.4441 10.5873 71.9963 10.5804 C 73.5674 10.5804 74.8856 9.8005 75.5635 8.6477 L 75.5635 5.4803 C 75.5635 5.2725 75.3698 5.0641 75.1148 5.0641 L 74.8937 5.0641 L 74.8937 3.8153 L 76.4543 3.8153 C 77.1431 3.8153 77.6732 4.2864 77.774 4.864 C 78.5417 4.1395 79.4883 3.8153 80.5688 3.8153 C 81.8677 3.8153 82.6921 4.6178 82.6924 5.8179 L 82.6924 10.043 C 82.6924 10.4581 83.0621 10.7078 83.4042 10.7078 C 83.5816 10.7078 83.7441 10.6761 83.8896 10.621 L 83.8896 9.1848 L 85.5745 9.1848 L 85.5749 10.2697 C 85.5749 10.7107 86.5923 10.7548 86.91 10.7521 C 87.7014 10.7456 88.6954 10.5656 88.6954 9.8185 C 88.6954 8.12 83.9805 8.611 83.9475 6.0907 C 83.921 3.9897 86.1483 3.6783 87.6523 3.6783 C 88.7461 3.6783 89.8668 3.824 90.1567 3.9448 C 90.3128 4.0101 90.4213 4.1527 90.4213 4.3239 L 90.4213 5.917 L 88.9415 5.917 L 88.9415 5.7102 C 88.9415 5.1943 88.1823 5.1787 87.7931 5.1787 C 87.226 5.1787 86.1741 5.2184 86.1741 5.9478 C 86.1741 7.2412 90.9534 6.7383 90.9204 9.7494 C 90.8995 11.7242 88.693 12.2456 86.9643 12.2456 C 86.0715 12.2456 85.0892 12.1484 84.2483 11.8525 C 84.227 11.8451 84.2053 11.8369 84.1843 11.8286 C 83.7509 12.0891 83.2361 12.2405 82.688 12.2405 C 81.4777 12.2405 80.4667 11.4698 80.4663 10.2915 L 80.4647 6.3126 C 80.4643 4.9324 77.7917 5.3472 77.7917 7.1084 L 77.7917 12.1417 L 76.0087 12.1417 C 75.7606 12.1417 75.5635 11.9576 75.5635 11.7253 L 75.5635 10.785 L 75.5635 10.785 ZM 100 11.213 L 99.4648 9.7389 C 98.7699 10.2653 97.8735 10.5804 96.8743 10.5804 C 95.3213 10.5873 94.4048 10.0363 93.9653 9.2345 C 96.1464 9.6927 99.0333 8.5817 99.0333 6.353 C 99.0333 4.5967 97.5221 3.6798 95.8492 3.6775 C 90.0731 3.6677 89.6476 12.2456 96.5458 12.2456 C 97.8249 12.2456 99.0204 11.8654 100 11.213 L 100 11.213 ZM 96.8956 6.3202 C 96.8643 7.4357 95.4447 7.8774 94.4434 7.879 C 94.1744 7.879 93.8809 7.837 93.6468 7.7765 C 93.6251 6.12 94.8057 5.3828 95.7495 5.381 C 96.3845 5.3798 96.9125 5.7117 96.8956 6.3202 L 96.8956 6.3202 ZM 72.018 6.3202 C 72.0349 5.7117 71.507 5.3798 70.872 5.381 C 69.9282 5.3828 68.7475 6.12 68.7692 7.7765 C 69.0033 7.837 69.2968 7.879 69.5659 7.879 C 70.5668 7.8774 71.9866 7.4357 72.018 6.3202 L 72.018 6.3202 Z" fill="#555845"/>
		<path d="M 13.9047 12.1409 L 12.2266 12.1409 C 11.3947 12.1409 11.0934 11.8105 11.0227 11.0164 L 10.6154 5.3671 L 10.5977 3.7545 L 7.7828 12.1417 L 6.1219 12.1417 L 3.3071 3.7545 L 3.2894 5.3671 L 2.8821 11.0164 C 2.8113 11.8105 2.5101 12.1409 1.678 12.1409 L 0 12.1409 L 0 10.8894 L 0.2614 10.8894 C 0.5091 10.8894 0.6333 10.757 0.6511 10.5256 L 1.512 0.4844 L 4.033 0.4844 L 6.6882 8.0062 L 6.9523 8.9594 L 7.2161 8.0062 L 9.8718 0.4844 L 12.3927 0.4844 L 13.2537 10.5256 C 13.2714 10.757 13.3956 10.8894 13.6434 10.8894 L 13.9047 10.8894 L 13.9047 12.1409 Z" fill="#555845"/>
		<path d="M 51.0659 5.2734 L 51.0381 8.8596 C 51.0317 9.6881 50.2191 10.6537 49.3585 10.6537 C 48.3041 10.6537 47.8718 9.7217 47.8595 8.5848 C 47.8432 7.0507 48.7455 5.2386 50.5518 5.2347 C 50.7189 5.2339 50.8908 5.2472 51.0659 5.2734 L 51.0659 5.2734 ZM 28.8491 9.34 L 28.8511 10.3867 C 28.8535 11.6125 29.8463 12.4146 31.0455 12.4146 C 31.7482 12.4146 32.5132 12.1144 32.9764 11.6298 C 33.0753 11.526 33.1619 11.4237 33.2385 11.3237 C 33.6315 12.0442 34.3738 12.3911 35.1868 12.3911 C 35.9919 12.3911 36.7576 12.0435 37.2706 11.4346 L 37.2706 11.8561 C 37.2706 12.098 37.4655 12.2888 37.7104 12.2888 L 39.4702 12.2888 L 39.4702 7.0557 C 39.4702 5.2253 42.1089 4.793 42.1089 6.2288 L 42.1097 10.3649 C 42.1097 11.5891 43.1116 12.3911 44.3038 12.3911 C 45.197 12.3911 45.9731 11.9865 46.4983 11.2972 C 46.9961 11.9502 47.7321 12.3849 48.7313 12.3849 C 49.9507 12.3849 50.8515 11.6282 51.0984 11.028 L 51.0984 11.9536 C 51.0984 13.5483 50.0695 14.275 48.9052 14.2953 C 48.3359 14.3051 47.7333 14.1665 47.2029 13.9031 L 46.6987 15.3669 C 49.7281 16.9823 53.2639 15.4208 53.2639 11.6539 L 53.2639 4.2004 C 53.2639 3.9406 53.0611 3.8199 52.9603 3.788 C 52.2564 3.5643 51.5681 3.4977 50.8702 3.4952 C 47.3839 3.4851 45.7007 6.1749 45.69 8.598 C 45.6873 9.1906 45.7825 9.7935 45.9826 10.3391 C 45.7662 10.6116 45.4296 10.7981 45.0112 10.7981 C 44.673 10.7981 44.3085 10.5385 44.3085 10.1069 L 44.3082 5.714 C 44.3082 4.4667 43.4943 3.6318 42.2117 3.6318 C 41.145 3.6318 40.2106 3.9691 39.4531 4.7216 C 39.3535 4.1212 38.8303 3.6318 38.1503 3.6318 L 36.6092 3.6318 L 36.6092 4.9303 L 36.8279 4.9303 C 37.0788 4.9303 37.2706 5.1465 37.2706 5.3632 L 37.2706 9.4922 C 37.2706 10.1533 36.7481 10.7981 35.9438 10.7981 C 35.5818 10.7981 35.1912 10.5203 35.1912 10.0581 L 35.1912 4.0706 C 35.1912 3.8293 34.9963 3.6373 34.7517 3.6373 C 33.9443 3.6373 33.1372 3.6373 32.3298 3.6373 L 32.3298 4.9362 L 32.5489 4.9362 C 32.7998 4.9362 32.9919 5.1527 32.9919 5.3689 L 32.9931 9.6 C 32.9931 10.2178 32.5048 10.8203 31.7534 10.8203 C 31.4152 10.8203 31.0503 10.5608 31.0503 10.1288 L 31.0499 8.8264 C 31.0495 7.9285 30.4326 7.1725 29.5927 6.946 C 30.2159 6.4917 30.6776 5.8783 30.6776 4.9615 L 30.6776 4.0947 C 30.6776 3.8528 30.4827 3.6615 30.2377 3.6615 L 27.8821 3.6615 L 27.8821 4.9362 L 28.1008 4.9362 C 28.3528 4.9362 28.5446 5.1527 28.5446 5.3693 C 28.5446 6.3158 27.8666 6.8899 27.0703 7.2716 L 26.2175 7.6793 L 26.2175 0.6252 C 26.2175 0.384 26.0226 0.1924 25.7784 0.1924 L 23.3565 0.1924 L 23.3565 1.4908 L 23.5753 1.4908 C 23.8265 1.4908 24.0182 1.7074 24.0182 1.9241 L 24.0182 9.5961 C 24.0182 10.2126 23.5304 10.8152 22.7789 10.8152 C 22.4411 10.8152 22.0767 10.5557 22.0767 10.124 L 22.0767 6.3728 C 22.0767 3.9956 20.1688 3.5031 18.1522 3.5007 C 17.5448 3.5 16.0152 3.5483 15.4924 3.7778 C 15.3384 3.8457 15.2312 3.9937 15.2312 4.172 L 15.2312 5.8286 L 16.6921 5.8286 L 16.6921 5.6133 C 16.6921 5.4166 16.8306 5.2573 16.9974 5.2003 C 17.2177 5.1246 17.8083 5.0603 18.3026 5.0603 C 19.3967 5.0607 19.8862 5.5461 19.8818 6.368 L 19.8798 6.7977 L 19.567 6.7977 C 17.9203 6.7977 14.4099 7.1294 14.4099 9.7458 C 14.4099 11.4541 15.8227 12.4083 17.3717 12.4083 C 19.0974 12.4083 19.8174 11.2372 19.9639 10.9601 C 20.2478 11.9014 21.1009 12.4083 22.0719 12.4083 C 22.7718 12.4083 23.5388 12.1152 24.0182 11.606 L 24.0182 12.3127 L 25.7784 12.3127 C 26.0226 12.3127 26.2175 12.1215 26.2175 11.8795 L 26.2175 10.0253 C 26.2175 9.1487 27.0587 8.474 27.9686 8.474 C 28.4549 8.474 28.8483 8.8619 28.8491 9.34 L 28.8491 9.34 ZM 16.5884 9.6451 C 16.5884 8.4564 18.3757 8.3054 19.4991 8.3054 L 19.8798 8.3054 L 19.8798 8.5063 C 19.8798 9.5444 19.0565 10.7509 17.8993 10.7509 C 17.014 10.7509 16.5884 10.2146 16.5884 9.6451 L 16.5884 9.6451 ZM 33.9518 0 C 34.7005 0 35.3071 0.597 35.3071 1.3335 C 35.3071 2.0696 34.7005 2.6671 33.9518 2.6671 C 33.2036 2.6671 32.5969 2.0696 32.5969 1.3335 C 32.5969 0.597 33.2036 0 33.9518 0 Z" fill="#555845"/>
	</g>
</svg>