<?xml version="1.0" encoding="UTF-8"?>
<svg width="16px" height="16px" viewBox="0 0 16 16" version="1.1" xmlns="http://www.w3.org/2000/svg" xmlns:xlink="http://www.w3.org/1999/xlink">
    <!-- Generator: sketchtool 53.2 (72643) - https://sketchapp.com -->
    <title>3860D41C-EF1E-4D38-B22E-6DA743B04A29</title>
    <desc>Created with sketchtool.</desc>
    <defs>
        <path d="M9,17 C4.581722,17 1,13.418278 1,9 C1,4.581722 4.581722,1 9,1 C13.418278,1 17,4.581722 17,9 C17,13.418278 13.418278,17 9,17 Z M6.52208812,8.41324903 C6.13523746,8.01908534 5.50210023,8.01315697 5.10793655,8.40000763 C4.71377286,8.78685829 4.70784449,9.41999552 5.09469515,9.8141592 L7.38853524,12.151362 C7.77114174,12.5412013 8.39577382,12.5519044 8.79151162,12.1754021 L14.0539939,7.16871119 C14.4541216,6.78803242 14.469888,6.15506377 14.0892092,5.75493615 C13.7085304,5.35480852 13.0755618,5.33904212 12.6754341,5.71972089 L8.12627469,10.0477611 L6.52208812,8.41324903 Z" id="path-1"></path>
    </defs>
    <g id="Page-1" stroke="none" stroke-width="1" fill="none" fill-rule="evenodd">
        <g id="Doppler-forms---extentions-3" transform="translate(-1283.000000, -851.000000)">
            <g id="Group-3-Copy" transform="translate(1282.000000, 850.000000)">
                <g id="icons/status-ckeck-icon">
                    <mask id="mask-2" fill="white">
                        <use xlink:href="#path-1"></use>
                    </mask>
                    <use id="Combined-Shape" fill="#666666" xlink:href="#path-1"></use>
                </g>
            </g>
        </g>
    </g>
</svg>