<?xml version="1.0" encoding="utf-8"?>
<!-- Generator: Adobe Illustrator 21.1.0, SVG Export Plug-In . SVG Version: 6.00 Build 0)  -->
<svg version="1.1" id="Layer_1" xmlns="http://www.w3.org/2000/svg" xmlns:xlink="http://www.w3.org/1999/xlink" x="0px" y="0px"
	 viewBox="0 0 190 190" style="enable-background:new 0 0 190 190;" xml:space="preserve">
<style type="text/css">
	.st0{fill:none;stroke:#4D88FF;stroke-width:18;stroke-linecap:round;stroke-linejoin:round;stroke-miterlimit:10;}
	.st1{fill:#B8E8FC;}
	.st2{fill:#202F5B;}
	.st3{fill:none;stroke:#E1E419;stroke-width:18;stroke-linecap:round;stroke-linejoin:round;stroke-miterlimit:10;}
	.st4{fill:#4D88FF;}
</style>
<path class="st0" d="M136.6,51.1c22.1,6.5,34.7,29.8,28.1,51.9"/>
<circle class="st1" cx="106.9" cy="54.7" r="9.9"/>
<circle class="st2" cx="80.2" cy="134.1" r="9.9"/>
<path class="st1" d="M54.5,144.7L54.5,144.7c-4.7,1.5-9.7-1.1-11.2-5.8L16.4,54.1c-1.5-4.7,1.1-9.7,5.8-11.2l0,0
	c4.7-1.5,9.7,1.1,11.2,5.8l26.8,84.8C61.8,138.1,59.1,143.2,54.5,144.7z"/>
<path class="st2" d="M109.6,144.7L109.6,144.7c-4.7,1.5-9.7-1.1-11.2-5.8L71.5,54.1c-1.5-4.7,1.1-9.7,5.8-11.2l0,0
	c4.7-1.5,9.7,1.1,11.2,5.8l26.8,84.8C116.9,138.1,114.3,143.2,109.6,144.7z"/>
<path class="st4" d="M49.8,144.7L49.8,144.7c4.7,1.5,9.7-1.1,11.2-5.8l26.8-84.8c1.5-4.7-1.1-9.7-5.8-11.2l0,0
	c-4.7-1.5-9.7,1.1-11.2,5.8L44,133.5C42.5,138.1,45.1,143.2,49.8,144.7z"/>
<path class="st1" d="M105,144.7L105,144.7c4.7,1.5,9.7-1.1,11.2-5.8L143,54.1c1.5-4.7-1.1-9.7-5.8-11.2l0,0
	c-4.7-1.5-9.7,1.1-11.2,5.8l-26.8,84.8C97.7,138.1,100.3,143.2,105,144.7z"/>
<path class="st0" d="M108.5,136.9c8.9,3.6,18.3,3.9,26.8,1.6"/>
<circle class="st1" cx="134.7" cy="138.5" r="8.4"/>
</svg>
