<svg xmlns="http://www.w3.org/2000/svg" width="40" height="40" fill="#B58352"><path d="M39.029 2.549L37.452.971a3.321 3.321 0 0 0-4.695 0l-1.195 1.2-.156-.156a.8.8 0 0 0-1.127 0L4.952 27.342a.793.793 0 0 0-.173.256L2.46 33.154.06 38.9a.8.8 0 0 0 1.042 1.043l5.747-2.4 5.555-2.319a.8.8 0 0 0 .256-.173L37.988 9.724a.8.8 0 0 0 0-1.127l-.156-.156 1.194-1.194a3.324 3.324 0 0 0 .003-4.698zM2.28 37.72l1.194-2.861 1.666 1.667zm4.45-1.858L4.137 33.27l1.656-3.965 4.9 4.9zm5.37-2.5l-5.458-5.457L28.3 6.239l5.458 5.458zm22.788-22.787L29.43 5.118l1.413-1.413L36.3 9.162zm3.014-4.453l-1.183 1.182-4.018-4.018 1.183-1.183a1.727 1.727 0 0 1 2.441 0l1.577 1.578a1.728 1.728 0 0 1-.002 2.436zm-17.563 9.77L8.815 27.416a.8.8 0 0 0 1.127 1.128l11.524-11.525a.8.8 0 1 0-1.127-1.132zm3.586-3.585l-1.451 1.451a.8.8 0 0 0 1.127 1.127l1.451-1.451a.8.8 0 1 0-1.127-1.134z"/></svg>