<svg width="72" height="48" viewBox="0 0 72 48" fill="none" xmlns="http://www.w3.org/2000/svg">
<rect width="45" height="37" rx="2" fill="#F9ECEC"/>
<path d="M24.3999 0H8.53319V2.2326H24.3999V0Z" fill="#0A0A0A"/>
<path d="M21.0001 40.186H18.7333V42.4186H21.0001V40.186Z" fill="#0A0A0A"/>
<path d="M57.2667 40.186H59.5334V42.4186H57.2667V40.186Z" fill="#0A0A0A"/>
<path fill-rule="evenodd" clip-rule="evenodd" d="M5.13329 4.46523H48.2C48.8268 4.46523 49.3333 4.96533 49.3333 5.58147V12.2791H60.6667C61.0521 12.2791 61.4114 12.4722 61.6199 12.7915L71.8199 28.4194C71.9378 28.5991 72.0001 28.8101 72 29.0233V41.3024C72 41.9197 71.4934 42.4186 70.8667 42.4186H65.1056C64.5647 45.5828 61.7642 48 58.4 48C55.0358 48 52.2353 45.5827 51.6944 42.4185H48.2211L48.2 42.4187H26.5724C26.0314 45.5828 23.2309 48 19.8668 48C16.5026 48 13.7022 45.5828 13.1612 42.4187H5.13329C4.50774 42.4187 4 41.9198 4 41.3025V5.58147C4 4.96533 4.50774 4.46523 5.13329 4.46523ZM13.1612 40.1861C13.7021 37.0219 16.5026 34.6046 19.8668 34.6046C23.2309 34.6046 26.0315 37.0219 26.5724 40.1861H47.0668V37.9536H27.8001V35.721H47.0668V11.1629H8.53319V8.93034H47.0668V6.6977H6.26671V35.721H11.9334V37.9536H6.26671V40.1861H13.1612ZM51.6944 40.1859H49.3334V14.5117H60.0479L61.505 16.7442H52.7335C52.1067 16.7442 51.6002 17.2443 51.6002 17.8604V27.907C51.6002 28.5243 52.1067 29.0232 52.7335 29.0232H69.5192L69.7334 29.3515V35.721H66.3333V37.9536H69.7334V40.1862H65.1056C64.5648 37.022 61.7642 34.6046 58.4 34.6046C55.0359 34.6046 52.2354 37.0218 51.6944 40.1859ZM68.062 26.7906L62.9335 18.9328V18.9768H53.8668V26.7906H68.062ZM19.8668 45.7674C17.3666 45.7674 15.3335 43.7648 15.3335 41.3023C15.3335 38.8397 17.3667 36.8372 19.8668 36.8372C22.3669 36.8372 24.4001 38.8399 24.4001 41.3023C24.4001 43.7648 22.3669 45.7674 19.8668 45.7674ZM58.4 45.7674C55.8998 45.7674 53.8667 43.7648 53.8667 41.3023C53.8667 38.8397 55.8999 36.8372 58.4 36.8372C60.9002 36.8372 62.9333 38.8399 62.9333 41.3023C62.9333 43.7648 60.9002 45.7674 58.4 45.7674Z" fill="#0A0A0A"/>
<path d="M4 0H6.26671V2.2326H4V0Z" fill="#0A0A0A"/>
</svg>
