<svg width="32" height="32" viewBox="0 0 32 32" fill="none" xmlns="http://www.w3.org/2000/svg">
<path fill-rule="evenodd" clip-rule="evenodd" d="M27.4205 32C29.9497 32 32 29.9497 32 27.4205V16C32 13.4155 29.9106 11.319 27.3288 11.3075C29.1463 9.47371 29.1412 6.51382 27.3137 4.68629C25.4862 2.85876 22.5263 2.85374 20.6925 4.67123C20.681 2.08941 18.5845 0 16 0C13.4155 0 11.319 2.08941 11.3075 4.67122C9.47372 2.85374 6.51382 2.85876 4.68629 4.68629C2.85876 6.51382 2.85374 9.47371 4.67123 11.3075C2.08941 11.319 0 13.4155 0 16V27.4205C0 29.9497 2.05031 32 4.57951 32H27.4205Z" fill="black"/>
<path d="M29.8516 16L2.14844 16C2.14844 17.4051 3.2875 18.5442 4.69261 18.5442C5.40431 18.5442 6.04776 18.2519 6.50951 17.7809H11.7005L8.02992 21.4515C7.37035 21.445 6.70873 21.6933 6.20548 22.1966C5.21192 23.1901 5.21192 24.801 6.20548 25.7946C7.19904 26.7881 8.80992 26.7881 9.80347 25.7946C10.3067 25.2913 10.5551 24.6297 10.5485 23.9701L14.2191 20.2995V25.4905C13.7481 25.9523 13.4559 26.5957 13.4559 27.3074C13.4559 28.7125 14.5949 29.8516 16 29.8516C17.4051 29.8516 18.5442 28.7125 18.5442 27.3074C18.5442 26.5957 18.252 25.9523 17.7809 25.4905V20.2995L21.4515 23.9701C21.445 24.6297 21.6933 25.2913 22.1966 25.7946C23.1901 26.7881 24.801 26.7881 25.7946 25.7946C26.7881 24.801 26.7881 23.1901 25.7946 22.1966C25.2913 21.6933 24.6297 21.445 23.9701 21.4515L20.2995 17.7809H25.4905C25.9523 18.2519 26.5957 18.5442 27.3074 18.5442C28.7126 18.5442 29.8516 17.4051 29.8516 16Z" fill="#33230C"/>
<path d="M2.14839 16L29.8516 16C29.8516 14.5949 28.7125 13.4558 27.3074 13.4558C26.5957 13.4558 25.9522 13.7481 25.4905 14.2191L20.2995 14.2191L23.9701 10.5485C24.6296 10.555 25.2913 10.3067 25.7945 9.80345C26.7881 8.80989 26.7881 7.19901 25.7945 6.20545C24.801 5.21189 23.1901 5.21189 22.1965 6.20545C21.6933 6.7087 21.4449 7.37033 21.4515 8.02989L17.7809 11.7005L17.7809 6.50948C18.2519 6.04773 18.5441 5.40428 18.5441 4.69258C18.5441 3.28747 17.4051 2.14841 16 2.14841C14.5949 2.14841 13.4558 3.28747 13.4558 4.69258C13.4558 5.40428 13.748 6.04773 14.2191 6.50948L14.2191 11.7005L10.5485 8.02989C10.555 7.37032 10.3067 6.70869 9.80343 6.20544C8.80987 5.21188 7.19899 5.21188 6.20543 6.20544C5.21187 7.199 5.21187 8.80988 6.20543 9.80344C6.70868 10.3067 7.37031 10.555 8.02987 10.5485L11.7005 14.2191L6.50946 14.2191C6.04772 13.7481 5.40427 13.4558 4.69256 13.4558C3.28746 13.4558 2.14839 14.5949 2.14839 16Z" fill="#FFB13B"/>
<path fill-rule="evenodd" clip-rule="evenodd" d="M7.35593 16.9178C7.0355 16.9567 6.69391 17.0268 6.45568 17.1024C5.01595 17.5596 3.93894 18.773 3.63574 20.2795C3.56034 20.6541 3.568 21.5025 3.65015 21.8757C3.79676 22.5417 4.04488 23.0705 4.46161 23.605C4.93484 24.212 5.51011 24.5981 6.35121 24.8732C6.70272 24.9881 6.9492 25.0453 7.80252 25.2101C8.60009 25.364 8.96891 25.6018 9.23793 26.1354C9.36847 26.3944 9.41822 26.603 9.41771 26.8894C9.41686 27.3827 9.26161 27.7551 8.91089 28.105C8.66588 28.3494 8.44896 28.4748 8.13008 28.5562C7.21652 28.7896 6.27796 28.2252 6.04276 27.3009C6.01923 27.2084 5.99996 27.0782 5.99996 27.0116V26.8906H4.78097H3.56198L3.5789 27.1683C3.69357 29.0483 5.097 30.6203 6.97456 30.9719C7.36291 31.0446 8.05454 31.0446 8.44353 30.972C9.28827 30.8142 10.0294 30.4254 10.6314 29.824C11.0904 29.3655 11.4336 28.8143 11.6323 28.2166C11.7823 27.7654 11.8211 27.5421 11.8384 27.0317C11.8517 26.6399 11.845 26.5123 11.796 26.2274C11.6427 25.3346 11.2084 24.5152 10.5673 23.909C9.90979 23.2872 9.00072 22.9115 7.80792 22.7687C7.25714 22.7028 6.87385 22.5712 6.61972 22.3607C5.75608 21.6452 5.80416 20.2989 6.71634 19.6553C7.43124 19.1508 8.39672 19.2553 8.9812 19.9005C9.22937 20.1745 9.41814 20.6184 9.41814 20.928V21.0491H10.6369H11.8557L11.8401 20.7598C11.774 19.5357 11.0746 18.3198 10.0332 17.6187C9.57297 17.3088 8.97261 17.0643 8.44353 16.9715C8.18985 16.9269 7.54331 16.895 7.35593 16.9178ZM11.8588 16.9499C11.8672 16.9772 12.0897 18.0409 12.3533 19.3136C12.6168 20.5863 13.0234 22.5483 13.2568 23.6735C13.4901 24.7988 13.84 26.4877 14.0341 27.4267C14.5046 29.7016 14.7533 30.8981 14.7716 30.9754L14.7866 31.0389H16.0008C16.6686 31.0389 17.215 31.0338 17.215 31.0276C17.215 31.0213 17.3045 30.5864 17.414 30.061C17.5234 29.5357 17.7655 28.3693 17.952 27.4691C18.4488 25.0703 19.067 22.0906 19.6293 19.3847C19.9017 18.0735 20.1247 16.9781 20.1247 16.9504C20.1247 16.9029 20.0593 16.9006 18.9177 16.9075L17.7107 16.9149L16.8625 21.0137C16.396 23.268 16.008 25.1125 16.0002 25.1126C15.9925 25.1126 15.6035 23.2681 15.1359 21.0138L14.2858 16.9149L13.0647 16.9075C11.9101 16.9006 11.8444 16.9029 11.8588 16.9499ZM23.8253 16.93C22.5771 17.0827 21.4852 17.7605 20.8038 18.8056C20.5423 19.2066 20.3633 19.6324 20.2296 20.1718C20.1702 20.4112 20.1694 20.456 20.1604 23.8412C20.1517 27.1436 20.1534 27.2801 20.207 27.5944C20.3512 28.4405 20.7462 29.2048 21.3514 29.8089C21.9673 30.4238 22.7052 30.8129 23.557 30.972C23.9723 31.0496 24.695 31.0427 25.0965 30.9572C26.2177 30.7187 27.1256 30.1059 27.743 29.1708C28.0417 28.7185 28.2326 28.2614 28.3529 27.71C28.4092 27.452 28.4121 27.3439 28.4222 25.1057L28.4327 22.7705H26.3547H24.2767L24.2841 23.9769L24.2914 25.1833L25.1479 25.1908L26.0043 25.1982L25.9952 26.2208L25.9862 27.2433L25.9092 27.4543C25.5479 28.4447 24.447 28.8882 23.5074 28.4218C23.23 28.2842 22.9099 27.9668 22.7717 27.6924C22.5721 27.2959 22.5823 27.497 22.5823 23.9883C22.5823 21.8162 22.592 20.7793 22.6131 20.6766C22.6301 20.5943 22.6955 20.4191 22.7585 20.2872C22.8913 20.009 23.1704 19.7072 23.4298 19.561C24.2977 19.0721 25.3739 19.401 25.8146 20.2898C25.9189 20.5003 25.9531 20.6063 25.9796 20.8022L26.013 21.0491H27.2257H28.4383L28.4195 20.7812C28.3466 19.7456 27.9437 18.8665 27.2029 18.1265C26.5759 17.5001 25.8529 17.1173 25.0191 16.9704C24.7109 16.9161 24.106 16.8956 23.8253 16.93Z" fill="white"/>
</svg>
