<?xml version="1.0" standalone="no"?>
<!DOCTYPE svg PUBLIC "-//W3C//DTD SVG 1.1//EN" "http://www.w3.org/Graphics/SVG/1.1/DTD/svg11.dtd" >
<!--
2016-6-22: Created.
-->
<svg xmlns="http://www.w3.org/2000/svg">
    <metadata>
        Created by FontForge 20120731 at Wed Jun 22 15:10:59 2016
        By root
        Created by root with FontForge 2.0 (http://fontforge.sf.net)
    </metadata>
    <defs>
        <font id="Flaticon" horiz-adv-x="512">
            <font-face
                    font-family="Flaticon"
                    font-weight="500"
                    font-stretch="normal"
                    units-per-em="512"
                    panose-1="2 0 6 3 0 0 0 0 0 0"
                    ascent="448"
                    descent="-64"
                    bbox="-0.00415039 -64.0092 512.011 448.403"
                    underline-thickness="25.6"
                    underline-position="-51.2"
                    unicode-range="U+0020-F28F"
            />
            <missing-glyph/>
            <glyph glyph-name="space" unicode=" " horiz-adv-x="200"
            />
            <glyph glyph-name="uniF24C" unicode="&#xf24c;"
                   d="M511.483 250.36c1.23926 -3.81836 0.195312 -8.01562 -2.67383 -10.8105l-118.919 -115.692l28.2012 -163.494c0.691406 -3.95508 -0.943359 -7.96289 -4.19238 -10.3203c-1.83984 -1.33984 -4.0127 -2.01953 -6.20117 -2.01953
c-1.69238 0 -3.375 0.400391 -4.91992 1.21289l-146.778 77.3496l-146.778 -77.3496c-3.55469 -1.87793 -7.85742 -1.56641 -11.1162 0.801758c-3.24805 2.35645 -4.87793 6.36426 -4.19238 10.3193l28.2021 163.495l-118.92 115.692
c-2.88379 2.7998 -3.91797 6.99707 -2.67871 10.8203c1.24512 3.81836 4.55078 6.60742 8.52734 7.17773l164.212 23.6982l73.2842 148.855c1.77148 3.60156 5.44141 5.88574 9.45996 5.88574s7.68848 -2.28418 9.45996 -5.89062l73.2793 -148.856l164.217 -23.6982
c3.98145 -0.569336 7.28223 -3.35352 8.52734 -7.17676zM437.503 218.947c2.0625 2.02441 2.81641 5.03027 1.91992 7.7832c-0.896484 2.74707 -3.26465 4.75098 -6.12207 5.15723l-117.98 17.0273l-52.6553 106.943c-1.28125 2.58984 -3.91211 4.22949 -6.79688 4.22949
v-294.137l105.456 -55.5654c1.11328 -0.580078 2.32617 -0.870117 3.5332 -0.870117c1.57227 0 3.1377 0.480469 4.45605 1.43945c2.33105 1.69824 3.50195 4.57227 3.01172 7.4248l-20.2607 117.454z"/>
            <glyph glyph-name="uniF151" unicode="&#xf151;"
                   d="M508.768 199.801c4.31348 -4.30859 4.31348 -11.293 0.00488281 -15.6016l-172.402 -172.43c-2.15723 -2.15723 -4.98145 -3.23242 -7.80566 -3.23242s-5.64355 1.0752 -7.80078 3.22656l-37.126 37.1152c-2.06836 2.06934 -3.23242 4.88281 -3.23242 7.80664
c0 2.92285 1.16406 5.73145 3.23242 7.7998l127.504 127.515l-127.515 127.509c-2.06934 2.06934 -3.23242 4.87695 -3.23242 7.80078s1.16309 5.73145 3.23242 7.7998l37.1201 37.1152c4.30371 4.30859 11.293 4.30859 15.6016 0zM100.858 192l127.521 -127.509
c4.30859 -4.29785 4.30859 -11.293 0 -15.6006l-37.0938 -37.1152c-2.06836 -2.06934 -4.87598 -3.2334 -7.7998 -3.2334c-2.92969 0 -5.7373 1.16406 -7.80566 3.2334l-172.447 172.424c-2.06836 2.06934 -3.23242 4.87695 -3.23242 7.80078
s1.16406 5.73145 3.23242 7.80078l172.419 172.424c4.30371 4.30859 11.293 4.30859 15.6016 0l37.1152 -37.1152c2.06836 -2.06836 3.23242 -4.87598 3.23242 -7.7998s-1.16406 -5.73145 -3.23242 -7.80078z"/>
            <glyph glyph-name="uniF25B" unicode="&#xf25b;"
                   d="M498.637 447.631c7.38477 -0.00488281 13.3633 -5.98828 13.3691 -13.3682v-354.79c0 -3.53516 -1.40137 -6.9248 -3.89844 -9.43848l-129.232 -129.954c-2.50781 -2.51855 -5.91406 -3.93555 -9.4707 -3.93555l-356.036 -0.0214844
c-3.55078 0 -6.94629 1.40137 -9.45898 3.90918c-2.50293 2.5127 -3.90918 5.91895 -3.90918 9.46387l0.250977 485.023c0.00585938 7.37891 5.98926 13.3574 13.3682 13.3574h0.00585938zM63.4883 381.982v-23.4688c0 -4.43262 3.59277 -8.02051 8.02051 -8.02051h331.595
c4.42676 0 8.02051 3.58789 8.02051 8.02051v23.4688c0 4.43359 -3.59375 8.02148 -8.02051 8.02148h-331.595c-4.42773 0 -8.02051 -3.58789 -8.02051 -8.02148zM63.4883 279.203v-23.4688c0 -4.43359 3.59277 -8.02148 8.02051 -8.02148h331.595
c4.42676 0 8.02051 3.58789 8.02051 8.02148v23.4688c0 4.43262 -3.59375 8.02051 -8.02051 8.02051h-331.595c-4.42773 0 -8.02051 -3.58789 -8.02051 -8.02051zM226.943 152.954v23.4697c0 4.42676 -3.59375 8.02051 -8.02148 8.02051h-147.413
c-4.42773 0 -8.02051 -3.59375 -8.02051 -8.02051v-23.4697c0 -4.43848 3.59277 -8.02051 8.02051 -8.02051h147.413c4.42773 0 8.02148 3.58203 8.02148 8.02051zM469.554 95.8184c2.28809 2.28906 2.9834 5.73828 1.73242 8.73828
c-1.24609 2.99902 -4.1709 4.95117 -7.41113 4.95117h-116.881c-4.42773 0 -8.02051 -3.59375 -8.02051 -8.02051v-116.886c0 -3.24609 1.94629 -6.1709 4.95117 -7.40625c0.984375 -0.416992 2.03711 -0.615234 3.06934 -0.615234
c2.08594 0 4.13867 0.813477 5.67383 2.34766z"/>
            <glyph glyph-name="uniF289" unicode="&#xf289;"
                   d="M256.011 448c141.146 0 255.979 -114.843 255.979 -255.989c0 -141.168 -114.832 -256.011 -255.979 -256.011c-141.168 0 -256 114.843 -256 256.011c0 141.162 114.832 255.989 256 255.989zM29.3916 192.011c0 -89.71 52.1309 -167.223 127.722 -203.948
l-108.096 296.162c-12.5723 -28.168 -19.626 -59.3643 -19.626 -92.2139zM256.011 -34.625c26.3779 0 51.6963 4.56543 75.2471 12.8584c-0.609375 0.974609 -1.16602 2.00684 -1.61035 3.12402l-69.6758 190.82l-67.9863 -197.566
c20.3096 -5.95312 41.7783 -9.23633 64.0254 -9.23633zM287.229 298.253l81.8936 -243.598l22.6016 75.5332c9.79688 31.3457 17.2432 53.8574 17.2432 73.2559c0 28.0088 -10.0518 47.3965 -18.6777 62.5049c-11.5029 18.6621 -22.2578 34.4697 -22.2578 53.1377
c0 20.833 15.8076 40.2207 38.0596 40.2207c1.0166 0 1.9541 -0.126953 2.94434 -0.174805c-40.3164 36.9219 -94.0195 59.4814 -153.024 59.4814c-79.1768 0 -148.836 -40.6182 -189.338 -102.149c5.31738 -0.164062 10.3105 -0.275391 14.5791 -0.275391
c23.7041 0 60.3975 2.87012 60.3975 2.87012c12.2285 0.731445 13.6523 -17.2158 1.45703 -18.6562c0 0 -12.2812 -1.44043 -25.9385 -2.16113l82.5117 -245.461l49.584 148.74l-35.3066 96.7314c-12.1953 0.725586 -23.7559 2.16602 -23.7559 2.16602
c-12.1963 0.704102 -10.7773 19.377 1.42969 18.6572c0 0 37.4355 -2.87598 59.6934 -2.87598c23.6875 0 60.3975 2.87598 60.3975 2.87598c12.2227 0.719727 13.6523 -17.2168 1.43457 -18.6572c0 0 -12.2861 -1.44531 -25.9277 -2.16602zM369.927 -3.8623
c67.3613 39.2842 112.688 112.27 112.688 195.867c0.0107422 39.4062 -10.0518 76.4551 -27.7656 108.732c0.974609 -7.21289 1.52539 -14.9717 1.52539 -23.3018c0 -22.9941 -4.28418 -48.8477 -17.2324 -81.1729z"/>
            <glyph glyph-name="uniF1C4" unicode="&#xf1c4;"
                   d="M344.306 369.504c-20.3965 0 -40.2559 -5.64648 -57.4512 -16.3281l-30.8594 -19.1631l-30.8555 19.168c-17.1953 10.6768 -37.0596 16.3232 -57.4561 16.3232c-60.21 0 -109.196 -48.9912 -109.196 -109.201c0 -58.6787 96.0576 -159.979 197.497 -236.662
c101.513 76.7891 197.518 178.047 197.518 236.662c0 60.21 -48.9863 109.201 -109.196 109.201zM344.306 427.992v0c92.4639 0 167.684 -75.2256 167.694 -167.689c0 -119.751 -203.25 -271.275 -243.999 -300.43c-3.49902 -2.52539 -7.66211 -3.86523 -12.001 -3.86523
c-4.32227 0 -8.46484 1.3291 -11.9902 3.84473c-40.7549 29.1533 -244.01 180.609 -244.01 300.45c0 92.4688 75.2207 167.689 167.684 167.689c31.4238 0 61.8105 -8.66699 88.3115 -25.1289c26.5 16.4619 56.8916 25.1289 88.3105 25.1289z"/>
            <glyph glyph-name="uniF124" unicode="&#xf124;"
                   d="M500.869 448c6.14453 0 11.1309 -4.98633 11.1309 -11.1309v-489.738c0 -6.14453 -4.98633 -11.1309 -11.1309 -11.1309h-489.738c-6.14453 0 -11.1309 4.98633 -11.1309 11.1309v489.738c0 6.14453 4.98633 11.1309 11.1309 11.1309h489.738zM346.991 23.1621
h-0.00585938v337.67c0 2.84961 -2.13672 5.40918 -5.44824 6.48926c-3.28906 1.0957 -7.07324 0.495117 -9.59375 -1.51953l-211.662 -168.838c-1.71973 -1.36914 -2.58789 -3.16113 -2.58789 -4.96387s0.868164 -3.60059 2.58789 -4.96973l211.667 -168.838
c2.52148 -2.00879 6.30566 -2.61523 9.59473 -1.51855c3.30566 1.08496 5.44824 3.63965 5.44824 6.48828z"/>
            <glyph glyph-name="uniF1E2" unicode="&#xf1e2;"
                   d="M499.663 224.903c6.80957 0 12.3369 -5.52637 12.3369 -12.3369v-41.1328c0 -6.81055 -5.52734 -12.3369 -12.3369 -12.3369h-487.326c-6.80957 0 -12.3369 5.52637 -12.3369 12.3369v41.1328c0 6.81055 5.52734 12.3369 12.3369 12.3369h487.326z"/>
            <glyph glyph-name="uniF1C5" unicode="&#xf1c5;"
                   d="M360.703 427.049c83.4238 0 151.292 -67.873 151.292 -151.292c0 -170.656 -225.173 -302.924 -250.849 -317.438c-1.59277 -0.90625 -3.37305 -1.36133 -5.14941 -1.36133c-1.77539 0 -3.55664 0.455078 -5.15332 1.36133
c-25.6768 14.5254 -250.844 146.803 -250.844 317.438c0 83.4189 67.8672 151.292 151.292 151.292c39.2627 0 76.4473 -14.96 104.705 -42.1338c28.248 27.1738 65.4375 42.1338 104.706 42.1338z"/>
            <glyph glyph-name="uniF276" unicode="&#xf276;"
                   d="M500.875 448c6.14355 0 11.125 -4.9873 11.1191 -11.1309v-489.744c0 -6.1377 -4.97559 -11.125 -11.1299 -11.125h-489.733c-6.14355 0 -11.1309 4.98145 -11.1309 11.125v489.744c0 6.14355 4.98145 11.1309 11.1309 11.1309h489.744zM413.96 272.911
c1.2373 1.24316 1.94141 2.9209 1.94141 4.6748s-0.704102 3.4375 -1.94141 4.6748l-35.1895 35.1943c-2.47949 2.48047 -6.86914 2.48047 -9.34961 0l-166.428 -166.427l-60.3975 60.3926c-2.48047 2.47949 -6.87012 2.47949 -9.35059 0l-35.1943 -35.1943
c-1.2373 -1.2373 -1.93652 -2.9209 -1.93652 -4.6748s0.699219 -3.4375 1.93652 -4.6748l100.268 -100.263c1.28613 -1.28516 2.98633 -1.93066 4.6748 -1.93066c1.68945 0 3.38379 0.645508 4.67578 1.93066z"/>
            <glyph glyph-name="uniF200" unicode="&#xf200;"
                   d="M508.627 327.893c2.14551 -2.11914 3.36816 -5.03613 3.37305 -8.13867c0 -3.14941 -1.24316 -6.09277 -3.49023 -8.28125l-352.22 -352.327c-2.01367 -1.99707 -4.44141 -3.16016 -7.10254 -3.4209l-136.124 -19.4854
c-0.504883 -0.0742188 -1.00488 -0.111328 -1.50879 -0.111328c-3.03906 0 -5.89746 1.17383 -8.05371 3.28223c-2.61914 2.61914 -3.86719 6.2373 -3.40527 9.75391l19.5176 135.821c0.0478516 0.344727 0.111328 0.668945 0.191406 0.999023l0.324219 1.34863
c0.461914 1.89648 1.43359 3.62891 2.81543 5.00977l352.368 352.273c0.882812 0.886719 1.91797 1.60449 3.05469 2.12988c1.11035 0.515625 2.92188 1.12598 5.24902 1.12598c0.563477 0 1.06738 -0.0371094 1.49316 -0.0849609
c2.44336 -0.19043 4.81836 -1.22168 6.68262 -3.08105zM100.781 62.5244c2.03418 0 4.07422 0.775391 5.63086 2.33203l235.438 235.438c1.49219 1.49805 2.33203 3.52246 2.33203 5.63672s-0.839844 4.14355 -2.33203 5.63672l-13.5469 13.5459
c-3.11328 3.11328 -8.1543 3.11328 -11.2676 0l-235.433 -235.443c-1.49316 -1.49805 -2.33203 -3.5166 -2.33203 -5.63672c0 -2.11914 0.838867 -4.14355 2.33203 -5.63672l13.541 -13.541c1.55664 -1.55664 3.59668 -2.33203 5.63672 -2.33203zM389.104 253.042
c3.11328 3.1123 3.11328 8.14844 0 11.2617l-13.5518 13.5518c-1.49805 1.49316 -3.52734 2.33203 -5.63574 2.33203c-2.12012 0 -4.14941 -0.838867 -5.64258 -2.33203l-235.433 -235.433c-3.10742 -3.11328 -3.10742 -8.15527 0 -11.2676l13.541 -13.5518
c1.49805 -1.49316 3.52246 -2.33203 5.63672 -2.33203v0c2.11426 0 4.14355 0.838867 5.63574 2.33203z"/>
            <glyph glyph-name="uniF17C" unicode="&#xf17c;"
                   d="M110.351 364.772c3.09766 0 5.61133 -2.50781 5.61133 -5.61035v-378.74c0 -3.10254 -2.51367 -5.61133 -5.61133 -5.61133h-104.739c-3.09766 0 -5.61133 2.50879 -5.61133 5.61133v378.74c0 3.10254 2.51367 5.61035 5.61133 5.61035h104.739zM506.389 322.466
c3.09766 0 5.61133 -2.50195 5.60547 -5.61035v-340.406c0 -3.10254 -2.51367 -5.61035 -5.61035 -5.61035h-374.997c-3.09766 0 -5.61133 2.50781 -5.61133 5.61035v340.406c0 3.10254 2.51367 5.61035 5.61133 5.61035h12.1582v73.8633
c0 9.28027 7.55273 16.832 16.833 16.832h280.043l53.8096 -61.7256v-28.9697h12.1582zM229.348 36.2959v54.707h-54.707v-54.707h54.707zM229.348 120.46v54.707h-54.707v-54.707h54.707zM229.348 204.625v54.7061h-54.707v-54.7061h54.707zM313.513 36.2959v54.707
h-54.707v-54.707h54.707zM313.513 120.46v54.707h-54.707v-54.707h54.707zM313.513 204.625v54.7061h-54.707v-54.7061h54.707zM397.677 36.2959v54.707h-54.707v-54.707h54.707zM397.677 120.46v54.707h-54.707v-54.707h54.707zM397.677 204.625v54.7061h-54.707v-54.7061
h54.707zM471.786 322.466v20.5703l-0.241211 0.280273h-47.8164v47.4072h-257.739v-68.2578h305.797z"/>
            <glyph glyph-name="uniF266" unicode="&#xf266;"
                   d="M256.014 445.708c152.917 0 238.687 -111.848 255.839 -222.694c0.749023 -4.81836 -1.72266 -9.57129 -6.10352 -11.7373c-4.39258 -2.1543 -9.65918 -1.23047 -13.0283 2.30273c-17.748 18.5791 -42.415 29.2285 -67.6504 29.2285
c-29.8789 0 -58.2148 -14.5762 -75.7988 -38.9912c-2.10645 -2.9209 -5.48047 -4.64844 -9.07422 -4.64844c-3.59277 0 -6.96191 1.7334 -9.07324 4.64844c-13.252 18.4102 -32.5752 31.3662 -54.3711 36.4912l-0.114258 -242.072
c0 -10.2881 8.37891 -18.6611 18.6826 -18.6611c7.47656 0 14.4395 4.6875 17.2998 11.6553c1.72852 4.19434 5.81445 6.92969 10.3428 6.92969h19.8262c3.41309 0 6.63965 -1.56445 8.76758 -4.2334c2.11621 -2.66895 2.90918 -6.16406 2.12207 -9.49512
c-6.36133 -27.1553 -30.3496 -46.1338 -58.3467 -46.1338c-33.0625 0 -59.9551 26.9043 -59.9551 59.9551v242.291c-22.0527 -4.75293 -41.665 -17.5234 -55.2236 -35.9609c-2.10547 -2.86035 -5.44727 -4.55566 -9.00781 -4.55566
c-3.55566 0 -6.8916 1.68945 -9.00293 4.55078c-17.6387 23.9502 -45.7559 38.2412 -75.2197 38.2412c-25.2412 0 -49.9072 -10.6602 -67.6611 -29.2441c-3.36328 -3.52246 -8.62988 -4.46387 -13.0225 -2.30273c-4.38086 2.16016 -6.85254 6.90723 -6.10938 11.7314
c17.0918 110.857 102.84 222.705 255.883 222.705z"/>
            <glyph glyph-name="uniF197" unicode="&#xf197;"
                   d="M482.841 88.0576l0.0556641 -135.848c0 -8.93945 -7.26562 -16.21 -16.2051 -16.21h-421.395c-8.93359 0 -16.2041 7.27051 -16.2041 16.21v135.104c0 0.335938 0.0166016 0.666992 0.0498047 1.00293l0.09375 1.00195c0 0.452148 0 0.638672 0.0546875 1.08496
l42.0479 343.358c0.991211 8.11914 7.90918 14.2383 16.0938 14.2383h337.14c8.18555 0 15.1084 -6.11914 16.0947 -14.2432l42.0586 -343.358c0.0546875 -0.446289 0.0771484 -0.892578 0.0771484 -1.33887c0.0166016 -0.198242 0.0380859 -0.80957 0.0380859 -1.00195z
M450.498 -31.5752v0l-0.00488281 103.202h-388.98v-103.202h388.985zM276.189 -5.54492v51.4775h51.4658v-51.4775h-51.4658zM373.459 -5.54492v51.4775h51.4658v-51.4775h-51.4658z"/>
            <glyph glyph-name="uniF18F" unicode="&#xf18f;"
                   d="M303.539 125.156c2.78125 -0.611328 5.19824 -2.30859 6.72266 -4.71387c1.54102 -2.40039 2.0459 -5.31641 1.43359 -8.09766l-8.36035 -37.6641c-1.2832 -5.7998 -7.0293 -9.44043 -12.8066 -8.16797l-25.8398 5.72949
c-7.56055 -14.4873 -17.7422 -27.1328 -30.2803 -37.583l11.8457 -24.293c2.59863 -5.32715 0.380859 -11.7598 -4.94531 -14.3584l-34.668 -16.9043c-5.31641 -2.58301 -11.7646 -0.386719 -14.3643 4.95117l-12.0068 24.6152
c-15.6426 -3.14746 -31.9824 -3.19531 -47.6787 -0.171875l-11.8027 -24.7607c-1.22949 -2.57227 -3.42578 -4.54297 -6.11035 -5.49805c-1.16504 -0.408203 -2.37402 -0.612305 -3.58691 -0.612305c-1.58398 0 -3.16895 0.348633 -4.62402 1.04102l-34.8174 16.6201
c-5.35352 2.55566 -7.62012 8.96191 -5.06348 14.3154l11.6523 24.4326c-12.6035 10.3369 -22.8867 22.8809 -30.5596 37.2832v0l-25.8447 -5.96582c-5.76758 -1.33203 -11.5459 2.26562 -12.8828 8.04883l-8.67773 37.5938c-1.33105 5.77832 2.27148 11.5352 8.0498 12.877
l25.0557 5.78906c0.112305 16.8125 3.57617 33.0889 10.2881 48.3818v0l-19.5566 15.5508c-4.63965 3.68945 -5.41309 10.4502 -1.71777 15.0889l24.0137 30.1943c1.77148 2.23438 4.36035 3.66797 7.18945 3.99023c2.85742 0.305664 5.67578 -0.494141 7.9043 -2.2666
l19.0361 -15.1426c13.5586 10.5947 28.8203 18.0801 45.3594 22.2529v23.9541c0 5.92871 4.81055 10.7402 10.7393 10.7402h38.5713c5.92773 0 10.7393 -4.81152 10.7393 -10.7402v-23.9385c16.2168 -4.08105 31.2041 -11.3408 44.5537 -21.5811v0l18.8535 15.2822
c2.21191 1.78809 5.06348 2.64258 7.88281 2.33594c2.83496 -0.300781 5.43359 -1.70703 7.22754 -3.9248l24.2764 -29.9854c3.72754 -4.6123 3.01855 -11.373 -1.58887 -15.1055l-19.3633 -15.6797c6.85645 -15.2451 10.4658 -31.5156 10.7178 -48.3652zM203.279 128.846
c0 26.0918 -21.2266 47.3135 -47.3242 47.3184c-26.0918 0 -47.3135 -21.2266 -47.3135 -47.3184s21.2275 -47.3184 47.3135 -47.3184c26.0977 0 47.3242 21.2266 47.3242 47.3184zM332.622 217.104c-1.55176 0 -3.12598 0.34375 -4.63477 1.05273l-14.5088 6.92188
c-2.56641 1.22461 -4.54297 3.42578 -5.49902 6.11035c-0.950195 2.68555 -0.799805 5.63281 0.429688 8.20508l5.55762 11.6523c-7.89355 6.47656 -14.3213 14.3213 -19.1162 23.3213l-12.2383 -2.83008c-5.77246 -1.33691 -11.5391 2.2666 -12.876 8.04395l-3.625 15.6699
c-0.644531 2.77539 -0.155273 5.69141 1.35352 8.1084c1.50879 2.41602 3.90918 4.13477 6.69043 4.77344l11.749 2.71191c0.0703125 10.5244 2.23926 20.7109 6.42773 30.2637l-9.06934 7.22266c-2.23438 1.77246 -3.66211 4.36035 -3.99023 7.19043
c-0.316406 2.83008 0.494141 5.66992 2.2666 7.9043l9.99316 12.5918c3.70508 4.63477 10.46 5.40723 15.0889 1.71875l8.77441 -6.9707c8.46777 6.62695 18.0049 11.3096 28.3525 13.9189v10.9541c0 5.92871 4.81152 10.7402 10.7393 10.7402h16.0771
c5.92871 0 10.7402 -4.81152 10.7402 -10.7402v-10.9541c10.1436 -2.55078 19.5137 -7.08789 27.8584 -13.4941l8.66699 7.01855c4.59668 3.73145 11.3623 3.02832 15.1045 -1.58398l10.1172 -12.4961c1.79395 -2.21191 2.6416 -5.05273 2.34082 -7.88281
c-0.289062 -2.83008 -1.70215 -5.42871 -3.91406 -7.22266l-8.9834 -7.27539c4.29004 -9.53223 6.55078 -19.708 6.70117 -30.2432l11.7275 -2.59863c5.7998 -1.2832 9.44531 -7.01855 8.16797 -12.8076l-3.46973 -15.6953
c-1.28809 -5.78906 -7.04492 -9.44043 -12.8115 -8.16211l-12.2324 2.70605c-4.73145 -9.08008 -11.1104 -16.9844 -18.9395 -23.5039l5.6543 -11.5713c1.25684 -2.56152 1.43359 -5.51465 0.509766 -8.20508c-0.928711 -2.69043 -2.88867 -4.9082 -5.4502 -6.15918
l-14.4502 -7.05078c-5.33203 -2.59863 -11.7705 -0.380859 -14.3643 4.94531l-5.74512 11.7871c-9.75195 -1.96582 -20.0029 -2.00879 -29.8086 -0.113281l-5.65918 -11.8564c-1.84766 -3.86035 -5.69727 -6.11621 -9.70312 -6.11621zM332.981 310.345
c0 -16.3184 13.2744 -29.5928 29.5986 -29.5928c16.3135 0 29.5879 13.2744 29.5879 29.5928c0 16.3135 -13.2744 29.5879 -29.5879 29.5879c-16.3193 0 -29.5986 -13.2686 -29.5986 -29.5879zM503.591 103.715c5.79395 -1.28906 9.45117 -7.01855 8.13574 -12.8232
l-3.47461 -15.6953c-0.617188 -2.78711 -2.31445 -5.20312 -4.71484 -6.73438c-2.40039 -1.54102 -5.30566 -2.05078 -8.09766 -1.43359l-12.2324 2.71777c-4.71973 -9.07031 -11.0889 -16.9795 -18.9229 -23.5039l5.64844 -11.5723
c1.25684 -2.56152 1.42871 -5.51465 0.5 -8.20508c-0.923828 -2.69043 -2.88379 -4.9082 -5.44531 -6.15332l-14.4443 -7.0459c-5.33301 -2.59863 -11.7656 -0.375 -14.3643 4.95117l-5.75098 11.7764c-9.73633 -1.97656 -19.9971 -2.00879 -29.8135 -0.113281
l-5.66016 -11.8506c-1.8418 -3.86621 -5.69727 -6.12207 -9.70312 -6.12207c-1.5459 0 -3.125 0.338867 -4.6123 1.04785l-14.5098 6.9209c-2.56641 1.23047 -4.53711 3.42676 -5.49805 6.11133c-0.951172 2.68457 -0.794922 5.6377 0.43457 8.20996l5.55762 11.6416
h-0.00488281c-7.88281 6.4707 -14.3105 14.3164 -19.1064 23.3213l-12.248 -2.82422c-5.74609 -1.32129 -11.5342 2.26562 -12.8711 8.04395l-3.625 15.6689c-0.644531 2.78125 -0.150391 5.69727 1.35352 8.1084c1.50879 2.42676 3.91406 4.13477 6.69043 4.7793
l11.749 2.71191c0.0644531 10.5029 2.23926 20.6846 6.43848 30.2695l-9.08008 7.2168c-4.63965 3.7002 -5.41309 10.46 -1.71875 15.0996l10.0039 12.582c1.77246 2.2334 4.36035 3.65625 7.19043 3.98438c2.86719 0.322266 5.67578 -0.489258 7.9043 -2.2666
l8.76367 -6.96973h0.00488281c8.45801 6.62598 18 11.3145 28.3584 13.9189v10.959c0 5.92871 4.81152 10.7402 10.7393 10.7402h16.0771c5.92871 0 10.7402 -4.81152 10.7402 -10.7402v-10.9482c10.1377 -2.55078 19.5029 -7.08887 27.8584 -13.4951l8.66113 7.01855
c4.60254 3.73242 11.373 3.02832 15.1055 -1.58398l10.1221 -12.4951c1.79395 -2.20703 2.6416 -5.04785 2.34668 -7.88281c-0.294922 -2.83594 -1.70801 -5.43457 -3.91992 -7.22852l-8.99414 -7.27539c4.30078 -9.53711 6.56152 -19.7129 6.71191 -30.2432z
M444.824 105.148c0 16.3135 -13.2744 29.5879 -29.583 29.5938c-16.3135 0 -29.5977 -13.2744 -29.5977 -29.5938c0 -16.3184 13.2842 -29.5928 29.5977 -29.5928c16.3086 0 29.583 13.2744 29.583 29.5928z"/>
            <glyph glyph-name="uniF24A" unicode="&#xf24a;"
                   d="M452.085 388.085h-392.17v-392.17h392.17v392.17zM479.319 448v0c18.04 0 32.6807 -14.6357 32.6807 -32.6807v-446.639c0 -18.04 -14.6406 -32.6807 -32.6807 -32.6807h-446.639c-18.0508 0 -32.6807 14.6406 -32.6807 32.6807v446.639
c0 18.0449 14.6299 32.6807 32.6807 32.6807h446.639z"/>
            <glyph glyph-name="uniF272" unicode="&#xf272;"
                   d="M482.471 123.741c5.79785 0 10.5029 -4.7002 10.5029 -10.5029v-166.735c0 -5.79785 -4.70508 -10.5029 -10.5029 -10.5029h-452.941c-5.79785 0 -10.5029 4.70508 -10.5029 10.5029v166.735c0 5.80273 4.70508 10.5029 10.5029 10.5029h155.113v-70.4014
c0 -24.6084 20.0244 -44.6377 44.6377 -44.6377h53.4395c24.6191 0 44.6377 20.0293 44.6377 44.6377v70.4014h155.113zM144.784 256.987l-34.6445 34.6494c-4.10156 4.10156 -4.10156 10.75 0 14.8516l138.43 138.435c1.96875 1.96875 4.64258 3.07715 7.42578 3.07715
s5.45605 -1.1084 7.4248 -3.07715l138.445 -138.435c1.96973 -1.96973 3.07812 -4.6377 3.07812 -7.42578c0 -2.77832 -1.1084 -5.45703 -3.07812 -7.42578l-34.6494 -34.6494c-4.09082 -4.10156 -10.749 -4.10156 -14.8506 0l-59.1426 59.1426v-262.812
c0 -5.80273 -4.70508 -10.5029 -10.5029 -10.5029h-53.4395c-5.79785 0 -10.5029 4.7002 -10.5029 10.5029v262.812l-59.1426 -59.1426c-1.96875 -1.96973 -4.6416 -3.07715 -7.42578 -3.07715c-2.7832 0 -5.45605 1.10742 -7.4248 3.07715z"/>
            <glyph glyph-name="uniF1C3" unicode="&#xf1c3;"
                   d="M468.031 -24.6699c-23.2744 -26.0869 -57.4707 -39.3301 -101.648 -39.3301c-87.0967 0 -185.336 50.6406 -204.146 60.8018c-3.68652 1.99512 -5.99121 5.84375 -5.99121 10.0371v263.805c0 5.53418 3.97852 10.2686 9.42285 11.2373
c19.5889 3.45508 118.555 24.7969 144.011 105.075c11.3896 35.9492 35.8926 61.0439 59.5791 61.0439c10.623 0 19.9668 -5.28613 26.3291 -14.8721c18.0391 -27.2646 11.0176 -85.9756 -19.2852 -161.108c7.95703 1.84766 16.0498 2.79492 24.041 2.79492
c32.3369 0 88.4727 -16.4668 101.04 -126.682c9.08398 -79.6865 -2.13086 -137.834 -33.3516 -172.803zM120.341 -5.8584c0 -6.30566 -5.10547 -11.417 -11.4111 -11.4062h-89.9609c-6.29395 0 -11.4062 5.10059 -11.4062 11.4062v291.848
c0 6.29492 5.1123 11.4014 11.4062 11.4014h89.9658c6.30664 0 11.4062 -5.10645 11.4062 -11.4014v-291.848zM86.0605 27.668c0 12.1836 -9.91895 22.1025 -22.1025 22.1025c-12.1846 0 -22.1025 -9.91895 -22.1025 -22.1025c0 -12.1846 9.91797 -22.1025 22.1025 -22.1025
c12.1836 0 22.1025 9.91797 22.1025 22.1025z"/>
            <glyph glyph-name="uniF1FC" unicode="&#xf1fc;"
                   d="M434.479 358.728c0 -5.81543 -4.71973 -10.5361 -10.541 -10.5361h-54.7578v-369.259c0 -5.81641 -4.71973 -10.5361 -10.5361 -10.5361h-31.8008c-5.81543 0 -10.5361 4.71973 -10.5361 10.5361v369.259h-42.3262v-369.265
c0 -5.81543 -4.71973 -10.5352 -10.5352 -10.5352h-32.8398c-5.81543 0 -10.5352 4.71973 -10.5352 10.5352v152.955h-48.0371c-55.2217 0 -98.2383 12.7266 -127.854 37.833c-29.7314 25.2012 -44.1807 60.7686 -44.1807 108.742
c0 43.7012 14.9395 78.2158 44.3965 102.579c28.1357 23.2627 67.4219 34.5674 120.1 34.5674h259.448c5.81543 0 10.5352 -4.71973 10.5352 -10.5361v-46.3398zM508.423 199.778c2.28125 -2.00195 3.58789 -4.88867 3.57227 -7.92871
c0 -3.02832 -1.31152 -5.91016 -3.59277 -7.91699l-75.9082 -66.4736c-1.95508 -1.71777 -4.41992 -2.61328 -6.93848 -2.61328c-1.46387 0 -2.94434 0.316406 -4.3457 0.948242c-3.7666 1.70703 -6.18457 5.45215 -6.18457 9.58691v133.201
c0 4.13477 2.42383 7.89062 6.19531 9.59766c3.7666 1.70117 8.19141 1.04297 11.2998 -1.68555z"/>
            <glyph glyph-name="uniF183" unicode="&#xf183;"
                   d="M0 235.575c0 24.7754 20.1611 44.9424 44.9365 44.9424h196.763c8.00684 0 14.0293 0.991211 18.2441 2.10449c-24.1348 45.6318 -30.3438 79.0283 -18.4414 99.3535c10.5498 18.0137 30.6016 18.2266 31.4512 18.2266
c33.127 -0.00488281 47.9941 -38.9736 49.8955 -44.3496c25.9375 -55.8975 55.2998 -73.9434 77.1982 -78.5684c0.208984 15.0479 12.4785 27.2305 27.5703 27.2305h56.7686c15.2236 0 27.6143 -12.3848 27.6143 -27.6143v-257.252
c0 -15.2188 -12.3906 -27.6143 -27.6143 -27.6143h-56.7686c-14.3027 0 -25.9697 10.9814 -27.3398 24.9395c-6.59766 -1.9502 -11.207 -4.54785 -16.8789 -7.83105c-7.17871 -4.14844 -16.1006 -9.31641 -31.7246 -15.0479
c-41.7686 -15.3447 -114.265 -9.0752 -117.323 -8.79004l-0.892578 0.120117c-37.5117 7.04199 -42.9971 32.2393 -46.6143 48.915c-1.34277 6.17676 -2.63574 12.04 -5.03613 15.3662c-16.0234 16.4355 -24.0195 34.2236 -25.9756 49.3867
c-1.27148 12.9609 -0.838867 19.2959 -2.9043 29.5596c-2.94336 9.6123 -9.48633 38.0928 5.88574 62.0186c-40.4326 0.09375 -112.15 0.24707 -120.907 0.24707c-15.1748 0 -29.1543 18.1113 -29.1543 18.1113c-5.47461 7.45312 -8.75195 16.6045 -8.75195 26.5459z
M430.691 273.826v-251.099h50.6309v251.099h-50.6309zM438.062 242.628c0 11.9316 5.96616 17.8975 17.8984 17.8975c11.9316 0 17.8975 -5.96582 17.8975 -17.8975c0 -11.9323 -5.96582 -17.8984 -17.8975 -17.8984c-11.9323 0 -17.8984 5.96614 -17.8984 17.8984z"/>
            <glyph glyph-name="uniF28C" unicode="&#xf28c;"
                   d="M434.428 358.25c2.47656 -2.47559 3.86426 -5.82227 3.86426 -9.32715v-399.726c0 -7.29004 -5.90625 -13.1973 -13.1963 -13.1973h-338.191c-7.29004 0 -13.1963 5.90723 -13.1963 13.1973v485.605c0 7.29004 5.90625 13.1973 13.1963 13.1973h252.311
c3.50488 0 6.85742 -1.38867 9.33301 -3.86426zM368.612 275.474v4.04297c0 5.82812 -4.72949 10.5576 -10.5576 10.5576h-79.8574c-5.82812 0 -10.5576 -4.72949 -10.5576 -10.5576v-4.03809c0 -5.82715 4.72949 -10.5576 10.5576 -10.5576h20.8613l-36.9355 -47.2393
l-33.2559 47.5615h11.0117c0.0361328 -0.00488281 0.0791016 -0.00488281 0.105469 0c5.83301 0 10.5576 4.72949 10.5576 10.5576c0 0.522461 -0.0371094 1.02441 -0.111328 1.52539l-0.00488281 2.53418c-0.015625 5.81738 -4.73535 10.5312 -10.5576 10.5312h-79.8262
c-5.82715 0 -10.5576 -4.73047 -10.5576 -10.5576v-4.03809c0 -5.82812 4.73047 -10.5576 10.5576 -10.5576h24.3721l54.1445 -78.5381l-60.2568 -75.5342h-24.3564c-5.82812 0 -10.5576 -4.72949 -10.5576 -10.5576v-4.04395c0 -5.82715 4.72949 -10.5576 10.5576 -10.5576
h79.8574c5.82812 0 10.5576 4.73047 10.5576 10.5576v4.04395c0 5.82812 -4.72949 10.5576 -10.5576 10.5576h-27.9824l45.207 56.2188l37.6748 -56.541h-10.5049c-5.82812 0 -10.5576 -4.72949 -10.5576 -10.5576v-4.03809c0 -5.82812 4.72949 -10.5576 10.5576 -10.5576
h79.8574c5.82812 0 10.5576 4.72949 10.5576 10.5576v4.03809c0 5.82812 -4.72949 10.5576 -10.5576 10.5576h-23.5068l-58.9844 87.4219l36.165 46.2373c5.89062 7.55371 12.9062 16.4961 15.9941 20.4131h30.332c5.82812 0 10.5576 4.72949 10.5576 10.5576z
M327.554 330.062v0l79.8633 -0.00585938l-86.5459 86.5459l-0.0107422 -79.8467c0 -1.77344 0.712891 -3.47852 1.96387 -4.73535c1.25586 -1.25586 2.95117 -1.95801 4.72949 -1.95801z"/>
            <glyph glyph-name="uniF20A" unicode="&#xf20a;"
                   d="M500.494 448c6.35352 0 11.5059 -5.15234 11.5059 -11.5059v-488.988c0 -6.35352 -5.15234 -11.5059 -11.5059 -11.5059h-488.988c-6.35352 0 -11.5059 5.15234 -11.5059 11.5059v488.988c0 6.35352 5.15234 11.5059 11.5059 11.5059h488.988zM197.305 192
c0 1.68555 -0.124023 3.33789 -0.248047 4.99121l140.531 70.8574c11.5811 -10.0088 26.6396 -16.1035 43.1357 -16.1035c36.4707 0 66.0283 29.5635 66.0283 66.0283c0 36.4658 -29.5576 66.0283 -66.0283 66.0283s-66.0283 -29.5684 -66.0283 -66.0283
c0 -1.68457 0.124023 -3.34277 0.248047 -4.99023l-140.531 -70.8584c-11.5811 10.0088 -26.6348 16.1035 -43.1357 16.1035c-36.4658 0 -66.0283 -29.5576 -66.0283 -66.0283s29.5625 -66.0283 66.0283 -66.0283c16.291 0 31.1777 5.92773 42.6943 15.6992
l140.945 -71.0674c-0.102539 -1.44336 -0.220703 -2.90234 -0.220703 -4.37695c0 -36.4658 29.5576 -66.0342 66.0283 -66.0342s66.0283 29.5742 66.0283 66.0283c0 36.4766 -29.5625 66.0283 -66.0283 66.0283c-16.7227 0 -31.9482 -6.26172 -43.5771 -16.501
l-140.122 70.6416c0.15625 1.85742 0.280273 3.71484 0.280273 5.61035z"/>
            <glyph glyph-name="uniF1FB" unicode="&#xf1fb;"
                   d="M494.685 446.049c3.66406 -2.46777 5.57812 -6.82812 4.91895 -11.1934l-58.3154 -388.729c-0.496094 -3.2373 -2.35156 -6.11621 -5.09863 -7.9043c-2.76367 -1.78223 -6.14844 -2.30957 -9.30176 -1.42871l-120.069 33.418l-82.1328 -128.917
c-2.13574 -3.36426 -5.81055 -5.29395 -9.64941 -5.29395c-1.06445 0 -2.14062 0.142578 -3.2002 0.458984c-4.8877 1.41797 -8.24121 5.88965 -8.24121 10.9824v150.811c0 2.55664 0.848633 5.0459 2.43555 7.05957l131.56 167.92l-188.594 -154.063
c-2.88477 -2.35156 -6.72852 -3.15234 -10.3135 -2.16113l-118.051 32.8643c-4.4082 1.2334 -7.67188 4.98242 -8.26758 9.51758c-0.606445 4.53906 1.55566 9.00586 5.5 11.3467l464.588 275.662c3.7959 2.25684 8.55762 2.125 12.2324 -0.348633z"/>
            <glyph glyph-name="uniF1EE" unicode="&#xf1ee;"
                   d="M501.362 356.88c5.86719 0 10.6377 -4.76562 10.6377 -10.6377v-308.484c0 -5.87207 -4.76562 -10.6377 -10.6377 -10.6377h-490.725c-5.87207 0 -10.6377 4.76562 -10.6377 10.6377v308.484c0 5.87207 4.76562 10.6377 10.6377 10.6377h490.725zM483.625 262.776v0
l0.00488281 40.1504c0 2.79297 -1.46777 5.37793 -3.85059 6.82422c-2.39844 1.44629 -5.36621 1.54199 -7.8291 0.244141l-210.961 -110.416c-2.94727 -1.54199 -6.93066 -1.54785 -9.86621 -0.00488281l-211.067 110.427
c-2.46875 1.29785 -5.45215 1.19629 -7.83008 -0.245117c-2.39258 -1.44629 -3.85059 -4.03125 -3.85059 -6.82324v-40.1562c0 -2.91504 1.59082 -5.60059 4.14844 -7l219.685 -120.256c1.19629 -0.648438 2.51562 -0.978516 3.83496 -0.978516
c1.31836 0 2.6377 0.330078 3.83398 0.984375l219.609 120.256c2.54785 1.39844 4.13867 4.0791 4.13867 6.99414z"/>
            <glyph glyph-name="uniF201" unicode="&#xf201;"
                   d="M501.287 349.008c5.91016 0 10.708 -4.79102 10.7129 -10.707v-292.596c0 -5.91113 -4.79688 -10.708 -10.708 -10.708h-490.584c-5.91113 0 -10.708 4.79688 -10.708 10.708v292.596c0 5.91016 4.79688 10.707 10.708 10.707h490.579zM135.708 312.801
c-29.125 0 -52.7295 -23.6104 -52.7344 -52.7295c0 -29.1309 23.6045 -52.7402 52.7344 -52.7402s52.7354 23.6152 52.7354 52.7402c0 29.124 -23.6104 52.7295 -52.7354 52.7295zM217.562 71.2051c31.791 36.3096 -5.98047 101.963 -5.98047 101.963
c-10.9111 17.6836 -38.9277 26.1377 -65.5303 28.0166c-3.13184 0.224609 -6.29102 -6.69727 -9.44434 -7.61816c-3.15332 0.920898 -6.31152 7.84277 -9.44434 7.61816c-26.6025 -1.86816 -54.6191 -10.3223 -65.5303 -28.0166c0 0 -37.7705 -65.6533 -5.98047 -101.963
h80.9551h80.9551zM463.457 88.9424v22.084c0 4.43262 -3.59766 8.03125 -8.03027 8.03125h-131.169c-4.43262 0 -8.03027 -3.59863 -8.03027 -8.03125v-22.084c0 -4.43359 3.59766 -8.03125 8.03027 -8.03125h131.169c4.43262 0 8.03027 3.59766 8.03027 8.03125z
M463.457 158.541v22.085c0 4.43262 -3.59766 8.03027 -8.03027 8.03027h-131.169c-4.43262 0 -8.03027 -3.59766 -8.03027 -8.03027v-22.085c0 -4.43262 3.59766 -8.03027 8.03027 -8.03027h131.169c4.43262 0 8.03027 3.59766 8.03027 8.03027zM463.457 228.141v66.9229
c0 4.43262 -3.59766 8.03027 -8.03027 8.03027h-200.768c-4.43359 0 -8.03125 -3.59766 -8.03125 -8.03027v-66.9229c0 -4.43262 3.59766 -8.03027 8.03125 -8.03027h200.768c4.43262 0 8.03027 3.59766 8.03027 8.03027z"/>
            <glyph glyph-name="uniF1A8" unicode="&#xf1a8;"
                   d="M256 448c141.387 0 256 -114.613 256 -256s-114.613 -256 -256 -256s-256 114.613 -256 256s114.613 256 256 256zM256 387.749c-26.0479 0 -47.2373 -21.1895 -47.2373 -47.2373s21.1943 -47.2373 47.2373 -47.2373s47.2373 21.1895 47.2373 47.2373
s-21.1895 47.2373 -47.2373 47.2373zM318.656 4.3252h0.00488281v38.2559c0 4.44824 -3.61621 8.06445 -8.06348 8.06445h-20.7207v214.954c0 4.4541 -3.61035 8.06445 -8.06348 8.06445h-80.4004c-4.45312 0 -8.06348 -3.61035 -8.06348 -8.06445v-26.96
c0 -4.45312 3.61035 -8.06348 8.06348 -8.06348h22.7686v-179.926h-20.7148c-4.45312 0 -8.06445 -3.61523 -8.06445 -8.06348v-38.2617c0 -4.45898 3.61133 -8.06934 8.06445 -8.06934h107.125c4.44824 0 8.06445 3.61035 8.06445 8.06934z"/>
            <glyph glyph-name="uniF148" unicode="&#xf148;"
                   d="M454.854 183.487c56.5439 -56.5381 56.5488 -148.544 0 -205.099c-56.5439 -56.5391 -148.539 -56.5273 -205.083 0.0166016l-227.446 227.441c-10.1279 10.1328 -10.1328 26.5615 0 36.6885c10.1328 10.1328 26.5557 10.127 36.6826 0l227.453 -227.436
c36.3174 -36.3115 95.4043 -36.3115 131.71 0c36.3115 36.3057 36.3115 95.3984 0 131.71l-17.6045 17.5938l-214.968 214.979c-22.3701 22.3652 -58.749 22.3652 -81.1309 0c-22.3643 -22.3809 -22.3691 -58.7656 0 -81.1416l181.087 -181.098
c8.76562 -8.78223 23.0391 -8.78223 31.8223 0c8.78223 8.76562 8.78223 23.04 0.00585938 31.8223l-104.812 104.812c-10.1445 10.1387 -10.1387 26.5615 0 36.6885c10.127 10.127 26.5615 10.1328 36.6885 0l104.817 -104.812
c28.9912 -28.9971 28.9912 -76.1846 -0.0175781 -105.193c-28.9971 -28.9922 -76.1787 -28.9863 -105.183 0l-183.111 183.123c-0.692383 0.686523 -1.22656 1.46777 -1.81738 2.22754c-38.5791 42.8213 -37.3809 109.009 3.85352 150.243
c42.5908 42.5908 111.896 42.5908 154.485 0l214.974 -214.968z"/>
            <glyph glyph-name="uniF149" unicode="&#xf149;"
                   d="M164.727 341.384c-2.99414 0 -5.84766 1.2998 -7.7959 3.55273c-1.96875 2.26367 -2.86426 5.26855 -2.4502 8.23145l7.6875 55.251c0.709961 5.12793 5.08691 8.93555 10.2568 8.93555h38.7412c4.96289 17.7578 23.8135 30.6455 44.834 30.6455
c21.0107 0 39.8662 -12.8877 44.8281 -30.6455h38.7422c5.16992 0 9.54199 -3.8125 10.2617 -8.93555l7.69238 -55.2461c0.415039 -2.96289 -0.481445 -5.9668 -2.4502 -8.23047c-1.96875 -2.25879 -4.81738 -3.55859 -7.81641 -3.55859h-182.531zM470.969 415.826
l0.00976562 -469.466c0 -2.74512 -1.09277 -5.38184 -3.03516 -7.3252c-1.94238 -1.94238 -4.58398 -3.03516 -7.32422 -3.03516h-409.238c-5.71875 0 -10.3594 4.6416 -10.3594 10.3604v469.466c0 5.71875 4.64062 10.3604 10.3594 10.3604h67.3418
c5.71875 0 10.3604 -4.6416 10.3604 -10.3604v-85.3779c0 -5.71387 4.64062 -10.3604 10.3594 -10.3604h233.104c5.71875 0 10.3604 4.64648 10.3604 10.3604v85.3779c0 5.71875 4.6416 10.3604 10.3604 10.3604h67.3408c5.71875 0 10.3604 -4.6416 10.3604 -10.3604z
M333.453 207.814v27.3359c0 4.28906 -3.48145 7.76953 -7.77051 7.76953h-139.365c-4.28906 0 -7.77051 -3.48047 -7.77051 -7.76953v-27.3359c0 -4.28906 3.48145 -7.76953 7.77051 -7.76953h43.7354v-162.567c0 -4.28906 3.48145 -7.76953 7.77051 -7.76953h36.3535
c4.28906 0 7.77051 3.48047 7.77051 7.76953v162.567h43.7354c4.28906 0 7.77051 3.48047 7.77051 7.76953z"/>
            <glyph glyph-name="uniF1CF" unicode="&#xf1cf;"
                   d="M323.056 4.78027c5.8418 0 10.5635 -4.72168 10.5635 -10.5625v-38.8877c0 -5.83105 -4.72754 -10.5625 -10.5635 -10.5625h-312.493c-5.83008 0 -10.5625 4.73145 -10.5625 10.5625v473.34c0 5.83105 4.73242 10.5625 10.5625 10.5625h312.504
c5.83105 0 10.5635 -4.73145 10.5635 -10.5625v-38.8984c0 -5.83008 -4.73242 -10.5625 -10.5635 -10.5625h-263.048v-374.429h263.037zM508.895 199.466c1.98047 -1.98145 3.10547 -4.66406 3.11035 -7.47363c0 -2.79395 -1.11426 -5.4873 -3.09473 -7.46777
l-142.188 -142.177c-1.98047 -1.98047 -4.66309 -3.0957 -7.46777 -3.0957c-2.79395 0 -5.4873 1.11523 -7.46777 3.0957l-33.7324 33.7432c-4.125 4.125 -4.125 10.8105 0 14.9355l64.2227 64.2334h-278.037c-5.83105 0 -10.5635 4.73242 -10.5635 10.5625v52.3496
c0 5.83105 4.73242 10.5635 10.5635 10.5635h278.021l-64.2217 64.2324c-4.125 4.125 -4.125 10.8115 0 14.9365l33.7324 33.7383c3.96094 3.96094 10.9746 3.96582 14.9355 0z"/>
            <glyph glyph-name="uniF1BF" unicode="&#xf1bf;"
                   d="M417.447 306.274c0.693359 -6.9541 0.923828 -13.9072 0.572266 -20.9502c-0.419922 -8.12402 -1.35352 -16.2422 -3.08008 -24.209c-4.25098 -19.8584 -12.3594 -38.0732 -24.2559 -54.6152c-4.07812 -5.66797 -68.6328 -95.4551 -74.7891 -154.987
c4.00977 -0.267578 7.18457 -3.56836 7.18457 -7.63574v-67.6094c0 -22.209 -18.0742 -40.2676 -40.2783 -40.2676h-53.6016c-22.21 0 -40.2734 18.0684 -40.2734 40.2676v67.6094c0 4.07715 3.1748 7.36816 7.18457 7.63574
c-6.15527 59.5381 -70.7051 149.319 -74.7881 154.992c-11.8975 16.542 -20.0107 34.7578 -24.2559 54.6162c-1.72168 7.96582 -2.66113 16.0898 -3.08105 24.208c-0.362305 7.04297 -0.130859 13.9971 0.566406 20.9502c6.75488 97.7949 84.0566 141.658 161.343 141.721
h0.105469h0.104492c77.2812 -0.0625 154.589 -43.9258 161.343 -141.726zM372.311 284.731c0.241211 4.63867 0.109375 9.3623 -0.399414 14.4268l-0.046875 0.424805l-0.015625 0.424805c-5.11133 73.791 -63.1543 100.136 -115.78 100.178h-0.0683594
c-52.6943 -0.0419922 -110.737 -26.3867 -115.838 -100.178l-0.0205078 -0.424805l-0.0478516 -0.424805c-0.508789 -5.05957 -0.645508 -9.78223 -0.398438 -14.4375c0.320312 -6.31348 1.02344 -11.9072 2.14062 -17.082
c2.95996 -13.8232 8.66992 -26.6699 16.9775 -38.2314c14.29 -19.8369 56.0166 -80.96 68.3652 -133.702h57.6533c12.3379 52.7373 54.0693 113.865 68.3652 133.713c8.29688 11.5449 14.001 24.3867 16.9561 38.1572c1.12793 5.2168 1.82617 10.8057 2.15723 17.1562z"/>
            <glyph glyph-name="uniF111" unicode="&#xf111;"
                   d="M501.344 385.926c5.8877 0 10.6562 -4.77344 10.6562 -10.6562v-298.492c0 -5.88281 -4.77441 -10.6562 -10.6562 -10.6562h-307.609v-57.3906c0 -3.79883 -2.03027 -7.32617 -5.32812 -9.22363c-1.65234 -0.958984 -3.49023 -1.43262 -5.32812 -1.43262
c-1.83887 0 -3.68164 0.473633 -5.32812 1.43262l-172.422 99.5693c-3.29785 1.89648 -5.32812 5.42383 -5.32812 9.22266c0 3.80469 2.03027 7.32617 5.32812 9.22852l172.422 99.5684c3.29297 1.8916 7.3584 1.90234 10.6562 0s5.32812 -5.41895 5.32812 -9.22852
v-57.3848h233.904v224.787c0 5.88281 4.77344 10.6562 10.6562 10.6562h63.0488z"/>
            <glyph glyph-name="uniF108" unicode="&#xf108;"
                   d="M223.922 104.172c4.03516 0 7.71484 -2.32227 9.45508 -5.95996c1.74023 -3.64258 1.2373 -7.95117 -1.28906 -11.0967l-94.7471 -141.287c-1.99219 -2.47949 -4.99512 -3.91016 -8.16699 -3.91016c-3.1709 0 -6.1748 1.43066 -8.16602 3.91016l-94.7471 141.287
c-2.52637 3.14551 -3.03027 7.4541 -1.29004 11.0967c1.74023 3.6377 5.41992 5.95996 9.45605 5.95996h41.9902v333.345c0 5.79199 4.69727 10.4834 10.4834 10.4834h84.5469c5.78711 0 10.4834 -4.69141 10.4834 -10.4834v-333.345h41.9912zM487.459 241.927
c1.12695 -3.20312 0.633789 -6.75684 -1.33691 -9.54004c-1.96582 -2.77832 -5.16309 -4.42383 -8.55957 -4.42383h-30.249c-4.6123 0 -8.68555 3.00879 -10.0273 7.42188l-13.293 43.6309h-75.5781l-13.2881 -43.6309
c-1.34668 -4.41309 -5.41406 -7.42188 -10.0273 -7.42188h-30.2646c-3.40723 0 -6.58887 1.65039 -8.55371 4.42383c-1.96582 2.77246 -2.46387 6.32617 -1.33691 9.5293l69.5869 197.996c1.4834 4.19824 5.44141 7.00293 9.89648 7.00293h19.709
c0.56543 0 1.12109 -0.0371094 1.66602 -0.130859c0.545898 0.0888672 1.10645 0.130859 1.66211 0.130859h20.2373c4.44531 0 8.4082 -2.80469 9.88574 -6.99219zM360.958 320.718h51.0947l-25.8301 84.0811c-4.19336 -15.0693 -12.7002 -43.3535 -25.2646 -84.0811z
M457.356 -22.8955c5.79688 0 10.4834 -4.68555 10.4932 -10.4834v-20.1377c0 -5.79199 -4.69629 -10.4834 -10.4824 -10.4834h-142.231c-5.78711 0 -10.4834 4.69141 -10.4834 10.4834v18.0361c0 2.1543 0.655273 4.24023 1.88184 6.00195l99.3496 142.445h-87.9648
c-5.78613 0 -10.4834 4.69141 -10.4834 10.4834v20.1484c0 5.78711 4.69727 10.4834 10.4834 10.4834h136.648c5.78711 0 10.4834 -4.69629 10.4834 -10.4834v-17.9053c0 -2.14355 -0.655273 -4.22949 -1.87109 -5.99121l-99.2129 -142.598h93.3896z"/>
            <glyph glyph-name="uniF233" unicode="&#xf233;"
                   d="M499.697 7.69238c16.3984 -16.4043 16.4043 -42.9854 -0.00585938 -59.3896c-16.3936 -16.3936 -42.9902 -16.3887 -59.3838 0.00585938l-169.269 169.258c-10.042 10.0518 -13.9131 23.9131 -11.6465 36.9248c-63.6475 -47.1172 -154.157 -41.8652 -211.806 15.7891
c-63.4492 63.4443 -63.4492 166.679 0 230.128c63.4482 63.4492 166.688 63.4492 230.143 -0.00488281c57.6494 -57.6494 62.9023 -148.154 15.7744 -211.812c13.0117 2.27734 26.8779 -1.58887 36.9346 -11.6465zM237.637 210.358
c41.3486 41.3486 41.3486 108.628 0 149.956c-41.3389 41.3496 -108.607 41.3496 -149.951 0c-41.3545 -41.333 -41.3545 -108.607 0 -149.956c41.3389 -41.3438 108.607 -41.3496 149.951 0z"/>
            <glyph glyph-name="uniF127" unicode="&#xf127;"
                   d="M429.561 211.269c0 -104.409 103.573 -190.496 -115.034 -202.634c0.914062 -4.13574 1.39258 -8.40234 1.39258 -12.7158c0 -33.0361 -26.873 -59.9141 -59.9189 -59.9141c-33.041 0 -59.918 26.8779 -59.918 59.9141c0 4.31348 0.477539 8.58008 1.3916 12.7158
c-218.607 12.1377 -115.034 98.2246 -115.034 202.634c0 103.868 65.9932 189.55 151.344 202.382v12.1328c0 12.2695 9.94727 22.2168 22.2168 22.2168s22.2168 -9.94727 22.2168 -22.2168v-12.1328c85.3506 -12.8369 151.344 -98.5137 151.344 -202.382z"/>
            <glyph glyph-name="uniF249" unicode="&#xf249;"
                   d="M512 -31.3193c0 -18.04 -14.6406 -32.6807 -32.6807 -32.6807h-446.639c-18.0508 0 -32.6807 14.6406 -32.6807 32.6807v446.639c0 18.0449 14.6299 32.6807 32.6807 32.6807h446.639c18.04 0 32.6807 -14.6357 32.6807 -32.6807v-446.639z"/>
            <glyph glyph-name="uniF14E" unicode="&#xf14e;"
                   d="M293.325 221.352c-0.214844 -0.290039 -0.44043 -0.568359 -0.681641 -0.832031v-246.832h52.6416c6.35742 0 11.5068 -5.14844 11.5068 -11.5117v-14.6797c0 -6.35742 -5.14941 -11.502 -11.5068 -11.502h-178.565c-6.35742 0 -11.5059 5.14453 -11.5059 11.502v14.6797
c0 6.36328 5.14844 11.5117 11.5059 11.5117h52.6426v246.832c-0.236328 0.268555 -0.461914 0.541992 -0.671875 0.832031l-153.243 208.328c-2.57715 3.50098 -2.96387 8.13477 -1.00391 12.0059c1.95996 3.88184 5.92285 6.31445 10.2666 6.31445h362.585
c4.33887 0 8.30664 -2.43262 10.2666 -6.31445c1.95508 -3.86621 1.57324 -8.50488 -0.998047 -12.0059z"/>
            <glyph glyph-name="uniF235" unicode="&#xf235;"
                   d="M490.123 302.77c7.23633 -72.0107 -76.9873 -229.554 -151.536 -311.969c-32.8867 -36.3662 -60.6758 -54.8008 -82.584 -54.8008c-21.9092 0 -49.6982 18.4346 -82.584 54.8008c-74.5596 82.415 -158.783 239.958 -151.547 311.969
c0.620117 6.16406 5.81738 10.8682 12.0234 10.8682c83.9453 0 212.201 129.596 213.483 130.894c2.27539 2.30762 5.44922 3.46875 8.62402 3.46875c3.17383 0 6.34277 -1.15039 8.6123 -3.46875c1.28809 -1.30273 129.618 -130.894 213.484 -130.894
c6.20605 0 11.4033 -4.69824 12.0234 -10.8682zM255.997 -9.96191v193.914c0 4.35059 -3.53125 7.88184 -7.88281 7.88184h-141.877c-2.71191 0 -5.23438 -1.38672 -6.67383 -3.68359c-1.44043 -2.28613 -1.6084 -5.16602 -0.430664 -7.60352
c29.0127 -60.3711 68.4424 -120.853 105.459 -161.773c18.5449 -20.5107 31.625 -30.5801 39.335 -35.4141c1.27637 -0.804688 2.73242 -1.2041 4.1875 -1.2041c1.31445 0 2.62793 0.331055 3.81543 0.983398c2.50684 1.38672 4.06738 4.02539 4.06738 6.89941z
M445.396 267.624c0.904297 4.10938 -1.57129 8.19727 -5.63281 9.30078c-61.5479 16.6699 -126.774 66.5508 -170.655 105.455c-2.32715 2.05957 -5.63867 2.56445 -8.45996 1.29199c-2.82715 -1.27148 -4.65137 -4.08301 -4.65137 -7.18848v-176.756
c0 -4.35156 3.53223 -7.88281 7.88281 -7.88281h149.214c3.10547 0 5.92188 1.82422 7.18848 4.65625c12.1504 27.0693 20.8418 51.668 25.1143 71.123z"/>
            <glyph glyph-name="uniF230" unicode="&#xf230;"
                   d="M500.494 448c6.35352 0 11.5059 -5.15234 11.5059 -11.5059v-488.988c0 -6.35352 -5.15234 -11.5059 -11.5059 -11.5059h-488.988c-6.35352 0 -11.5059 5.15234 -11.5059 11.5059v488.988c0 6.35352 5.15234 11.5059 11.5059 11.5059h488.988zM120.944 9.80859
c26.042 0 47.1523 21.1104 47.1523 47.1416c0 26.0361 -21.1104 47.1465 -47.1523 47.1465c-26.0361 0 -47.1465 -21.1104 -47.1465 -47.1465c0 -26.0371 21.1104 -47.1416 47.1465 -47.1416zM301.456 11.0303c0.700195 0.71582 1.08301 1.6748 1.07715 2.6709
c-0.974609 59.5244 -24.7764 115.56 -67.0186 157.791c-42.2373 42.2373 -98.2734 66.0342 -157.792 67.0137c-0.958984 0.0273438 -1.95996 -0.365234 -2.67578 -1.07129c-0.716797 -0.699219 -1.11523 -1.6582 -1.11523 -2.65918v-67.918
c0 -2.03027 1.62109 -3.67773 3.64551 -3.73145c81.9434 -1.91699 147.648 -67.6113 149.565 -149.56c0.0478516 -2.03027 1.70117 -3.65039 3.72559 -3.65039h67.9287c0.990234 0 1.94336 0.40332 2.65918 1.11426zM437.126 11.0195
c0.694336 0.71582 1.09863 1.66895 1.07617 2.66504c-0.979492 95.7041 -38.9092 185.799 -106.812 253.695c-67.8906 67.8916 -157.996 105.827 -253.7 106.807c-1.11523 0.0703125 -1.95508 -0.381836 -2.6543 -1.07715
c-0.716797 -0.705078 -1.10938 -1.6582 -1.10938 -2.6543v-67.918c0 -2.04004 1.6416 -3.7041 3.68262 -3.72559c155.326 -1.94336 283.274 -129.887 285.219 -285.213c0.0263672 -2.04102 1.69043 -3.68262 3.73047 -3.68262h67.9072
c0.996094 0 1.95508 0.398438 2.66016 1.10352z"/>
            <glyph glyph-name="uniF10B" unicode="&#xf10b;"
                   d="M461.105 278.239c6.02344 0 10.8936 -4.87988 10.8984 -10.8936v-310.468c0 -6.01367 -4.87988 -10.8936 -10.8936 -10.8936h-410.216c-6.0127 0 -10.8936 4.87988 -10.8936 10.8936v310.468c0 6.01367 4.88086 10.8936 10.8936 10.8936h410.211zM325.904 162.043
v35.4043c0 4.51465 -3.66016 8.16992 -8.16992 8.16992h-123.469c-4.50977 0 -8.16992 -3.65527 -8.16992 -8.16992v-35.4043c0 -4.51562 3.66016 -8.1709 8.16992 -8.1709h123.469c4.50977 0 8.16992 3.65527 8.16992 8.1709zM501.106 438.016
c6.0127 0 10.8936 -4.87988 10.8936 -10.8936v-103.489c0 -6.0127 -4.88086 -10.8936 -10.8936 -10.8936h-490.213c-6.01367 0 -10.8936 4.88086 -10.8936 10.8936v103.489c0 6.01367 4.87988 10.8936 10.8936 10.8936h490.213z"/>
            <glyph glyph-name="uniF1A4" unicode="&#xf1a4;"
                   d="M482.462 123.733c5.79688 0 10.502 -4.70508 10.502 -10.5029v-166.728c0 -5.79785 -4.70508 -10.5029 -10.502 -10.5029h-452.924c-5.79688 0 -10.502 4.70508 -10.502 10.5029v166.728c0 5.79785 4.70508 10.5029 10.502 10.5029h88.5791
c2.7832 0 5.45605 -1.1084 7.4248 -3.07715l101.996 -101.99c7.60352 -7.58301 17.7178 -11.7637 28.4619 -11.7637c10.7656 0 20.8945 4.19629 28.5039 11.8057l101.954 101.948c1.96875 1.96875 4.6416 3.07715 7.4248 3.07715h88.5791zM248.574 45.9092l-138.434 138.424
c-1.96973 1.96973 -3.07715 4.64258 -3.07715 7.42578s1.10742 5.45605 3.07715 7.4248l34.6475 34.6484c4.09668 4.10059 10.75 4.10059 14.8506 0l59.1406 -59.1348v262.8c0 5.79785 4.70508 10.5029 10.502 10.5029h53.4375c5.79688 0 10.502 -4.70508 10.502 -10.5029
v-262.8l59.1348 59.1348c1.96973 1.96875 4.63672 3.07715 7.42578 3.07715c2.77734 0 5.45117 -1.1084 7.41992 -3.07715l34.6426 -34.6484c4.10156 -4.10156 4.10156 -10.7549 0 -14.8506l-138.418 -138.424c-1.96973 -1.96875 -4.64258 -3.08203 -7.42578 -3.08203
s-5.45605 1.11328 -7.42578 3.08203z"/>
            <glyph glyph-name="uniF1B4" unicode="&#xf1b4;"
                   d="M93.2461 298.532c-4.43262 0 -8.02051 3.58789 -8.02051 8.02051v30.1807c0 4.43262 3.58789 8.02051 8.02051 8.02051h84.2207c4.43262 0 8.02051 -3.58789 8.02051 -8.02051v-30.1807c0 -4.43262 -3.58789 -8.02051 -8.02051 -8.02051h-84.2207zM232.945 298.532
c-4.43359 0 -8.02148 3.58789 -8.02148 8.02051v30.1807c0 4.43262 3.58789 8.02051 8.02148 8.02051h185.819c4.4375 0 8.02051 -3.58789 8.02051 -8.02051v-30.1807c0 -4.43262 -3.58301 -8.02051 -8.02051 -8.02051h-185.819zM498.391 448
c7.51367 0 13.6152 -6.0957 13.6094 -13.6143v-484.771c0 -7.51855 -6.0957 -13.6143 -13.6143 -13.6143h-484.771c-7.51855 0 -13.6143 6.0957 -13.6143 13.6143v484.771c0 7.51855 6.0957 13.6143 13.6143 13.6143h484.776zM50.9229 382.346v-121.657
c0 -6.56641 5.3252 -11.8867 11.8916 -11.8867h386.376c6.56641 0 11.8926 5.32031 11.8926 11.8867v121.657c0 6.56641 -5.32617 11.8867 -11.8926 11.8867h-386.376c-6.56641 0 -11.8916 -5.32031 -11.8916 -11.8867zM112.631 34.252v30.1855
c0 4.42676 -3.58887 8.02051 -8.02148 8.02051h-46.7891c-4.43262 0 -8.02051 -3.59375 -8.02051 -8.02051v-30.1855c0 -4.43359 3.58789 -8.02148 8.02051 -8.02148h46.7891c4.43262 0 8.02148 3.58789 8.02148 8.02148zM112.631 141.198v30.1855
c0 4.42676 -3.58887 8.02051 -8.02148 8.02051h-46.7891c-4.43262 0 -8.02051 -3.59375 -8.02051 -8.02051v-30.1855c0 -4.43359 3.58789 -8.02148 8.02051 -8.02148h46.7891c4.43262 0 8.02148 3.58789 8.02148 8.02148zM295.107 34.252v30.1855
c0 4.42676 -3.58203 8.02051 -8.02051 8.02051h-126.999c-4.43262 0 -8.02051 -3.59375 -8.02051 -8.02051v-30.1855c0 -4.43359 3.58789 -8.02148 8.02051 -8.02148h126.999c4.43848 0 8.02051 3.58789 8.02051 8.02148zM295.107 141.198v30.1855
c0 4.42676 -3.58203 8.02051 -8.02051 8.02051h-126.999c-4.43262 0 -8.02051 -3.59375 -8.02051 -8.02051v-30.1855c0 -4.43359 3.58789 -8.02148 8.02051 -8.02148h126.999c4.43848 0 8.02051 3.58789 8.02051 8.02148zM462.211 34.252v137.132
c0 4.42676 -3.58203 8.02051 -8.02051 8.02051h-110.957c-4.42773 0 -8.02051 -3.59375 -8.02051 -8.02051v-137.132c0 -4.43359 3.59277 -8.02148 8.02051 -8.02148h110.957c4.43848 0 8.02051 3.58789 8.02051 8.02148z"/>
            <glyph glyph-name="uniF180" unicode="&#xf180;"
                   d="M434.428 358.251c2.4668 -2.47168 3.86035 -5.82129 3.86035 -9.33398v-399.717c0 -7.29688 -5.90234 -13.2002 -13.1885 -13.2002h-338.193c-7.29688 0 -13.2002 5.9082 -13.2002 13.2002v485.6c0 7.29199 5.90332 13.2002 13.2002 13.2002h252.305
c3.50195 0 6.8623 -1.38867 9.3291 -3.86133zM396.063 -21.7637v0l-0.00585938 352.983h-68.0693c-1.77539 0 -3.48047 0.702148 -4.73242 1.9541c-1.25293 1.26367 -1.96582 2.96875 -1.96582 4.74316l-0.0986328 67.8525h-205.26v-427.533h280.132z"/>
            <glyph glyph-name="uniF282" unicode="&#xf282;"
                   d="M256 448c141.393 0 256 -114.607 256 -256c0 -141.382 -114.607 -256 -256 -256c-141.387 0 -256 114.618 -256 256c0 141.393 114.613 256 256 256zM299.427 16.9795v66.3242c0 4.17871 -3.38672 7.56445 -7.56445 7.56445h-71.7188
c-4.17285 0 -7.55957 -3.38574 -7.55957 -7.56445v-66.3242c0 -4.17285 3.38672 -7.55859 7.55957 -7.55859h71.7188c4.17773 0 7.56445 3.38574 7.56445 7.55859zM299.572 136.934l6.33105 229.877c0.0537109 2.04004 -0.709961 4.02148 -2.1377 5.48047
c-1.42578 1.46973 -3.375 2.29395 -5.4209 2.29395h-84.7002c-2.0459 0 -3.99512 -0.829102 -5.42188 -2.29395c-1.4209 -1.46387 -2.19629 -3.44043 -2.13672 -5.48047l6.35254 -229.888c0.108398 -4.0918 3.46191 -7.34375 7.55957 -7.34375h72.0205
c4.08594 0 7.44043 3.25195 7.55371 7.35449z"/>
            <glyph glyph-name="uniF115" unicode="&#xf115;"
                   d="M37.4141 264.227c-5.92188 0 -10.7178 4.7959 -10.7178 10.7168v52.1553c0 5.91602 4.80176 10.7178 10.7178 10.7178h315.735l-58.2168 58.2314c-4.18457 4.18555 -4.18457 10.9697 0 15.1543l33.7754 33.7861c4.01953 4.01953 11.1357 4.01953 15.1543 0
l136.394 -136.403c4.17969 -4.18555 4.17969 -10.9697 0 -15.1543l-136.383 -136.382c-2.10059 -2.0957 -4.83301 -3.14062 -7.57715 -3.14062c-2.74316 0 -5.48145 1.04492 -7.57715 3.14062l-33.7969 33.7803c-2.00879 2.00977 -3.13965 4.7373 -3.13965 7.57715
s1.13086 5.56738 3.13965 7.57715l58.2324 58.2432h-315.74zM474.581 119.897c5.92676 0 10.7168 -4.80176 10.7227 -10.7227v-52.1553c0 -5.91602 -4.80176 -10.7178 -10.7178 -10.7178h-315.74l58.2266 -58.2324c2.00977 -2.00879 3.14062 -4.73145 3.14062 -7.57129
s-1.13086 -5.56738 -3.14062 -7.57715l-33.791 -33.7803c-2.0957 -2.0957 -4.83398 -3.14062 -7.57715 -3.14062c-2.74414 0 -5.48242 1.04492 -7.57715 3.14062l-136.383 136.382c-4.18457 4.17969 -4.18457 10.9688 0 15.1484l136.388 136.398
c2.00977 2.00977 4.7373 3.14062 7.57715 3.14062s5.56738 -1.13086 7.57715 -3.14062l33.7812 -33.7861c4.18457 -4.18457 4.18457 -10.9746 0 -15.1543l-58.2217 -58.2314h315.735z"/>
            <glyph glyph-name="uniF120" unicode="&#xf120;"
                   d="M400.334 445.013c3.67969 2.92871 9.1582 3.78613 13.9668 2.2041c0.920898 -0.302734 1.69336 -0.665039 2.26855 -0.979492c3.47168 -1.85254 5.62793 -5.46289 5.62793 -9.38184v-489.689c0 -3.94043 -2.16699 -7.5293 -5.62793 -9.39844
c-0.564453 -0.303711 -1.33105 -0.665039 -2.32227 -0.990234c-4.75488 -1.57031 -10.2285 -0.708008 -13.8975 2.2041l-306.75 244.701c-5.06445 4.04199 -5.06445 12.5986 0 16.6455z"/>
            <glyph glyph-name="uniF24E" unicode="&#xf24e;"
                   d="M501.389 441.378c5.86816 0 10.6113 -4.75391 10.6113 -10.6113v-139.572h-512v139.572c0 5.85742 4.75391 10.6113 10.6123 10.6113h490.776zM0 92.8057h512v-139.572c0 -5.85742 -4.75391 -10.6113 -10.6113 -10.6113h-490.776
c-5.8584 0 -10.6123 4.75391 -10.6123 10.6113v139.572zM10.6123 166.839c-5.86328 0 -10.6123 4.74414 -10.6123 10.6123v34.6582c0 5.85742 4.75391 10.6123 10.6123 10.6123h96.1318c5.8584 0 10.6123 -4.75488 10.6123 -10.6123v-34.6582
c0 -5.85742 -4.75391 -10.6123 -10.6123 -10.6123h-96.1318zM501.389 222.722c5.86816 0 10.6113 -4.74902 10.6113 -10.6123v-34.6582c0 -5.85742 -4.75391 -10.6123 -10.6113 -10.6123h-85.4629c-5.85742 0 -10.6123 4.75488 -10.6123 10.6123v34.6582
c0 5.85742 4.75488 10.6123 10.6123 10.6123h85.4629zM309.394 166.839h-96.127c-5.8584 0 -10.6123 4.75488 -10.6123 10.6123v34.6582c0 5.85742 4.75391 10.6123 10.6123 10.6123h96.127c5.85742 0 10.6113 -4.75488 10.6113 -10.6123v-34.6582
c0 -5.85742 -4.75391 -10.6123 -10.6113 -10.6123z"/>
            <glyph glyph-name="uniF280" unicode="&#xf280;"
                   d="M501.401 416.855c5.85547 0 10.5986 -4.74316 10.5938 -10.5996v-428.502c0 -5.85059 -4.74902 -10.5986 -10.5996 -10.5986h-490.797c-5.85059 0 -10.5986 4.74805 -10.5986 10.5986v428.502c0 5.85059 4.74805 10.5996 10.5986 10.5996h490.803zM156.063 69.2969
v149.958c0 4.39355 -3.56152 7.94922 -7.94922 7.94922h-46.6826c-4.38867 0 -7.94922 -3.55566 -7.94922 -7.94922v-149.958c0 -4.39355 3.56055 -7.94922 7.94922 -7.94922h46.6826c4.3877 0 7.94922 3.55566 7.94922 7.94922zM243.546 69.2969v214.256
c0 4.39355 -3.56055 7.94922 -7.94824 7.94922h-46.6836c-4.3877 0 -7.94922 -3.55566 -7.94922 -7.94922v-214.256c0 -4.39355 3.56152 -7.94922 7.94922 -7.94922h46.6836c4.3877 0 7.94824 3.55566 7.94824 7.94922zM331.029 69.2969l0.0107422 -0.00585938v149.964
c0 4.39355 -3.56641 7.94922 -7.94922 7.94922h-46.6885c-4.3877 0 -7.94824 -3.55566 -7.94824 -7.94922v-149.958c0 -4.39355 3.56055 -7.94922 7.94824 -7.94922h46.6777c4.3877 0 7.94922 3.55566 7.94922 7.94922zM418.523 69.2969v237.743
c0 4.39355 -3.56152 7.94922 -7.94922 7.94922h-46.6885c-4.3877 0 -7.94922 -3.55566 -7.94922 -7.94922v-237.743c0 -4.39355 3.56152 -7.94922 7.94922 -7.94922h46.6885c4.3877 0 7.94922 3.55566 7.94922 7.94922z"/>
            <glyph glyph-name="uniF177" unicode="&#xf177;"
                   d="M256 283.427c25.2764 0 45.8203 -20.5557 45.8203 -45.8203c0 -25.2656 -20.5605 -45.8213 -45.8203 -45.8213c-25.2656 0 -45.8213 20.5557 -45.8213 45.8213c0 25.2646 20.5508 45.8203 45.8213 45.8203zM497.736 389.38c7.86426 0 14.2637 -6.39941 14.2637 -14.2627
v-275.027c0 -7.86914 -6.39941 -14.2627 -14.2637 -14.2627h-483.473c-7.86426 0 -14.2637 6.39355 -14.2637 14.2627v275.027c0 7.86328 6.39941 14.2627 14.2637 14.2627h483.473zM410.906 230.386c3.70215 4.09863 3.70215 10.3369 0 14.4297
c-2.81543 3.11719 -69.9648 76.2842 -154.901 76.2842c-84.9414 0 -152.085 -73.167 -154.901 -76.2783c-3.70117 -4.09863 -3.70117 -10.332 0 -14.4297c2.81641 -3.11719 69.96 -76.2842 154.901 -76.2842c84.9365 0 152.086 73.167 154.901 76.2783zM345.432 50.3486
c7.4082 0 13.4102 -6.00293 13.4102 -13.4111v-28.9072c0 -7.4082 -6.00195 -13.4102 -13.4102 -13.4102h-178.863c-7.4082 0 -13.4102 6.00195 -13.4102 13.4102v28.9072c0 7.4082 6.00195 13.4111 13.4102 13.4111h28.6982v15.4971h121.461v-15.4971h28.7041z"/>
            <glyph glyph-name="uniF23A" unicode="&#xf23a;"
                   d="M392.537 252.189v0l-104.535 0.0107422l-110.05 -192.587c-1.90625 -3.33594 -5.4502 -5.39746 -9.29492 -5.39746h-157.948c-5.91113 0 -10.709 4.79785 -10.709 10.709v56.2139c0 5.91113 4.79785 10.709 10.709 10.709h119.11l110.055 192.582
c1.90625 3.33594 5.45117 5.40332 9.2959 5.40332h143.361v33.8145c0 4.04297 2.28125 7.74316 5.89062 9.56348c3.6084 1.82031 7.94043 1.44531 11.1914 -0.963867l98.0547 -72.6475c2.73047 -2.0127 4.34277 -5.2041 4.34277 -8.59375
s-1.6123 -6.58691 -4.34277 -8.60547l-98.0498 -72.6357c-3.25586 -2.41016 -7.57715 -2.7793 -11.1914 -0.958984c-3.60938 1.82031 -5.88965 5.51562 -5.88965 9.56348v33.8203zM507.663 101.594c2.72559 -2.01855 4.33691 -5.2207 4.33691 -8.60449
c0 -3.38477 -1.61719 -6.57617 -4.33691 -8.59473l-98.0557 -72.6367c-3.25 -2.41504 -7.58203 -2.78906 -11.1914 -0.963867c-3.61426 1.82129 -5.89551 5.51562 -5.89551 9.55859v33.8203h-143.355c-3.83984 0 -7.38965 2.06152 -9.2959 5.39746l-21.7188 38.0127
l44.7061 78.2373l25.1455 -44.0049h104.529v33.8203c0 4.04883 2.28125 7.73828 5.89062 9.55859c3.6084 1.82617 7.94043 1.44531 11.1914 -0.958984zM10.709 252.142c-5.91699 0 -10.709 4.80273 -10.709 10.709v56.2139c0 5.91113 4.79785 10.709 10.709 10.709h157.948
c3.83887 0 7.38867 -2.06152 9.2959 -5.39746l21.6963 -37.9648l-44.7061 -78.2314l-25.124 43.9619h-119.11z"/>
            <glyph glyph-name="uniF247" unicode="&#xf247;"
                   d="M335.343 312.759c0 -56.6006 -26.9668 -90.5078 -62.876 -98.3145c6.17285 -53.3281 10.1328 -127.889 10.1328 -182.872c0 -95.3555 -11.9072 -95.5664 -26.5996 -95.5664s-26.5996 0.210938 -26.5996 95.5664c0 54.9834 3.95996 129.55 10.1328 182.872
c-35.915 7.80664 -62.876 41.7139 -62.876 98.3145c0 64.9805 35.5195 135.241 79.3428 135.241s79.3428 -70.2607 79.3428 -135.241z"/>
            <glyph glyph-name="uniF1FD" unicode="&#xf1fd;"
                   d="M167.22 355.855c-5.94336 0 -10.7764 4.82715 -10.7764 10.7812v70.4736c0 5.94824 4.82812 10.7764 10.7764 10.7764h194.856c5.94922 0 10.7764 -4.82812 10.7764 -10.7764v-70.4785c0 -5.94922 -4.82715 -10.7764 -10.7764 -10.7764h-194.856zM493.572 307.937
c5.9541 0 10.7764 -4.82715 10.7764 -10.7764v-70.4727c0 -5.94922 -4.82227 -10.7773 -10.7764 -10.7773h-326.353c-5.94824 0 -10.7764 4.82812 -10.7764 10.7773v70.4727c0 5.94922 4.82812 10.7764 10.7764 10.7764h326.353zM167.22 75.9443
c-5.94336 0 -10.7764 4.82227 -10.7764 10.7764v70.4736c0 5.94824 4.82812 10.7764 10.7764 10.7764h194.856c5.94922 0 10.7764 -4.82812 10.7764 -10.7764v-70.4736c0 -5.94824 -4.82715 -10.7764 -10.7764 -10.7764h-194.856zM493.572 28.0215
c5.9541 0 10.7764 -4.82324 10.7764 -10.7773v-70.4678c0 -5.94824 -4.82227 -10.7764 -10.7764 -10.7764h-326.353c-5.94824 0 -10.7764 4.82812 -10.7764 10.7764v70.4678c0 5.94922 4.82812 10.7773 10.7764 10.7773h326.353zM126.927 291.557
c5.94336 0 10.7764 -4.82812 10.7764 -10.7871v-37.707c0 -5.94922 -4.82812 -10.7773 -10.7764 -10.7773h-60.1123v-7.96875c0 -4.35938 -2.62891 -8.28711 -6.64844 -9.95801c-1.33691 -0.549805 -2.7373 -0.818359 -4.12793 -0.818359
c-2.80762 0 -5.55566 1.09375 -7.61914 3.15723l-37.6045 37.6045c-4.20801 4.20801 -4.20801 11.0303 0 15.2383l37.6045 37.6045c3.08789 3.09277 7.70508 4.00879 11.7471 2.33887c4.01953 -1.66992 6.64844 -5.59863 6.64844 -9.95801v-7.96875h60.1123z
M19.1934 410.282c-5.95996 0 -10.7773 4.82812 -10.7773 10.7764v16.165c0 5.94824 4.82324 10.7764 10.7773 10.7764h101.747c5.94824 0 10.7764 -4.82812 10.7764 -10.7764v-16.165c0 -5.94824 -4.82812 -10.7764 -10.7764 -10.7764h-101.747zM120.94 113.662
c5.94238 0 10.7764 -4.82715 10.7764 -10.7764v-16.165c0 -5.94824 -4.82812 -10.7764 -10.7764 -10.7764h-101.747c-5.9541 0 -10.7773 4.82812 -10.7773 10.7764v16.165c0 5.94922 4.82324 10.7764 10.7773 10.7764h101.747z"/>
            <glyph glyph-name="uniF137" unicode="&#xf137;"
                   d="M411.726 448c11.6299 0 21.0947 -9.46484 21.0947 -21.1006v-469.799c0 -11.6357 -9.46484 -21.1006 -21.0947 -21.1006h-311.451c-11.6299 0 -21.0947 9.46484 -21.0947 21.1006v469.799c0 11.6357 9.46484 21.1006 21.0947 21.1006h311.451zM121.375 405.805v-218.123
h269.25v218.123h-269.25zM178.7 -31.4316v33.8232h-57.9766v-33.8232h57.9766zM178.7 45.8691v33.8174h-57.9766v-33.8174h57.9766zM178.7 123.175v33.8174h-57.9766v-33.8174h57.9766zM249.561 -31.4316v33.8232h-57.9814v-33.8232h57.9814zM249.561 45.8691v33.8174
h-57.9814v-33.8174h57.9814zM249.561 123.175v33.8174h-57.9814v-33.8174h57.9814zM320.421 -31.4316v33.8232h-57.9814v-33.8232h57.9814zM320.421 45.8691v33.8174h-57.9814v-33.8174h57.9814zM320.421 123.175v33.8174h-57.9814v-33.8174h57.9814zM391.276 -31.4316
v33.8232h-57.9814v-33.8232h57.9814zM391.276 45.8691v33.8174h-57.9814v-33.8174h57.9814zM391.276 123.175v33.8174h-57.9814v-33.8174h57.9814zM141.043 383.503c0 3.78027 3.05273 6.83301 6.83301 6.83301h56.8828l-63.7158 -63.7217v56.8887z"/>
            <glyph glyph-name="uniF18B" unicode="&#xf18b;"
                   d="M501.521 292.76c5.78223 0 10.4834 -4.69629 10.4736 -10.4834v-289.775c0 -5.78711 -4.69727 -10.4834 -10.4834 -10.4834h-77.248c-0.503906 -0.0732422 -1.00684 -0.121094 -1.4209 -0.121094h-412.359c-5.78711 0 -10.4834 4.69727 -10.4834 10.4844v399.244
c0 5.78711 4.69629 10.4834 10.4834 10.4834h356.624c4.50781 0 8.5127 -2.87207 9.93848 -7.13965l18.0049 -53.502c0.708008 -1.41602 1.0957 -3.00391 1.0957 -4.69141c0 -5.78711 -4.69141 -10.4844 -10.4834 -10.4844h-0.104492h-309.747v-268.572h33.7783v224.558
c0 5.78711 4.69629 10.4834 10.4834 10.4834h381.448z"/>
            <glyph glyph-name="uniF10D" unicode="&#xf10d;"
                   d="M264.24 -60.0303c-1.99805 -2.50977 -5.04004 -3.96484 -8.24512 -3.96484c-3.20605 0 -6.24316 1.46094 -8.24121 3.9707l-73.8604 92.5928c-2.52539 3.16895 -3.01562 7.50781 -1.25488 11.1514c1.75586 3.6543 5.45117 5.97363 9.50098 5.97363h24.4268v284.624
h-24.4219c-4.04883 0 -7.74512 2.31934 -9.50098 5.96777c-1.76074 3.65918 -1.27051 7.98242 1.25488 11.1514l73.8662 92.5938c1.99805 2.50879 5.03516 3.96973 8.24023 3.96973c3.20605 0 6.2373 -1.46094 8.23535 -3.96973l73.8721 -92.5986
c2.51953 -3.16895 3.00977 -7.49805 1.25488 -11.1514c-1.75586 -3.64844 -5.45215 -5.96875 -9.50098 -5.96875h-24.417v-284.623h24.417c4.04883 0 7.74512 -2.3252 9.50098 -5.97363c1.76074 -3.64355 1.27051 -7.97754 -1.25488 -11.1514z"/>
            <glyph glyph-name="uniF147" unicode="&#xf147;"
                   d="M367.766 305.319c-17.2695 14.5039 -19.5371 40.334 -5.04395 57.6035c7.79004 9.28027 19.2119 14.6035 31.3418 14.6035c9.57422 0 18.8975 -3.39648 26.2461 -9.56445c17.2637 -14.498 19.5264 -40.334 5.03906 -57.5977
c-7.80078 -9.28027 -19.2227 -14.6035 -31.3584 -14.6035c-9.56348 0 -18.8857 3.3916 -26.2246 9.55859zM464.255 258.529c21.0322 0 38.9639 -15.0752 42.627 -35.8408c4.15234 -23.542 -11.6318 -46.0811 -35.1738 -50.2383
c-2.51465 -0.436523 -5.08594 -0.662109 -7.61621 -0.662109c-21.0381 0 -38.9639 15.0654 -42.6172 35.8252c-4.15234 23.5527 11.6367 46.0977 35.1787 50.249c2.50391 0.441406 5.06543 0.666992 7.60156 0.666992zM462.748 116.715
c21.8828 -12.6396 29.4102 -40.7383 16.7812 -62.6367c-8.16797 -14.1465 -23.4111 -22.9336 -39.7666 -22.9336c-7.98926 0 -15.8945 2.12598 -22.8711 6.16211c-10.5869 6.11523 -18.1826 16.0098 -21.3584 27.8418c-3.17578 11.8311 -1.53809 24.1768 4.57715 34.7754
c8.17285 14.1514 23.417 22.9434 39.7832 22.9434c7.97852 0 15.8838 -2.12109 22.8545 -6.15234zM332.351 35.1816c20.2402 0 38.502 -12.792 45.4199 -31.8203c4.39941 -12.1094 3.82129 -25.2324 -1.6377 -36.9375c-5.46387 -11.7217 -15.1328 -20.5928 -27.248 -25.0068
c-5.33789 -1.94727 -10.9023 -2.93457 -16.5186 -2.93457c-20.2402 0 -38.4971 12.792 -45.4258 31.8252c-4.40918 12.1309 -3.83691 25.2539 1.61719 36.9541c5.45898 11.7002 15.1328 20.5762 27.2578 24.9902c5.35449 1.94238 10.9189 2.92969 16.5352 2.92969z
M209.454 34.5986c12.7393 -4.64062 22.9121 -13.9785 28.6602 -26.3027c5.74219 -12.3096 6.35059 -26.1094 1.71094 -38.8438c-7.27539 -19.999 -26.4609 -33.4473 -47.751 -33.4473c-5.90527 0 -11.7578 1.0293 -17.3848 3.08105
c-12.7607 4.64551 -22.9385 13.9736 -28.6709 26.2773c-5.7373 12.2988 -6.34082 26.0986 -1.69043 38.8594c7.28125 20.0146 26.4717 33.4619 47.751 33.4619c5.88965 0 11.7373 -1.03906 17.375 -3.08594zM130.786 103.661
c14.6865 -25.458 5.93164 -58.1289 -19.5166 -72.8213c-8.10449 -4.6709 -17.2949 -7.14844 -26.5859 -7.14844c-19.0127 0 -36.7227 10.2139 -46.2236 26.665c-7.12305 12.3301 -9.0127 26.6963 -5.32227 40.4492c3.67969 13.7373 12.498 25.2432 24.833 32.3662
c8.11035 4.66602 17.3008 7.14355 26.5967 7.14355c19.0127 0 36.7178 -10.209 46.2188 -26.6543zM60.3379 159.348c-3.23828 0 -6.52441 0.289062 -9.7627 0.861328c-14.6768 2.58789 -27.4688 10.7393 -36.0146 22.9434c-8.55078 12.21 -11.8311 27.0117 -9.24805 41.6836
c4.71289 26.7227 27.793 46.1123 54.8682 46.1123c3.21777 0 6.50879 -0.288086 9.76367 -0.855469c14.6865 -2.59277 27.4736 -10.7393 36.0137 -22.9482c8.55078 -12.1943 11.8311 -26.9961 9.24902 -41.6777c-4.71387 -26.7236 -27.7939 -46.1191 -54.8691 -46.1191z
M130.435 278.355c-17.291 0 -33.5732 7.58984 -44.6855 20.8223c-10.0098 11.9316 -14.7715 27.0439 -13.4111 42.5391c1.35352 15.5059 8.6709 29.5576 20.5918 39.5625c10.4775 8.79199 23.7676 13.6318 37.4307 13.6318c17.291 0 33.5791 -7.58496 44.6758 -20.8125
c9.99414 -11.9053 14.749 -27.0117 13.3896 -42.5391c-1.35938 -15.5264 -8.66113 -29.5781 -20.5654 -39.5674c-10.4932 -8.79199 -23.7842 -13.6367 -37.4258 -13.6367zM198.83 384.612c0 42.2585 21.1292 63.3877 63.3877 63.3877
c42.2585 0 63.3877 -21.1292 63.3877 -63.3877s-21.1292 -63.3877 -63.3877 -63.3877c-42.2585 0 -63.3877 21.1292 -63.3877 63.3877z"/>
            <glyph glyph-name="uniF203" unicode="&#xf203;"
                   d="M391.664 448c11.6299 0 21.0957 -9.46484 21.1006 -21.1006v-469.799c0 -11.6357 -9.4707 -21.1006 -21.0947 -21.1006h-271.334c-11.6299 0 -21.0957 9.46484 -21.0957 21.1006v469.799c0 11.6357 9.46582 21.1006 21.0957 21.1006h271.328zM255.994 -33.5361
c14.543 0 26.3232 11.7803 26.3232 26.3232c0 14.542 -11.7852 26.3223 -26.3232 26.3223c-14.5371 0 -26.3223 -11.7803 -26.3223 -26.3223c0 -14.543 11.7852 -26.3232 26.3223 -26.3232zM370.559 45.002h0.0107422v360.803h-229.133v-360.803h229.122zM185.005 376.418v0
l114.914 -0.00585938l-128.703 -128.708v114.925c0 7.61914 6.17578 13.7891 13.7891 13.7891z"/>
            <glyph glyph-name="uniF1AA" unicode="&#xf1aa;"
                   d="M224.702 448c5.79785 0 10.5029 -4.70508 10.5029 -10.5029v-214.199c0 -5.79785 -4.70508 -10.5029 -10.5029 -10.5029h-214.199c-5.79785 0 -10.5029 4.70508 -10.5029 10.5029v214.199c0 5.79785 4.70508 10.5029 10.5029 10.5029h214.199zM74.3633 406.452
c-1.21777 -2.94629 -0.545898 -6.33301 1.70703 -8.58594l35.9609 -35.9609c1.53809 -1.53906 3.55469 -2.30566 5.57129 -2.30566s4.0332 0.766602 5.57129 2.30566l35.9658 35.9609c2.25293 2.25293 2.92578 5.63965 1.70703 8.58594
c-1.21777 2.94531 -4.09082 4.8623 -7.27832 4.8623h-71.9268c-3.1875 0 -6.05957 -1.91699 -7.27832 -4.8623zM44.5566 286.56c2.05371 0 4.07031 0.798828 5.57227 2.2998l35.9609 35.9668c1.47559 1.48047 2.30469 3.48145 2.30469 5.57129
s-0.829102 4.0957 -2.30469 5.57129l-35.9609 35.9609c-2.25293 2.25293 -5.63965 2.93066 -8.58594 1.70703s-4.8623 -4.0957 -4.8623 -7.27832v-71.9219c0 -3.1875 1.91602 -6.05957 4.8623 -7.27832c0.976562 -0.404297 2.00098 -0.598633 3.01367 -0.598633z
M160.836 254.343c1.22363 2.94629 0.546875 6.33301 -1.70117 8.58594l-35.9609 35.9668c-1.48047 1.47559 -3.48145 2.30469 -5.57129 2.30469s-4.0957 -0.829102 -5.57129 -2.30469l-35.9668 -35.9668c-2.25195 -2.25293 -2.9248 -5.63965 -1.70605 -8.58594
c1.21777 -2.94531 4.0957 -4.8623 7.27832 -4.8623h71.9209c3.1875 0 6.06055 1.91699 7.27832 4.8623zM198.515 294.437v71.9219c0 3.1875 -1.91699 6.05957 -4.86328 7.27832c-2.94531 1.22852 -6.33789 0.545898 -8.58594 -1.70703l-35.9609 -35.9609
c-3.07715 -3.07715 -3.07715 -8.06055 0 -11.1377l35.9609 -35.9658c1.50781 -1.50684 3.51855 -2.30566 5.57227 -2.30566c1.0127 0 2.03711 0.194336 3.01367 0.598633c2.94043 1.22363 4.86328 4.09668 4.86328 7.27832zM501.497 171.205
c5.79785 0 10.5029 -4.7002 10.5029 -10.5029v-214.199c0 -5.79785 -4.70508 -10.5029 -10.5029 -10.5029h-214.199c-5.79785 0 -10.5029 4.70508 -10.5029 10.5029v214.199c0 5.79785 4.70508 10.5029 10.5029 10.5029h214.199zM351.158 129.657
c-1.21777 -2.95215 -0.541016 -6.33301 1.69629 -8.58594l35.9658 -35.9668c1.48633 -1.47559 3.4873 -2.30469 5.57715 -2.30469s4.0957 0.829102 5.57129 2.30469l35.9717 35.9668c2.24707 2.25195 2.9248 5.63379 1.70117 8.58594
c-1.22363 2.95117 -4.0957 4.86719 -7.27832 4.86719h-71.9268c-3.1875 0 -6.05957 -1.91602 -7.27832 -4.86719zM321.353 9.76465c2.05273 0 4.07422 0.797852 5.57617 2.29004l35.9668 35.9658c1.47559 1.48633 2.2998 3.48633 2.2998 5.57715
c0 2.08984 -0.824219 4.0957 -2.2998 5.57129l-35.9668 35.9707c-2.24707 2.24805 -5.63379 2.92578 -8.58594 1.70215c-2.95117 -1.22363 -4.86719 -4.09668 -4.86719 -7.27832v-71.9219c0 -3.19238 1.91602 -6.06543 4.86719 -7.27832
c0.977539 -0.404297 2.00098 -0.598633 3.00977 -0.598633zM437.631 -22.4521c1.21875 2.94629 0.541016 6.33301 -1.70117 8.58594l-35.9658 35.9609c-3.07715 3.07715 -8.06055 3.07715 -11.1377 0l-35.9668 -35.9609
c-2.25195 -2.25293 -2.9248 -5.63965 -1.70605 -8.58594c1.21777 -2.94531 4.09082 -4.8623 7.27832 -4.8623h71.9219c3.1875 0 6.05957 1.91699 7.27734 4.8623zM475.314 17.6416v71.9316c0 3.19336 -1.91699 6.06543 -4.8623 7.27832
c-2.9668 1.23438 -6.33887 0.551758 -8.58594 -1.70605l-35.9609 -35.9658c-1.47559 -1.48633 -2.30566 -3.4873 -2.30566 -5.57715s0.830078 -4.0957 2.30566 -5.57129l35.9609 -35.9609c1.51172 -1.50781 3.51855 -2.30566 5.57129 -2.30566
c1.01367 0 2.03809 0.194336 3.01465 0.598633c2.94531 1.22852 4.8623 4.10156 4.8623 7.27832zM224.702 171.205c5.79785 0 10.5029 -4.7002 10.5029 -10.5029v-214.199c0 -5.79785 -4.70508 -10.5029 -10.5029 -10.5029h-214.199
c-5.79785 0 -10.5029 4.70508 -10.5029 10.5029v214.199c0 5.79785 4.70508 10.5029 10.5029 10.5029h214.199zM198.52 -19.4375v0l-0.00488281 146.085c0 4.34277 -3.52441 7.87695 -7.87695 7.87695h-146.075c-4.35352 0 -7.87695 -3.53418 -7.87695 -7.87695v-146.085
c0 -4.34863 3.52344 -7.87695 7.87695 -7.87695h146.08c4.35352 0 7.87695 3.52832 7.87695 7.87695zM501.497 448c5.79785 0 10.5029 -4.70508 10.5029 -10.5029v-214.199c0 -5.79785 -4.70508 -10.5029 -10.5029 -10.5029h-214.199
c-5.79785 0 -10.5029 4.70508 -10.5029 10.5029v214.199c0 5.79785 4.70508 10.5029 10.5029 10.5029h214.199zM475.314 257.357l-0.00488281 146.08c0 4.34863 -3.52344 7.87695 -7.87695 7.87695h-146.07c-4.35254 0 -7.87695 -3.52832 -7.87695 -7.87695v-146.08
c0 -4.34766 3.52441 -7.87695 7.87695 -7.87695h146.075c4.35352 0 7.87695 3.5293 7.87695 7.87695z"/>
            <glyph glyph-name="uniF23D" unicode="&#xf23d;"
                   d="M131.779 189.55c-28.7822 0 -52.208 35.2754 -52.208 78.6377c0 43.3506 23.4199 78.626 52.208 78.626c28.7871 0 52.2012 -35.2754 52.2012 -78.626c0 -43.3623 -23.4141 -78.6377 -52.2012 -78.6377zM380.184 189.55c-28.7764 0 -52.1963 35.2754 -52.1963 78.6377
c0 43.3506 23.4141 78.626 52.1963 78.626c28.7881 0 52.207 -35.2754 52.207 -78.626c0 -43.3623 -23.4189 -78.6377 -52.207 -78.6377zM508.932 151.704c3.1748 -3.21191 3.9707 -8.10156 1.97461 -12.1533c-29.7324 -60.2607 -134.561 -102.359 -254.914 -102.359
c-120.306 0 -225.129 42.082 -254.894 102.35c-2.00684 4.05566 -1.2207 8.94043 1.95996 12.1582c3.16406 3.21191 8.03809 4.07227 12.126 2.12402c65.5127 -31.2354 151.036 -48.4375 240.802 -48.4375c89.7871 0 175.306 17.2021 240.812 48.4424
c4.08301 1.96484 8.94629 1.08887 12.1328 -2.12402z"/>
            <glyph glyph-name="uniF11A" unicode="&#xf11a;"
                   d="M465.681 355.69c25.5361 0 46.3145 -20.7783 46.3193 -46.3291c0 -25.5352 -20.7783 -46.3145 -46.3193 -46.3145c-17.5996 0 -32.9473 9.875 -40.7695 24.3691l-46.0879 -5.93066c-3.81055 -21.7197 -22.7686 -38.3008 -45.5684 -38.3008
c-1.22852 0 -2.4375 0.0878906 -3.64062 0.185547l-42.2461 -95.0352c9.16504 -8.46094 14.9512 -20.542 14.9512 -33.9814c0 -25.5352 -20.7832 -46.3184 -46.3193 -46.3184c-25.541 0 -46.3193 20.7832 -46.3193 46.3184c0 5.62207 1.05957 10.9912 2.90137 15.9902
l-26.6934 25.7881c-6.42871 -3.38477 -13.7373 -5.32324 -21.4932 -5.32324c-6.74316 0 -13.1309 1.47559 -18.9111 4.08398l-57.4082 -60.3711c2.89062 -6.03711 4.55664 -12.7646 4.55664 -19.8877c0 -25.5459 -20.7783 -46.3242 -46.3135 -46.3242
c-25.541 0 -46.3193 20.7783 -46.3193 46.3242c0 25.5352 20.7783 46.3184 46.3193 46.3193c6.31055 0 12.3232 -1.27637 17.8057 -3.57031l57.9736 60.9727c-2.56152 5.74512 -4.01758 12.0811 -4.01758 18.7773c0 25.5361 20.7783 46.3145 46.3145 46.3145
c25.541 0 46.3193 -20.7783 46.3193 -46.3145c0 -5.66797 -1.0752 -11.0732 -2.94238 -16.0977l26.6416 -25.7207c6.44922 3.41406 13.7891 5.36914 21.5859 5.36914c0.206055 0 0.401367 -0.03125 0.606445 -0.03125l43.1201 96.9893
c-7.9043 8.31152 -12.791 19.5186 -12.791 31.8623c0 25.541 20.7783 46.3193 46.3193 46.3193c16.5146 0 30.9932 -8.71777 39.2012 -21.7715l48.2637 6.21777c4.92188 20.2949 23.1904 35.4209 44.9609 35.4209zM46.3193 48.8867
c14.1953 0 25.7412 11.5518 25.7412 25.7471c0 14.1943 -11.5459 25.7461 -25.7412 25.7461s-25.7471 -11.5566 -25.7471 -25.7461c0 -14.1904 11.5518 -25.7471 25.7471 -25.7471zM138.659 197.133c0 -14.2002 11.5459 -25.7461 25.7412 -25.7461
s25.7471 11.5459 25.7471 25.7461c0 14.1953 -11.5518 25.7412 -25.7471 25.7412s-25.7412 -11.5459 -25.7412 -25.7412zM256 88.6172c14.1953 0 25.7461 11.5518 25.7461 25.7471s-11.5508 25.7461 -25.7461 25.7461s-25.7461 -11.5508 -25.7461 -25.7461
s11.5508 -25.7471 25.7461 -25.7471zM333.255 263.768c14.1904 0 25.7412 11.5459 25.7412 25.7412s-11.541 25.7471 -25.7412 25.7471c-14.1943 0 -25.7461 -11.5518 -25.7461 -25.7471s11.5518 -25.7412 25.7461 -25.7412zM465.681 283.63
c14.1904 0 25.7471 11.5469 25.7471 25.7422c0 14.1943 -11.5518 25.7461 -25.7471 25.7461c-14.2002 0 -25.7412 -11.5518 -25.7412 -25.7461c0 -14.1953 11.541 -25.7422 25.7412 -25.7422z"/>
            <glyph glyph-name="uniF100" unicode="&#xf100;"
                   d="M221.879 -4.08398c42.126 0 80.8027 23.0068 101.42 58.8389l25.5703 -64.8193c-33.2539 -34.3398 -79.252 -53.9355 -126.99 -53.9355c-97.4893 0 -176.806 79.3213 -176.806 176.806c0 69.0537 39.5742 130.812 101.631 159.974l11.8691 -61.7979
c-33.1885 -21.4717 -53.5791 -58.585 -53.5791 -98.1816c0 -64.4521 52.4326 -116.884 116.885 -116.884zM464.64 -19.1211c6.63965 -16.832 -1.64941 -35.9307 -18.4707 -42.543c-3.8877 -1.53027 -7.94238 -2.31445 -12.0469 -2.31445
c-13.5664 0 -25.5596 8.16504 -30.5449 20.7852l-74.46 188.706l-91.2764 0.113281l-0.46582 -0.0107422c-1 0.0107422 -1.98926 0.0761719 -2.89746 0.167969l-0.638672 0.0976562c-0.821289 0.0859375 -1.6377 0.210938 -2.41113 0.356445l-1 0.22168
c-0.670898 0.162109 -1.33594 0.319336 -2.00098 0.519531l-1.11914 0.345703c-0.573242 0.189453 -1.12988 0.400391 -1.88184 0.697266l-0.978516 0.400391c-0.556641 0.249023 -1.09766 0.530273 -2.02246 0.995117l-0.708008 0.362305
c-0.611328 0.329102 -1.18457 0.697266 -1.69824 1.02734l-0.816406 0.513672c-0.821289 0.567383 -1.62207 1.16211 -2.19531 1.62695l-0.492188 0.438477c-0.665039 0.5625 -1.31348 1.14062 -2.0332 1.87012l-0.416016 0.432617
c-0.535156 0.557617 -1.05957 1.13086 -1.5625 1.72559l-0.49707 0.626953c-0.449219 0.556641 -0.881836 1.13574 -1.28223 1.70898l-0.550781 0.827148c-0.368164 0.5625 -0.719727 1.15723 -1.04395 1.72461l-0.535156 0.967773
c-0.287109 0.551758 -0.551758 1.125 -0.848633 1.7793l-0.476562 1.08691c-0.194336 0.480469 -0.367188 0.983398 -0.535156 1.4541l-0.951172 3.27637c-0.114258 0.421875 -0.22168 0.833008 -0.335938 1.36328l-29.1543 151.743l-3.91992 1.70312
c-23.3105 10.1543 -38.3691 33.124 -38.3691 58.5098c0 35.1895 28.6201 63.8145 63.8086 63.8145c35.1953 0 63.8203 -28.625 63.8203 -63.8145c0 -16.6211 -6.39648 -32.3828 -18.0117 -44.375l-2.93555 -3.03418l5.41797 -28.2139h106.476
c18.0977 0 32.832 -14.7236 32.832 -32.8262c0 -18.0918 -14.7236 -32.8154 -32.832 -32.8154h-93.8613l6.08887 -31.6963l87.0967 -0.113281c15.1182 -0.0214844 28.1924 -10.2949 31.7939 -24.9756z"/>
            <glyph glyph-name="uniF27F" unicode="&#xf27f;"
                   d="M256 131.738c-43.0049 0 -77.9922 34.9922 -77.9922 78.002v118.745h155.984v-118.745c0 -43.0146 -34.9873 -78.002 -77.9922 -78.002zM256 448c40.3994 0 74.5498 -31.5195 77.7422 -71.7676h-155.489c3.19727 40.2432 37.3477 71.7676 77.7471 71.7676z
M393.853 298.983c5.74609 0 10.3994 -4.65332 10.3994 -10.3984v-71.3887c0 -72.168 -53.7051 -135.097 -124.927 -146.406l-4.38379 -0.696289v-92.5918h60.1113c11.4385 0 20.751 -9.3125 20.751 -20.7559c0 -11.4336 -9.30762 -20.7412 -20.751 -20.7412h-158.105
c-11.4385 0 -20.751 9.30762 -20.751 20.7412c0 11.4434 9.30762 20.7559 20.751 20.7559h60.1113v92.5918l-4.38379 0.696289c-71.2217 11.3096 -124.927 74.2383 -124.927 146.406v71.3887c0 5.74023 4.65918 10.3984 10.3994 10.3984h17.0801
c5.74023 0 10.3984 -4.6582 10.3984 -10.3984v-71.3887c0 -60.8643 49.5088 -110.379 110.374 -110.379c60.8643 0 110.374 49.5195 110.374 110.379v71.3887c0 5.74023 4.6582 10.3984 10.3984 10.3984h17.0801z"/>
            <glyph glyph-name="uniF169" unicode="&#xf169;"
                   d="M0 436.869c0 6.14453 4.98633 11.1309 11.1309 11.1309h489.738c6.14453 0 11.1309 -4.98633 11.1309 -11.1309v-489.738c0 -6.14453 -4.98633 -11.1309 -11.1309 -11.1309h-489.738c-6.14453 0 -11.1309 4.98633 -11.1309 11.1309v489.738zM424.838 282.985h-337.67
c-2.84961 0 -5.40918 -2.13672 -6.48926 -5.44824c-1.09082 -3.2832 -0.489258 -7.07324 1.51953 -9.58887l168.838 -211.667c1.36914 -1.71973 3.16113 -2.58789 4.96387 -2.58789s3.60059 0.868164 4.96973 2.58789l168.838 211.667
c2.00879 2.51562 2.61523 6.30566 1.51855 9.58887c-1.08496 3.31152 -3.63965 5.44824 -6.48828 5.44824z"/>
            <glyph glyph-name="uniF271" unicode="&#xf271;"
                   d="M509.019 47.666c2.92285 -3.67969 3.78516 -9.1582 2.20898 -13.9717c-0.308594 -0.921875 -0.660156 -1.69336 -0.979492 -2.27441c-1.8584 -3.46582 -5.46289 -5.62305 -9.3877 -5.62305h-489.705c-3.92969 0 -7.5293 2.16797 -9.3877 5.62305
c-0.303711 0.570312 -0.670898 1.33203 -0.995117 2.32715c-1.56543 4.75488 -0.703125 10.2295 2.2041 13.8975l244.706 306.756c4.04688 5.06445 12.6035 5.06445 16.6504 0z"/>
            <glyph glyph-name="uniF13C" unicode="&#xf13c;"
                   d="M322.481 170.056v0l-79.9189 0.00585938l-102.755 -83.79c-1.55566 -1.26562 -3.54395 -1.96191 -5.60547 -1.96191c-1.30762 0 -2.60059 0.28418 -3.74414 0.833008c-3.05371 1.45508 -5.02637 4.57227 -5.02637 7.95801v76.9551h-116.624
c-4.85254 0 -8.80762 3.9502 -8.80762 8.80762v238.971c0 4.85156 3.9502 8.80762 8.80762 8.80762h313.674c4.85156 0 8.80664 -3.95605 8.80664 -8.80762v-238.971c0 -4.85742 -3.95508 -8.80762 -8.80664 -8.80762zM503.192 299.696
c4.85742 0 8.80762 -3.9502 8.80762 -8.8125v-238.966c0 -4.85254 -3.9502 -8.80762 -8.80762 -8.80762h-173.449v-76.96c0 -3.38086 -1.9668 -6.50781 -5.02539 -7.95801c-1.14453 -0.543945 -2.43164 -0.833984 -3.73926 -0.833984
c-2.05664 0 -4.04492 0.702148 -5.60645 1.96191l-102.754 83.79h-23.1045c-4.85254 0 -8.80762 3.95508 -8.80762 8.80762v34.8965l79.9297 65.1738h79.9238c4.85254 0 8.80762 3.94922 8.80762 8.80664v138.901h153.825z"/>
            <glyph glyph-name="uniF236" unicode="&#xf236;"
                   d="M446.081 448c6.03418 0 10.9404 -4.90137 10.9404 -10.9395v-209.943c0 -112.184 -52.041 -184.611 -95.7031 -225.614c-46.8721 -44.0283 -94.2852 -61.9639 -96.2822 -62.708l-5.7373 -2.11621c-1.22559 -0.454102 -2.50586 -0.678711 -3.79102 -0.678711
c-1.29102 0 -2.58789 0.229492 -3.81836 0.689453l-5.70508 2.12793c-1.97461 0.732422 -49.0322 18.543 -95.834 62.7402c-43.4199 40.9863 -95.1719 113.393 -95.1719 225.56v209.943c0 6.03809 4.90137 10.9395 10.9404 10.9395h380.162zM255.639 -7.88867
l0.361328 399.05h-146.321v-166.183c0 -151.387 112.281 -216.693 145.96 -232.867z"/>
            <glyph glyph-name="uniF26A" unicode="&#xf26a;"
                   d="M62.3398 -53.6748v221.918h387.31v-221.918c0 -5.70508 -4.62012 -10.3252 -10.3203 -10.3252h-366.669c-5.7002 0 -10.3203 4.62012 -10.3203 10.3252zM176.183 101.648c-0.657227 -1.3418 -0.981445 -2.81348 -0.986328 -4.27051
c0 -2.15039 0.709961 -4.28516 2.09277 -6.04492l71.0166 -90.2842c1.8584 -2.35352 4.69238 -3.73242 7.68945 -3.73242c3.00684 0 5.84668 1.37891 7.69434 3.73242l71.0215 90.2734c2.31738 2.95508 2.73535 6.95898 1.10645 10.3262
c-1.63379 3.37695 -5.04785 5.5127 -8.80176 5.5127h-142.031c-3.74316 0 -7.16211 -2.14062 -8.80176 -5.5127zM449.649 437.68h0.00585938v-221.917h-387.311v221.917c0 5.7002 4.62012 10.3203 10.3213 10.3203h366.668c5.69531 0 10.3154 -4.62012 10.3154 -10.3203z
M335.817 282.357c0.657227 1.35156 0.975586 2.81836 0.981445 4.27539c0 2.15039 -0.705078 4.28516 -2.08789 6.04492l-71.0166 90.2832c-1.86328 2.35449 -4.69824 3.73242 -7.69434 3.73242c-3.00195 0 -5.8418 -1.37793 -7.68945 -3.73242l-71.0215 -90.2783
c-2.31738 -2.94922 -2.74023 -6.95898 -1.10645 -10.3252c1.62891 -3.37305 5.04785 -5.50781 8.7959 -5.50781h142.037c3.74316 0 7.16211 2.13477 8.80176 5.50781zM497.122 215.768c4.27539 0 7.74219 -3.46582 7.73633 -7.74121v-32.0527
c0 -4.26953 -3.46094 -7.73047 -7.73633 -7.73047h-47.4727v47.5244h47.4727zM14.8721 215.768v0l47.4785 0.0107422v-47.5254h-47.4785c-4.26953 0 -7.73633 3.4668 -7.73633 7.73633v32.042c0 4.27051 3.46094 7.73633 7.73633 7.73633z"/>
            <glyph glyph-name="uniF1D9" unicode="&#xf1d9;"
                   d="M459.242 271.063c12.2988 -10.0234 20.7236 -30.2998 20.7236 -53.752c0 -23.4512 -8.4248 -43.7334 -20.7344 -53.7559v-156.844c0 -8.9873 -6.06543 -16.8398 -14.7578 -19.126c-1.65625 -0.441406 -3.35352 -0.652344 -5.01465 -0.652344
c-7 0 -13.6494 3.74805 -17.2129 10.0703c-43.4756 77.1924 -173.92 101.568 -272.141 108.69c-8.30371 -17.9062 -16.4189 -47.4023 -5.49707 -63.8945c18.7686 -28.3135 -22.0898 -23.2207 7.06934 -58.8291c29.1533 -35.6074 14.6318 -46.2666 2.65918 -46.9756h-99.8711
c-15.4521 59.5166 -3.61621 131.085 7.9209 177.23l-1.54004 0.00585938c-16.4092 3.1377 -28.8125 17.5225 -28.8125 34.8408v145.039c0 19.6201 15.8984 35.5186 35.5186 35.5186c0 0 283.63 -3.84668 354.693 109.331c4.7832 7.60547 13.5498 11.6787 22.2324 9.41895
c8.7041 -2.28613 14.7637 -10.1436 14.7637 -19.126v-157.19z"/>
            <glyph glyph-name="uniF17E" unicode="&#xf17e;"
                   d="M434.428 358.388c2.47656 -2.47656 3.86426 -5.83301 3.86426 -9.33301v-399.857c0 -7.29004 -5.90625 -13.1973 -13.1963 -13.1973h-338.191c-7.29004 0 -13.1963 5.90723 -13.1963 13.1973v485.605c0 7.29004 5.90625 13.1973 13.1963 13.1973h252.311
c3.50488 0 6.85742 -1.38867 9.33301 -3.86426zM327.554 330.062h79.8633l-86.5459 86.5459l-0.0107422 -79.8477c0 -1.77344 0.712891 -3.47852 1.96387 -4.73438c1.25586 -1.25684 2.95117 -1.96387 4.72949 -1.96387z"/>
            <glyph glyph-name="uniF17F" unicode="&#xf17f;"
                   d="M434.428 358.388c2.47656 -2.47656 3.86426 -5.83301 3.86426 -9.33301v-399.857c0 -7.29004 -5.90625 -13.1973 -13.1963 -13.1973h-338.191c-7.29004 0 -13.1963 5.90723 -13.1963 13.1973v485.605c0 7.29004 5.90625 13.1973 13.1963 13.1973h252.311
c3.50488 0 6.85742 -1.38867 9.33301 -3.86426zM179.521 2.70801v23.1738c0 4.37598 -3.54688 7.91797 -7.91797 7.91797h-59.4492c-4.37109 0 -7.91797 -3.54199 -7.91797 -7.91797v-23.1738c0 -4.37109 3.54688 -7.91797 7.91797 -7.91797h59.4492
c4.37109 0 7.91797 3.54688 7.91797 7.91797zM179.521 81.8896v23.1738c0 4.37598 -3.54688 7.91797 -7.91797 7.91797h-59.4492c-4.37109 0 -7.91797 -3.54199 -7.91797 -7.91797v-23.1738c0 -4.37109 3.54688 -7.91797 7.91797 -7.91797h59.4492
c4.37109 0 7.91797 3.54688 7.91797 7.91797zM179.521 161.071v23.1738c0 4.37598 -3.54688 7.91895 -7.91797 7.91895h-59.4492c-4.37109 0 -7.91797 -3.54297 -7.91797 -7.91895v-23.1738c0 -4.37012 3.54688 -7.91797 7.91797 -7.91797h59.4492
c4.37109 0 7.91797 3.54785 7.91797 7.91797zM179.521 240.253v23.1689c0 4.37598 -3.54688 7.91797 -7.91797 7.91797h-59.4492c-4.37109 0 -7.91797 -3.54199 -7.91797 -7.91797v-23.1689c0 -4.37598 3.54688 -7.91797 7.91797 -7.91797h59.4492
c4.37109 0 7.91797 3.54199 7.91797 7.91797zM112.153 311.517v0l147.869 -0.00488281c4.37109 0 7.91797 3.54199 7.91797 7.91797v62.7598c0 4.37598 -3.54688 7.91797 -7.91797 7.91797h-147.869c-4.37109 0 -7.91797 -3.54199 -7.91797 -7.91797v-62.7539
c0 -4.37695 3.54688 -7.91895 7.91797 -7.91895zM394.632 2.70801v23.1738c0 4.37598 -3.54785 7.91797 -7.91895 7.91797h-172.943c-4.37109 0 -7.91797 -3.54199 -7.91797 -7.91797v-23.1738c0 -4.37109 3.54688 -7.91797 7.91797 -7.91797h172.943
c4.37109 0 7.91895 3.54688 7.91895 7.91797zM394.632 81.8896v23.1738c0 4.37598 -3.54785 7.91797 -7.91895 7.91797h-172.943c-4.37109 0 -7.91797 -3.54199 -7.91797 -7.91797v-23.1738c0 -4.37109 3.54688 -7.91797 7.91797 -7.91797h172.943
c4.37109 0 7.91895 3.54688 7.91895 7.91797zM394.632 161.071v23.1738c0 4.37598 -3.54785 7.91895 -7.91895 7.91895h-172.943c-4.37109 0 -7.91797 -3.54297 -7.91797 -7.91895v-23.1738c0 -4.37012 3.54688 -7.91797 7.91797 -7.91797h172.943
c4.37109 0 7.91895 3.54785 7.91895 7.91797zM394.632 240.253v23.1689c0 4.37598 -3.54785 7.91797 -7.91895 7.91797h-172.943c-4.37109 0 -7.91797 -3.54199 -7.91797 -7.91797v-23.1689c0 -4.37598 3.54688 -7.91797 7.91797 -7.91797h172.943
c4.37109 0 7.91895 3.54199 7.91895 7.91797zM327.554 330.056v0l79.8633 -0.00488281l-86.5459 86.5508l-0.0107422 -79.8467c0 -1.77344 0.712891 -3.47852 1.96387 -4.73535c1.25586 -1.25586 2.95117 -1.96387 4.72949 -1.96387z"/>
            <glyph glyph-name="uniF198" unicode="&#xf198;"
                   d="M256.003 420.493c138.275 0 253.113 -120.883 256.002 -269.47c0.0537109 -2.85645 -1.04199 -5.60742 -3.04297 -7.65625c-1.43164 -1.46777 -3.24023 -2.46289 -5.19824 -2.91504v-142.09c0 -5.87402 -4.76758 -10.6416 -10.6406 -10.6416h-3.87402v-13.5781
c0 -5.87402 -4.7666 -10.6406 -10.6406 -10.6406h-72.6357c-5.87402 0 -10.6416 4.7666 -10.6416 10.6406v196.014c0 5.87402 4.76758 10.6416 10.6416 10.6416h47.7041l-0.00585938 0.00488281c-15.6797 104.889 -100.659 184 -197.674 184
s-181.994 -79.1113 -197.679 -184.005h47.7041c5.87402 0 10.6406 -4.76758 10.6406 -10.6416v-196.014c0 -5.87402 -4.7666 -10.6406 -10.6406 -10.6406h-72.6357c-5.87402 0 -10.6416 4.7666 -10.6416 10.6406v13.5781h-3.8623
c-5.87402 0 -10.6416 4.76758 -10.6416 10.6416v142.095c-1.96289 0.452148 -3.7666 1.46387 -5.19824 2.91602c-2 2.03223 -3.0957 4.79883 -3.04297 7.65625c2.88379 148.576 117.717 269.464 256.003 269.464z"/>
            <glyph glyph-name="uniF234" unicode="&#xf234;"
                   d="M422.475 112.266c48.668 0 88.1191 -39.4727 88.1191 -88.1406s-39.457 -88.1299 -88.1299 -88.1299s-88.1299 39.457 -88.1299 88.1299c0 1.97852 0.176758 3.91016 0.296875 5.85254l-188.122 94.8525c-15.3701 -13.0488 -35.2451 -20.9629 -56.9834 -20.9629
c-48.6729 0 -88.1299 39.4521 -88.1299 88.1299c0 48.6738 39.457 88.1309 88.1299 88.1309c22.0254 0 42.123 -8.13867 57.5723 -21.499l187.574 94.5762c-0.161133 2.20801 -0.333008 4.41504 -0.333008 6.66504c0 48.6729 39.457 88.1299 88.1357 88.1299
c48.668 0 88.125 -39.457 88.1299 -88.125c0 -48.668 -39.457 -88.1299 -88.1299 -88.1299c-22.0254 0 -42.1289 8.1377 -57.5771 21.498l-187.569 -94.5762c0.161133 -2.20703 0.333008 -4.41504 0.333008 -6.66406c0 -2.53125 -0.166992 -5.00879 -0.375 -7.48242
l187.023 -94.2949c15.5312 13.6729 35.8486 22.04 58.165 22.04z"/>
            <glyph glyph-name="uniF25E" unicode="&#xf25e;"
                   d="M508.315 -48.6445c1.25488 -3.32227 0.805664 -7.05566 -1.21777 -9.97168c-2.02344 -2.92188 -5.35645 -4.66406 -8.90039 -4.66406h-100.738c-4.61523 0 -8.72168 2.91602 -10.2314 7.27734l-38.9502 112.247h-188.796l-42.1055 -113.188
c-1.5791 -4.23633 -5.62695 -7.05566 -10.1445 -7.05566h-93.4287c-3.56641 0 -6.9043 1.75879 -8.92285 4.69629c-2.0127 2.94336 -2.4502 6.69336 -1.16797 10.0205l189.206 490.357c1.61328 4.17188 5.62207 6.92578 10.0967 6.92578h110.737
c4.50684 0 8.54395 -2.79199 10.1289 -7.00684zM320.721 138.917l-64.1904 206.131l-68.3789 -206.131h132.569z"/>
            <glyph glyph-name="uniF268" unicode="&#xf268;"
                   d="M376.357 434.721c74.7881 0 135.638 -60.8555 135.643 -135.638v-35.3779c0 -5.7793 -4.68652 -10.4609 -10.4609 -10.4609h-36.3975c-5.77441 0 -10.4609 4.68164 -10.4609 10.4609v35.3779c0 43.1914 -35.1318 78.334 -78.3232 78.334
c-43.1924 0 -78.335 -35.1426 -78.335 -78.334v-45.7549l15.4766 0.120117h0.0839844c2.75684 0 5.41309 -1.08301 7.36426 -3.0332c1.98242 -1.96191 3.09668 -4.63965 3.09668 -7.42773v-283.032c0 -5.77441 -4.67578 -10.4609 -10.4502 -10.4609l-302.919 -0.214844v0
c-5.77441 0 -10.46 4.67676 -10.46 10.4502l-0.214844 283.038c0 2.77734 1.10352 5.43457 3.06543 7.40625c1.96094 1.96191 4.62793 3.06543 7.39551 3.06543h230.254v45.8379c0 74.7881 60.8545 135.644 135.643 135.644z"/>
            <glyph glyph-name="uniF1C8" unicode="&#xf1c8;"
                   d="M506.503 448c3.02637 0 5.49707 -2.4707 5.49219 -5.49707v-501.006c0 -3.02637 -2.47168 -5.49219 -5.49219 -5.49219h-501.006c-3.03125 0 -5.49707 2.47168 -5.49707 5.49219v501.006c0 3.03125 2.4707 5.49707 5.49707 5.49707h501.006zM97.8496 61.6064
c21.833 0 39.54 17.7021 39.54 39.5459c0 21.8271 -17.707 39.5293 -39.54 39.5293c-21.832 0 -39.54 -17.7021 -39.54 -39.5293c0 -21.8438 17.708 -39.5459 39.54 -39.5459zM97.8496 323.242c21.833 0 39.54 17.707 39.54 39.5352c0 21.8379 -17.707 39.54 -39.54 39.54
c-21.832 0 -39.54 -17.7021 -39.54 -39.54c0 -21.833 17.708 -39.5352 39.54 -39.5352zM452.617 -10.3174l-0.00488281 142.994c0 4.42383 -3.58594 8.00488 -8.00488 8.00488h-269.145c-4.4248 0 -8.00586 -3.58105 -8.00586 -8.00488v-142.994
c0 -4.42383 3.58105 -8.00488 8.00586 -8.00488h269.149c4.41895 0 8.00488 3.58105 8.00488 8.00488zM452.617 251.323l-0.00488281 142.994c0 4.42383 -3.58594 8.00488 -8.00488 8.00488h-269.145c-4.4248 0 -8.00586 -3.58105 -8.00586 -8.00488v-142.994
c0 -4.42383 3.58105 -8.00488 8.00586 -8.00488h269.149c4.41895 0 8.00488 3.58105 8.00488 8.00488z"/>
            <glyph glyph-name="uniF1A6" unicode="&#xf1a6;"
                   d="M327.395 7.13379c5.83301 0 10.5479 -4.72559 10.543 -10.5479v-50.0381c0 -5.82227 -4.72559 -10.5479 -10.5479 -10.5479h-140.095c-5.82227 0 -10.5479 4.72559 -10.5479 10.5479v50.0381c0 5.82227 4.72559 10.5479 10.5479 10.5479h27.0918v235.318h-29.7764
c-5.82227 0 -10.5469 4.72559 -10.5469 10.5479v35.2559c0 5.82227 4.72461 10.5469 10.5469 10.5469h105.145c5.82227 0 10.5479 -4.72461 10.5479 -10.5469v-281.122h27.0918zM256.003 324.444c-34.0645 0 -61.7783 27.7139 -61.7783 61.7783
c0 34.0635 27.7139 61.7773 61.7783 61.7773c34.0635 0 61.7773 -27.7139 61.7773 -61.7773c0 -34.0645 -27.7139 -61.7783 -61.7773 -61.7783z"/>
            <glyph glyph-name="uniF28A" unicode="&#xf28a;"
                   d="M507.392 336.422c12.875 -50.9248 -1.58301 -103.485 -38.6982 -140.589c-27.8291 -27.8242 -64.8545 -43.1494 -104.258 -43.1494c-15.9629 0 -31.7012 2.53418 -46.7969 7.54492v0l-204.806 -204.812c-12.4834 -12.4932 -29.0889 -19.3652 -46.75 -19.3652
c-17.6562 0 -34.2568 6.87207 -46.75 19.3652c-25.7705 25.7754 -25.7754 67.7236 -0.00488281 93.5098l204.838 204.796c-17.458 52.6797 -3.48535 111.971 35.5986 151.05c27.8447 27.8398 64.8916 43.1748 104.311 43.1748c12.2266 0 24.4277 -1.50391 36.2578 -4.48242
c3.6416 -0.919922 6.52051 -3.72559 7.51855 -7.35254c0.998047 -3.62598 -0.0263672 -7.50781 -2.69043 -10.168l-79.6162 -79.626l84.6895 -84.7002l79.6426 79.6318c2.64844 2.66406 6.55176 3.68359 10.1572 2.68555
c3.62598 -0.998047 6.4375 -3.86719 7.35742 -7.51367z"/>
            <glyph glyph-name="uniF1F5" unicode="&#xf1f5;"
                   d="M501.638 5.14746c5.73047 0 10.3623 -4.63672 10.3623 -10.3516v-39.9678c0 -5.71973 -4.64258 -10.3623 -10.3623 -10.3623h-147.922c-5.71973 0 -10.3623 4.64258 -10.3623 10.3623v44.832c0 3.41016 1.67871 6.60156 4.49219 8.53418
c51.2207 35.2109 83.0488 98.4414 83.0488 165.024c0 106.964 -78.4688 193.992 -174.91 193.992c-96.4473 0 -174.915 -87.0225 -174.915 -193.992c0 -66.3037 31.6309 -129.399 82.541 -164.683c0.740234 -0.507812 1.41406 -1.11426 1.99414 -1.80371l0.575195 -0.678711
c1.5957 -1.87012 2.47168 -4.24805 2.47168 -6.71387v-44.5215c0 -5.7207 -4.64258 -10.3623 -10.3623 -10.3623h-147.927c-5.71973 0 -10.3623 4.6416 -10.3623 10.3623v39.9668c0 5.71973 4.64258 10.3623 10.3623 10.3623h54.1631
c-35.9775 47.7236 -55.7852 107.41 -55.7852 168.065c0 146.844 110.913 266.321 247.244 266.321c136.337 0 247.244 -119.472 247.244 -266.321c0 -60.6445 -19.8184 -120.332 -55.8008 -168.065h54.21z"/>
            <glyph glyph-name="uniF1D8" unicode="&#xf1d8;"
                   d="M507.37 291.915c2.90527 -2.02051 4.62988 -5.32422 4.62988 -8.86035v-271.063c0 -4.50488 -2.80273 -8.53613 -7.01172 -10.1045l-161.124 -60.0234c-1.20703 -0.452148 -2.48926 -0.672852 -3.75586 -0.672852c-1.37988 0 -2.74902 0.25293 -4.04199 0.786133
l-175.353 70.9473l-146.378 -51.1455c-3.29297 -1.14844 -6.94727 -0.641602 -9.79297 1.37891c-2.85645 2.02148 -4.54297 5.29785 -4.54297 8.79004v271.21c0 4.58105 2.89453 8.66602 7.22168 10.1699l123.586 43.1963
c-1.00781 6.4834 -1.51953 13.0752 -1.51953 19.5693c0 69.874 56.8428 126.717 126.712 126.717s126.717 -56.8428 126.717 -126.712c0 -18.2432 -3.75586 -35.7266 -11.166 -51.9492c-3.27148 -7.14648 -7.06055 -14.6318 -11.2432 -22.2637l137.141 51.2646
c3.29883 1.24023 7.01758 0.776367 9.92188 -1.23438zM337.812 279.735c5.18945 11.3936 7.8252 23.708 7.8252 36.5889c0 49.4326 -40.2109 89.6436 -89.6377 89.6436c-49.4219 0 -89.6377 -40.2109 -89.6377 -89.6436c0 -12.8857 2.63574 -25.2012 7.83594 -36.5889
c22.4102 -49.0391 65.3857 -100.811 78.0293 -115.519c0.943359 -1.09863 2.31738 -1.72949 3.77246 -1.72949s2.8291 0.630859 3.77832 1.72949c12.6377 14.6973 55.6133 66.4639 78.0342 115.519zM256 362.895c25.6758 0 46.5596 -20.8896 46.5596 -46.5645
c0 -25.6758 -20.8838 -46.5596 -46.5596 -46.5596c-25.6699 0 -46.5596 20.8779 -46.5596 46.5537s20.8896 46.5703 46.5596 46.5703z"/>
            <glyph glyph-name="uniF21A" unicode="&#xf21a;"
                   d="M412.835 204.599c52.8145 0 95.7881 -42.9736 95.7822 -95.7939c0 -52.8145 -42.9736 -95.7881 -95.7822 -95.7822c-25.0811 0 -49.7285 10.2197 -67.6152 28.0576v-94.0967c0 -6.0625 -4.9209 -10.9834 -10.9834 -10.9834h-85.7324
c-4.24023 0 -8.10059 2.44336 -9.92383 6.27148c-1.81738 3.83887 -1.27441 8.36426 1.40625 11.6592c12.3174 15.1133 18.8369 33.4775 18.8369 53.0947c0 46.6201 -37.9268 84.5293 -84.5303 84.5293s-84.5186 -37.9258 -84.5186 -84.5293
c0 -19.1992 6.24414 -37.2012 18.0732 -52.1387c2.06543 -1.99902 3.34473 -4.80078 3.34473 -7.89746c0 -6.06348 -4.9209 -10.9834 -10.9834 -10.9834c-0.0390625 0 -0.0712891 0.00488281 -0.110352 0h-85.7373c-6.06348 0 -10.9834 4.91992 -10.9834 10.9834v323.637
c0 6.06348 4.91992 10.9834 10.9834 10.9834h95.2822c-19.7871 18.0293 -31.1387 43.7646 -31.1387 70.6025c0 52.8203 42.9795 95.7881 95.7939 95.7881s95.7822 -42.9678 95.7822 -95.7881c0 -26.8379 -11.3408 -52.5732 -31.1328 -70.6025h95.2822
c6.06348 0 10.9834 -4.91992 10.9834 -10.9834v-94.0908c17.8818 17.832 42.5342 28.0635 67.6211 28.0635z"/>
            <glyph glyph-name="uniF1BE" unicode="&#xf1be;"
                   d="M256 448c141.153 0 256 -114.841 256 -256s-114.847 -256 -256 -256s-256 114.841 -256 256s114.847 256 256 256zM123.814 192c0 -72.8887 59.2969 -132.186 132.186 -132.186s132.186 59.2969 132.186 132.186s-59.2969 132.186 -132.186 132.186
s-132.186 -59.2969 -132.186 -132.186zM410.682 126.062l41.2295 -41.25c17.4873 31.8496 27.458 68.3701 27.458 107.188s-9.9707 75.3428 -27.4531 107.177l-41.2344 -41.2393c8.66211 -20.2588 13.4756 -42.5488 13.4756 -65.9375s-4.81348 -45.6787 -13.4756 -65.9375z
M363.188 387.917c-31.8496 17.4863 -68.3701 27.458 -107.188 27.458s-75.3379 -9.97168 -107.177 -27.458l41.2393 -41.2402c20.2637 8.66699 42.5547 13.4805 65.9424 13.4805c23.3887 0 45.6797 -4.81348 65.9424 -13.4805zM60.0889 299.183
c-17.4922 -31.8398 -27.458 -68.3652 -27.458 -107.183s9.96582 -75.3379 27.4629 -107.172l41.2402 41.2344c-8.67285 20.2695 -13.4863 42.5439 -13.4863 65.9424c0 23.3887 4.81348 45.6797 13.4805 65.9375zM148.817 -3.91602
c31.8447 -17.4873 68.3652 -27.4531 107.178 -27.4531c38.8164 0 75.3428 9.9707 107.177 27.4531l-41.2402 41.2344c-20.2637 -8.66211 -42.5488 -13.4756 -65.9365 -13.4756c-23.3887 0 -45.6738 4.81348 -65.9375 13.4756z"/>
            <glyph glyph-name="uniF131" unicode="&#xf131;"
                   d="M440.236 448c6.14941 0 11.1514 -4.99023 11.1455 -11.1514v-489.697c0 -6.15527 -4.99609 -11.1514 -11.1514 -11.1514h-108.028c-6.15527 0 -11.1514 4.99609 -11.1514 11.1514v88.7305h-130.097v-88.7305c0 -6.15527 -4.99512 -11.1514 -11.1504 -11.1514h-108.028
c-6.15527 0 -11.1514 4.99609 -11.1514 11.1514v489.697c0 6.15527 4.99609 11.1514 11.1514 11.1514h368.461zM183.985 119.054v49.7178c0 4.62305 -3.74121 8.36426 -8.36426 8.36426h-49.7178c-4.62207 0 -8.36328 -3.74121 -8.36328 -8.36426v-49.7178
c0 -4.62207 3.74121 -8.36328 8.36328 -8.36328h49.7178c4.62305 0 8.36426 3.74121 8.36426 8.36328zM183.985 224.294v49.7178c0 4.62305 -3.74121 8.36426 -8.36426 8.36426h-49.7178c-4.62207 0 -8.36328 -3.74121 -8.36328 -8.36426v-49.7178
c0 -4.62207 3.74121 -8.36328 8.36328 -8.36328h49.7178c4.62305 0 8.36426 3.74121 8.36426 8.36328zM183.985 329.534v49.7178c0 4.62305 -3.74121 8.36426 -8.36426 8.36426h-49.7178c-4.62207 0 -8.36328 -3.74121 -8.36328 -8.36426v-49.7178
c0 -4.62207 3.74121 -8.36328 8.36328 -8.36328h49.7178c4.62305 0 8.36426 3.74121 8.36426 8.36328zM289.226 119.054v49.7178c0 4.62305 -3.74121 8.36426 -8.36426 8.36426h-49.7178c-4.62207 0 -8.36328 -3.74121 -8.36328 -8.36426v-49.7178
c0 -4.62207 3.74121 -8.36328 8.36328 -8.36328h49.7178c4.62305 0 8.36426 3.74121 8.36426 8.36328zM289.226 224.294v49.7178c0 4.62305 -3.74121 8.36426 -8.36426 8.36426h-49.7178c-4.62207 0 -8.36328 -3.74121 -8.36328 -8.36426v-49.7178
c0 -4.62207 3.74121 -8.36328 8.36328 -8.36328h49.7178c4.62305 0 8.36426 3.74121 8.36426 8.36328zM289.226 329.534v49.7178c0 4.62305 -3.74121 8.36426 -8.36426 8.36426h-49.7178c-4.62207 0 -8.36328 -3.74121 -8.36328 -8.36426v-49.7178
c0 -4.62207 3.74121 -8.36328 8.36328 -8.36328h49.7178c4.62305 0 8.36426 3.74121 8.36426 8.36328zM394.466 119.054v49.7178c0 4.62305 -3.74121 8.36426 -8.36426 8.36426h-49.7178c-4.62207 0 -8.36328 -3.74121 -8.36328 -8.36426v-49.7178
c0 -4.62207 3.74121 -8.36328 8.36328 -8.36328h49.7178c4.62305 0 8.36426 3.74121 8.36426 8.36328zM394.466 224.294v49.7178c0 4.62305 -3.74121 8.36426 -8.36426 8.36426h-49.7178c-4.62207 0 -8.36328 -3.74121 -8.36328 -8.36426v-49.7178
c0 -4.62207 3.74121 -8.36328 8.36328 -8.36328h49.7178c4.62305 0 8.36426 3.74121 8.36426 8.36328zM394.466 329.534v49.7178c0 4.62305 -3.74121 8.36426 -8.36426 8.36426h-49.7178c-4.62207 0 -8.36328 -3.74121 -8.36328 -8.36426v-49.7178
c0 -4.62207 3.74121 -8.36328 8.36328 -8.36328h49.7178c4.62305 0 8.36426 3.74121 8.36426 8.36328z"/>
            <glyph glyph-name="uniF158" unicode="&#xf158;"
                   d="M501.684 102.036c5.69531 0 10.3223 -4.62695 10.3115 -10.3213v-67.6035c0 -5.7002 -4.62207 -10.3213 -10.3223 -10.3213h-71.1943l0.00488281 -65.9043c0.0654297 -0.480469 0.108398 -0.970703 0.108398 -1.4668c0 -5.70605 -4.61621 -10.3271 -10.3223 -10.3271
h-0.107422h-67.5977c-5.70508 0 -10.3213 4.62109 -10.3213 10.3271v67.376h-220.201c-24.3311 0 -44.123 19.792 -44.123 44.1182v220.427h-67.5977c-5.7002 0 -10.3213 4.62695 -10.3213 10.3271v67.5977c0 5.7002 4.62109 10.3213 10.3213 10.3213h67.6035v70.9902
c0 5.70508 4.61621 10.3271 10.3213 10.3271h67.5928c5.70508 0 10.3271 -4.62695 10.3271 -10.3271v-70.9902l216.625 -0.00488281l75.9453 75.9668c1.94141 1.93652 4.5625 3.02539 7.30176 3.02539s5.36523 -1.08887 7.2959 -3.02539l32.8477 -32.8525
c4.0332 -4.0332 4.0332 -10.5693 0 -14.5977l-75.6982 -75.708v-217.354h71.2002zM342.248 231.148l-129.117 -129.112h129.117v129.112zM294.544 278.34l-128.378 0.0107422v-128.39z"/>
            <glyph glyph-name="uniF237" unicode="&#xf237;"
                   d="M490.123 302.766c7.23633 -72.0098 -76.9912 -229.546 -151.54 -311.966c-32.8857 -36.3652 -60.6748 -54.7998 -82.583 -54.7998s-49.6973 18.4346 -82.583 54.7998c-74.5537 82.4199 -158.776 239.956 -151.54 311.966
c0.620117 6.16504 5.81738 10.8682 12.0234 10.8682c83.9443 0 212.193 129.595 213.481 130.897c4.54004 4.61914 12.6904 4.62988 17.2314 0c1.29297 -1.30859 129.621 -130.897 213.486 -130.897c6.20605 0 11.4033 -4.69824 12.0234 -10.8682z"/>
            <glyph glyph-name="uniF1BC" unicode="&#xf1bc;"
                   d="M213.107 447.983c3.08789 0.189453 6.01465 -0.983398 8.2207 -3.09473c2.2002 -2.10547 3.44629 -5.02051 3.44629 -8.07031v-72.8506c0 -5.86426 -4.5293 -10.7285 -10.3828 -11.1416c-21.4355 -1.51367 -39.1064 -9.70703 -54.0293 -25.0488
c-55.1406 -56.666 -56.8721 -183.708 -56.8887 -198.017h87.6006c6.16602 0 11.1699 -5.00391 11.1699 -11.1699v-171.421c0 -6.16602 -5.00391 -11.1699 -11.1699 -11.1699h-171.409c-6.16602 0 -11.1699 5.00391 -11.1699 11.1699l-0.00585938 173.571
c-0.46875 18.4082 -2.11719 184.853 83.5352 273.151c32.3086 33.3037 74.1797 52.0078 121.083 54.0908zM500.154 444.895c2.2002 -2.11621 3.44629 -5.03223 3.44629 -8.07617v-72.8506c0 -5.86426 -4.52441 -10.7285 -10.377 -11.1416
c-21.4355 -1.51367 -39.1064 -9.70703 -54.0352 -25.0488c-55.1357 -56.666 -56.8672 -183.708 -56.8838 -198.017h87.584c6.16602 0 11.1699 -5.00391 11.1699 -11.1699v-171.421c0 -6.16602 -5.00391 -11.1699 -11.1699 -11.1699h-171.403
c-6.16602 0 -11.1699 5.00391 -11.1699 11.1699l-0.00585938 173.571c-0.46875 18.4082 -2.11133 184.853 83.5352 273.151c32.3145 33.3037 74.1914 52.0127 121.088 54.0908c3.16113 0.189453 6.01562 -0.983398 8.22168 -3.08887z"/>
            <glyph glyph-name="uniF12D" unicode="&#xf12d;"
                   d="M419.286 448c12.2275 0 22.1406 -9.91309 22.1406 -22.1406v-467.719c0 -9.25488 -5.75586 -17.5352 -14.4297 -20.7568c-2.5127 -0.929688 -5.12598 -1.38379 -7.70508 -1.38379c-6.31543 0 -12.4932 2.71777 -16.7822 7.69922l-146.51 170.095l-146.51 -170.095
c-6.04395 -7.01855 -15.791 -9.53711 -24.4873 -6.31543c-8.67383 3.22168 -14.4297 11.502 -14.4297 20.7568v467.719c0 12.2275 9.91309 22.1406 22.1406 22.1406h326.572z"/>
            </font>
</defs>
</svg>
